# Blender v2.79 (sub 0) OBJ File: ''
# www.blender.org
mtllib Lanza del destino.mtl
o Weapon-Lance_of_Longinus
v -0.442000 34.258873 -0.028537
v -0.702570 23.433498 -0.235218
v -1.189830 22.494732 -0.028538
v 0.000000 22.324541 -0.235608
v -0.286330 22.143372 -0.028538
v -0.477780 20.713451 -0.028539
v -0.224460 21.194670 -0.028539
v -0.263770 20.733582 -0.150819
v 0.000000 21.068489 -0.150879
v -0.477700 21.461960 -0.028539
v -0.262920 21.470280 0.093861
v 0.000000 21.282690 0.094071
v 0.000000 21.068489 0.093811
v -0.263770 20.733582 0.093751
v -0.223560 20.458281 -0.028539
v 0.000000 20.546341 0.094351
v -0.194160 19.363480 -0.028538
v 0.000000 19.363571 -0.249398
v -0.152760 13.117980 -0.028539
v 0.000000 13.117720 -0.203379
v 0.194160 19.363480 -0.028538
v 0.152760 13.117980 -0.028539
v -0.262920 21.470280 -0.150928
v 0.000000 21.282690 -0.151149
v -0.702570 23.433498 0.178152
v -0.107280 6.258570 -0.028539
v 0.000000 6.257620 -0.151599
v 0.000000 13.117720 0.146301
v 0.000000 19.363571 0.192332
v 0.000000 6.257620 0.094531
v 0.107280 6.258570 -0.028539
v 0.000000 20.546341 -0.151419
v 0.263770 20.733582 -0.150819
v 0.223570 20.458281 -0.028539
v 0.477780 20.713451 -0.028539
v 0.224460 21.194670 -0.028539
v 0.262930 21.470280 -0.150928
v 0.477710 21.461960 -0.028539
v 0.000000 21.805620 0.093942
v 0.262930 21.470280 0.093861
v 0.286330 22.143372 -0.028538
v 0.263770 20.733582 0.093751
v 1.189840 22.494732 -0.028538
v 0.702580 23.433498 -0.235218
v 0.442010 34.258873 -0.028537
v 0.000000 22.324541 0.178542
v -0.498250 20.174120 -0.028539
v 0.000000 21.805620 -0.151008
v 0.498250 20.174120 -0.028539
v -0.032820 0.000000 -0.066580
v -0.089190 -0.000040 -0.047560
v 0.084310 0.000000 0.000000
v -0.084310 0.000000 0.000000
v 0.702580 23.433498 0.178152
vt 0.008285 0.982000
vt 0.022364 0.125676
vt 0.004880 0.059063
vt 0.060733 0.047821
vt 0.004782 0.059061
vt 0.047326 0.023323
vt 0.065477 0.678146
vt 0.113064 0.575359
vt 0.106191 0.674148
vt 0.154069 0.602636
vt 0.067239 0.475520
vt 0.113502 0.575483
vt 0.106165 0.474196
vt 0.154069 0.556794
vt 0.154068 0.602277
vt 0.113461 0.574171
vt 0.106051 0.673914
vt 0.065230 0.678140
vt 0.112184 0.728622
vt 0.154069 0.714011
vt 0.491574 0.996143
vt 0.476515 0.996143
vt 0.491574 0.003731
vt 0.476514 0.003731
vt 0.459480 0.996143
vt 0.459480 0.003731
vt 0.142098 0.196975
vt 0.107345 0.274024
vt 0.120261 0.198381
vt 0.107362 0.226790
vt 0.142098 0.196975
vt 0.120881 0.198417
vt 0.107341 0.127806
vt 0.106996 0.176084
vt 0.154070 0.602277
vt 0.154068 0.556794
vt 0.106398 0.474200
vt 0.066715 0.475581
vt 0.022364 0.125566
vt 0.354275 0.962841
vt 0.343550 0.962841
vt 0.354532 0.003869
vt 0.340698 0.003869
vt 0.425534 0.004054
vt 0.443124 0.004054
vt 0.425725 0.994772
vt 0.441495 0.994772
vt 0.457773 0.004099
vt 0.457778 0.996009
vt 0.288765 0.003855
vt 0.303560 0.003856
vt 0.291063 0.962928
vt 0.309315 0.962928
vt 0.323449 0.962841
vt 0.323589 0.003869
vt 0.154069 0.714189
vt 0.202021 0.673819
vt 0.196845 0.729936
vt 0.240600 0.678146
vt 0.194628 0.576621
vt 0.201878 0.474668
vt 0.240143 0.475536
vt 0.321648 0.003855
vt 0.322614 0.962928
vt 0.154070 0.402076
vt 0.202021 0.474196
vt 0.205648 0.321209
vt 0.240154 0.475531
vt 0.202021 0.673819
vt 0.197089 0.729842
vt 0.022352 0.125784
vt 0.034537 0.149700
vt 0.008155 0.982000
vt 0.198585 0.008712
vt 0.190785 0.027779
vt 0.285362 0.059194
vt 0.276446 0.132592
vt 0.284972 0.983008
vt 0.060725 0.047820
vt 0.022332 0.125572
vt 0.047426 0.023348
vt 0.034448 0.149693
vt 0.022161 0.125919
vt 0.060635 0.047826
vt 0.102483 0.321209
vt 0.065882 0.475590
vt 0.112108 0.728444
vt 0.066437 0.475605
vt 0.062216 0.099874
vt 0.154070 0.968503
vt 0.118785 0.968461
vt 0.065868 0.784568
vt 0.065467 0.785372
vt 0.065338 0.785331
vt 0.106279 0.475038
vt 0.154070 0.402052
vt 0.154069 0.280310
vt 0.106051 0.673914
vt 0.112046 0.728771
vt 0.065730 0.785303
vt 0.244608 0.784948
vt 0.154068 0.968470
vt 0.118817 0.968564
vt 0.107341 0.127806
vt 0.107345 0.274024
vt 0.106996 0.176084
vt 0.107362 0.226790
vt 0.154069 0.968417
vt 0.154069 0.713745
vt 0.407531 0.968612
vt 0.407587 0.003638
vt 0.422961 0.968612
vt 0.423167 0.003638
vt 0.391293 0.003638
vt 0.390754 0.968612
vt 0.154069 0.280358
vt 0.356288 0.968544
vt 0.356479 0.003503
vt 0.372205 0.968544
vt 0.372259 0.003503
vt 0.389035 0.968543
vt 0.389092 0.003503
vt 0.084568 0.068515
vt 0.105545 0.110516
vt 0.105418 0.019047
vt 0.126395 0.061048
vt 0.205666 0.321208
vt 0.240678 0.475430
vt 0.094817 0.200259
vt 0.094817 0.200259
vt 0.244602 0.784704
vt 0.188874 0.968243
vt 0.246470 0.104905
vt 0.190795 0.027781
vt 0.266554 0.150656
vt 0.276445 0.132589
vt 0.074380 0.200797
vt 0.074380 0.200797
vt 0.244565 0.785152
vt 0.244716 0.784613
vt 0.244826 0.784955
vt 0.188599 0.968307
vt 0.285201 0.982662
vt 0.266558 0.150616
vn 0.0361 0.9993 -0.0002
vn 0.4022 0.1974 -0.8940
vn -0.8586 -0.5127 -0.0000
vn 0.0000 0.0750 -0.9972
vn -0.7718 -0.6359 -0.0000
vn -0.9906 -0.1367 -0.0000
vn -0.9732 -0.2302 -0.0000
vn 0.0725 -0.0186 -0.9972
vn 0.0000 -0.2517 -0.9678
vn -0.9796 -0.2011 -0.0000
vn 0.0911 -0.0871 0.9920
vn 0.0000 0.3835 0.9235
vn -0.0000 -0.2517 0.9678
vn 0.0725 -0.0186 0.9972
vn -0.9677 0.2520 -0.0000
vn -0.0000 0.4734 0.8808
vn -0.9805 -0.1964 -0.0000
vn -0.0000 -0.1093 -0.9940
vn -1.0000 -0.0066 -0.0000
vn -0.0000 -0.0075 -1.0000
vn 0.9805 -0.1964 0.0000
vn 1.0000 -0.0066 0.0000
vn 0.0911 -0.0871 -0.9920
vn 0.0000 0.3835 -0.9235
vn 0.4021 0.1974 0.8940
vn -1.0000 -0.0063 -0.0002
vn 0.0001 -0.0079 -1.0000
vn 0.0000 -0.0075 1.0000
vn 0.0000 -0.1093 0.9940
vn 0.0025 -0.0130 0.9999
vn 0.9999 -0.0118 0.0022
vn -0.0000 0.4734 -0.8808
vn -0.0725 -0.0186 -0.9972
vn 0.9677 0.2520 -0.0000
vn 0.9906 -0.1367 -0.0000
vn 0.9731 -0.2302 -0.0000
vn -0.0911 -0.0871 -0.9920
vn 0.9796 -0.2011 -0.0000
vn 0.0000 -0.3124 0.9500
vn -0.0910 -0.0872 0.9920
vn 0.7718 -0.6359 -0.0000
vn -0.0725 -0.0186 0.9972
vn 0.8586 -0.5127 -0.0000
vn -0.4022 0.1974 -0.8940
vn -0.0361 0.9993 -0.0002
vn 0.0000 0.0750 0.9972
vn -0.9766 0.2152 -0.0000
vn 0.0000 -0.3124 -0.9500
vn 0.9766 0.2152 -0.0000
vn 0.0704 -0.6282 -0.7749
vn -0.6821 -0.5873 -0.4357
vn 0.8074 -0.5479 0.2187
vn -0.5477 -0.5788 0.6042
vn -0.4021 0.1974 0.8940
usemtl dc6369e195c95b45-XA128.png
s 1
f 1/1/1 2/2/2 3/3/3
f 2/2/2 4/4/4 3/5/3
f 3/5/3 4/4/4 5/6/5
f 6/7/6 7/8/7 8/9/8
f 8/9/8 7/8/7 9/10/9
f 10/11/10 7/12/7 11/13/11
f 11/13/11 7/12/7 12/14/12
f 7/12/7 13/15/13 12/14/12
f 13/15/13 7/16/7 14/17/14
f 7/16/7 6/18/6 14/17/14
f 6/18/6 15/19/15 14/17/14
f 14/17/14 15/19/15 16/20/16
f 17/21/17 18/22/18 19/23/19
f 19/23/19 18/22/18 20/24/20
f 18/22/18 21/25/21 20/24/20
f 20/24/20 21/25/21 22/26/22
f 11/27/11 12/28/12 23/29/23
f 12/28/12 24/30/24 23/29/23
f 14/31/14 8/32/8 13/33/13
f 13/33/13 8/32/8 9/34/9
f 9/35/9 7/8/7 24/36/24
f 24/36/24 7/8/7 23/37/23
f 7/8/7 10/38/10 23/37/23
f 25/39/25 1/1/1 3/3/3
f 19/40/19 20/41/20 26/42/26
f 26/42/26 20/41/20 27/43/27
f 19/44/19 28/45/28 17/46/17
f 17/46/17 28/45/28 29/47/29
f 28/45/28 22/48/22 29/47/29
f 29/47/29 22/48/22 21/49/21
f 26/50/26 30/51/30 19/52/19
f 19/52/19 30/51/30 28/53/28
f 20/41/20 22/54/22 27/43/27
f 27/43/27 22/54/22 31/55/31
f 32/56/32 33/57/33 34/58/34
f 34/58/34 33/57/33 35/59/35
f 35/59/35 33/57/33 36/60/36
f 33/57/33 9/35/9 36/60/36
f 36/60/36 9/35/9 24/36/24
f 24/36/24 37/61/37 36/60/36
f 36/60/36 37/61/37 38/62/38
f 30/51/30 31/63/31 28/53/28
f 28/53/28 31/63/31 22/64/22
f 39/65/39 40/66/40 41/67/41
f 41/67/41 40/66/40 38/68/38
f 38/68/38 40/66/40 36/60/36
f 40/66/40 12/14/12 36/60/36
f 36/60/36 12/14/12 13/15/13
f 13/15/13 42/69/42 36/60/36
f 36/60/36 42/69/42 35/59/35
f 35/59/35 42/69/42 34/70/34
f 42/69/42 16/20/16 34/70/34
f 25/71/25 2/72/2 1/73/1
f 41/74/41 4/75/4 43/76/43
f 43/76/43 4/75/4 44/77/44
f 44/77/44 45/78/45 43/76/43
f 3/3/3 46/79/46 25/80/25
f 5/81/5 46/79/46 3/3/3
f 2/82/2 25/83/25 46/84/46
f 5/85/5 23/37/23 10/86/10
f 15/87/15 6/7/6 8/9/8
f 10/88/10 11/13/11 5/85/5
f 11/13/11 39/65/39 5/85/5
f 46/84/46 4/89/4 2/72/2
f 18/90/18 17/91/17 47/92/47
f 32/56/32 47/93/47 15/87/15
f 47/94/47 32/56/32 18/90/18
f 23/95/23 5/85/5 48/96/48
f 48/96/48 5/85/5 4/97/4
f 8/98/8 32/56/32 15/87/15
f 15/99/15 47/100/47 16/20/16
f 16/20/16 49/101/49 34/70/34
f 29/102/29 47/100/47 17/103/17
f 11/27/11 23/29/23 39/104/39
f 16/105/16 8/32/8 14/31/14
f 39/104/39 23/29/23 48/106/48
f 16/105/16 32/107/32 8/32/8
f 47/93/47 29/108/29 16/109/16
f 27/110/27 50/111/50 26/112/26
f 50/111/50 51/113/51 26/112/26
f 50/111/50 27/110/27 52/114/52
f 27/110/27 31/115/31 52/114/52
f 46/116/46 5/85/5 39/65/39
f 26/117/26 51/118/51 30/119/30
f 51/118/51 53/120/53 30/119/30
f 30/119/30 53/120/53 31/121/31
f 53/120/53 52/122/52 31/121/31
f 51/123/51 50/124/50 53/125/53
f 50/124/50 52/126/52 53/125/53
f 4/97/4 41/127/41 48/96/48
f 48/96/48 41/127/41 37/61/37
f 41/127/41 38/128/38 37/61/37
f 39/104/39 48/106/48 37/129/37
f 12/28/12 37/129/37 24/30/24
f 13/33/13 9/34/9 33/130/33
f 16/105/16 33/130/33 32/107/32
f 49/101/49 18/90/18 32/56/32
f 18/90/18 49/131/49 21/132/21
f 41/127/41 46/116/46 39/65/39
f 4/133/4 46/134/46 44/135/44
f 54/136/54 44/135/44 46/134/46
f 39/104/39 37/129/37 40/137/40
f 12/28/12 40/137/40 37/129/37
f 42/138/42 13/33/13 33/130/33
f 42/138/42 33/130/33 16/105/16
f 34/70/34 49/139/49 32/56/32
f 49/140/49 16/20/16 29/108/29
f 49/141/49 29/108/29 21/142/21
f 43/76/43 46/134/46 41/74/41
f 54/136/54 45/143/45 44/144/44
f 54/136/54 46/134/46 43/76/43
f 45/78/45 54/136/54 43/76/43
