# Blender 5.1.1
# www.blender.org
mtllib Weapon-Lance of Longinus.mtl
o Weapon-Lance_of_Longinus
v -0.442000 34.258873 -0.028543
v -0.702570 23.433498 -0.235222
v -1.189830 22.494732 -0.028542
v 0.000000 22.324541 -0.235612
v -0.286330 22.143372 -0.028542
v -0.477780 20.713451 -0.028542
v -0.263770 20.733582 -0.150822
v -0.224460 21.194670 -0.028542
v 0.000000 21.068489 -0.150882
v -0.477700 21.461960 -0.028542
v -0.262920 21.470280 0.093858
v 0.000000 21.282690 0.094068
v 0.000000 21.068489 0.093808
v -0.263770 20.733582 0.093748
v -0.223560 20.458281 -0.028542
v 0.000000 20.546341 0.094348
v -0.194160 19.363480 -0.028541
v -0.152760 13.117980 -0.028541
v 0.000000 19.363571 -0.249401
v 0.000000 13.117720 -0.203381
v 0.194160 19.363480 -0.028541
v 0.152760 13.117980 -0.028541
v -0.262920 21.470280 -0.150932
v 0.000000 21.282690 -0.151152
v -0.702570 23.433498 0.178148
v -0.107280 6.258570 -0.028540
v 0.000000 6.257620 -0.151600
v 0.000000 13.117720 0.146299
v 0.000000 19.363571 0.192329
v 0.000000 6.257620 0.094530
v 0.107280 6.258570 -0.028540
v 0.000000 20.546341 -0.151422
v 0.223570 20.458281 -0.028542
v 0.263770 20.733582 -0.150822
v 0.477780 20.713451 -0.028542
v 0.224460 21.194670 -0.028542
v 0.262930 21.470280 -0.150932
v 0.477710 21.461960 -0.028542
v 0.000000 21.805620 0.093938
v 0.286330 22.143372 -0.028542
v 0.262930 21.470280 0.093858
v 0.263770 20.733582 0.093748
v 1.189840 22.494732 -0.028542
v 0.702580 23.433498 -0.235222
v 0.442010 34.258873 -0.028543
v 0.000000 22.324541 0.178538
v -0.498250 20.174120 -0.028542
v 0.000000 21.805620 -0.151012
v 0.498250 20.174120 -0.028542
v -0.032820 -0.000000 -0.066580
v -0.089190 -0.000040 -0.047560
v 0.084310 0.000000 0.000000
v -0.084310 0.000000 0.000000
v 0.702580 23.433498 0.178148
v -5.095780 36.852940 -0.026283
v -5.096760 36.853249 -5.101883
v -0.002260 36.853939 -0.026283
v -0.002260 36.852711 -5.101513
v 5.091270 36.852928 -0.026283
v 5.092240 36.853241 -5.101883
v -5.096760 36.853249 5.049327
v -0.002260 36.852711 5.048957
v 5.092240 36.853241 5.049327
v -2.940530 36.881081 2.900877
v -4.157620 36.880459 -0.026283
v -1.721060 36.880840 1.686717
v -2.433490 36.881592 -0.026283
v -2.940530 36.881081 -2.953433
v -1.721060 36.880840 -1.739273
v -0.002260 36.880001 2.396127
v -0.002260 36.881371 4.114217
v 1.716540 36.880840 1.686717
v 2.936010 36.881081 2.900877
v -0.002260 36.881371 -4.166773
v -0.002260 36.880001 -2.448683
v 2.428970 36.881592 -0.026283
v 4.153110 36.880459 -0.026283
v 2.936010 36.881081 -2.953433
v 1.716540 36.880840 -1.739273
v -2.207140 36.735043 -0.940963
v -1.690430 36.734348 -1.715133
v -4.842890 21.522640 -4.867432
v -0.915190 36.734840 -2.231133
v -2.622280 21.522659 -6.351222
v -0.002260 36.733940 -2.413173
v -0.002260 21.521990 -6.872381
v 0.910680 36.734840 -2.231133
v 2.617770 21.522659 -6.351222
v 1.685920 36.734348 -1.715133
v 4.838370 21.522640 -4.867432
v 6.322470 21.522570 -2.646512
v 2.202620 36.735043 -0.940963
v 6.843840 21.522190 -0.026282
v 2.384250 36.734760 -0.026283
v 6.322470 21.522570 2.593958
v 2.202620 36.735043 0.888407
v 4.838370 21.522640 4.814878
v 1.685920 36.734348 1.662577
v 0.910680 36.734840 2.178577
v 2.617770 21.522659 6.298669
v -0.002260 36.733940 2.360617
v -0.002260 21.521990 6.819818
v -0.915190 36.734840 2.178577
v -2.622280 21.522659 6.298669
v -1.690430 36.734348 1.662577
v -4.842890 21.522640 4.814878
v -6.326980 21.522570 2.593958
v -2.207140 36.735043 0.888407
v -6.848360 21.522190 -0.026282
v -2.388770 36.734760 -0.026283
v -6.326980 21.522570 -2.646512
v -1.181260 32.728928 0.208368
v -3.173260 12.011940 -0.656671
v -1.181260 32.728928 -0.260922
v -2.690690 12.011761 -1.822821
v -1.002010 32.728352 -0.693992
v -1.798610 12.011890 -2.714851
v -0.670020 32.728699 -1.025473
v -0.633250 12.011850 -3.197481
v -0.236830 32.729191 -1.205842
v 0.232310 32.729191 -1.205842
v 0.628730 12.011850 -3.197481
v 0.665500 32.728699 -1.025473
v 1.794090 12.011890 -2.714851
v 0.997500 32.728352 -0.693992
v 2.686170 12.011761 -1.822821
v 1.176750 32.728928 -0.260922
v 3.168740 12.011940 -0.656671
v 3.168740 12.011940 0.604119
v 1.176750 32.728928 0.208368
v 2.686170 12.011761 1.770269
v 0.997500 32.728352 0.641438
v 1.794090 12.011890 2.662299
v 0.665500 32.728699 0.972918
v 0.628740 12.011850 3.144919
v 0.232310 32.729191 1.153288
v -0.236830 32.729191 1.153288
v -0.633250 12.011850 3.144929
v -0.670020 32.728699 0.972918
v -1.798610 12.011890 2.662299
v -1.002010 32.728352 0.641438
v -2.690690 12.011761 1.770269
v -3.173260 12.011940 0.604119
vn 0.0363 0.9993 0.0001
vn 0.4021 0.1974 -0.8940
vn -0.8586 -0.5127 -0.0000
vn -0.0000 0.0750 -0.9972
vn -0.7717 -0.6359 -0.0000
vn -0.9906 -0.1367 -0.0000
vn -0.9731 -0.2302 -0.0000
vn 0.0725 -0.0186 -0.9972
vn -0.0000 -0.2517 -0.9678
vn -0.9796 -0.2011 -0.0000
vn 0.0910 -0.0871 0.9920
vn -0.0000 0.3835 0.9235
vn -0.0000 -0.2517 0.9678
vn 0.0725 -0.0186 0.9972
vn -0.9677 0.2520 -0.0000
vn -0.0000 0.4734 0.8808
vn -0.9805 -0.1964 -0.0000
vn -0.0000 -0.1093 -0.9940
vn -1.0000 -0.0066 -0.0000
vn -0.0000 -0.0075 -1.0000
vn 0.9805 -0.1964 -0.0000
vn 1.0000 -0.0066 -0.0000
vn 0.0911 -0.0871 -0.9920
vn -0.0000 0.3835 -0.9235
vn 0.4022 0.1974 0.8940
vn -1.0000 -0.0063 -0.0002
vn 0.0001 -0.0079 -1.0000
vn -0.0000 -0.0075 1.0000
vn -0.0000 -0.1093 0.9940
vn 0.0025 -0.0130 0.9999
vn 0.9999 -0.0118 0.0022
vn -0.0000 0.4734 -0.8808
vn -0.0725 -0.0186 -0.9972
vn 0.9677 0.2520 -0.0000
vn 0.9906 -0.1367 -0.0000
vn 0.9731 -0.2302 -0.0000
vn -0.0910 -0.0871 -0.9920
vn 0.9796 -0.2011 -0.0000
vn -0.0000 -0.3124 0.9500
vn -0.0910 -0.0872 0.9920
vn 0.7717 -0.6359 -0.0000
vn -0.0725 -0.0186 0.9972
vn 0.8586 -0.5127 -0.0000
vn -0.4021 0.1974 -0.8940
vn -0.0361 0.9993 -0.0002
vn -0.0000 0.0750 0.9972
vn -0.9766 0.2152 -0.0000
vn -0.0000 -0.3124 -0.9500
vn 0.9766 0.2152 -0.0000
vn 0.0704 -0.6282 -0.7749
vn -0.6821 -0.5873 -0.4357
vn 0.8074 -0.5479 0.2187
vn -0.5477 -0.5788 0.6042
vn -0.4021 0.1974 0.8940
vn -0.0001 1.0000 0.0001
vn -0.0000 1.0000 -0.0000
vn -0.0000 1.0000 -0.0001
vn 0.0001 1.0000 -0.0002
vn 0.0001 1.0000 -0.0001
vn -0.0001 1.0000 0.0002
vn -0.0000 1.0000 0.0001
vn 0.0002 1.0000 -0.0002
vn 0.0001 1.0000 0.0001
vn -0.0005 1.0000 0.0001
vn -0.0005 1.0000 0.0003
vn 0.0003 1.0000 0.0001
vn -0.0003 1.0000 -0.0007
vn -0.0001 1.0000 -0.0007
vn -0.0003 1.0000 -0.0001
vn 0.0001 1.0000 0.0007
vn 0.0003 1.0000 0.0007
vn 0.0005 1.0000 -0.0003
vn 0.0005 1.0000 -0.0001
vn -0.0002 1.0000 0.0002
vn -0.0001 1.0000 -0.0001
vn -0.8867 0.2813 -0.3669
vn -0.6781 0.2812 -0.6790
vn -0.6785 0.2813 -0.6786
vn -0.3667 0.2812 -0.8868
vn -0.3672 0.2813 -0.8866
vn -0.0000 0.2813 -0.9596
vn 0.3666 0.2813 -0.8868
vn 0.3672 0.2813 -0.8866
vn 0.6781 0.2814 -0.6789
vn 0.6786 0.2812 -0.6786
vn 0.8866 0.2813 -0.3672
vn 0.8867 0.2813 -0.3669
vn 0.9596 0.2813 -0.0000
vn 0.8866 0.2813 0.3672
vn 0.8867 0.2813 0.3669
vn 0.6785 0.2813 0.6786
vn 0.6781 0.2812 0.6790
vn 0.3667 0.2812 0.8868
vn 0.3672 0.2813 0.8866
vn -0.0000 0.2813 0.9596
vn -0.3666 0.2813 0.8868
vn -0.3672 0.2813 0.8866
vn -0.6781 0.2814 0.6789
vn -0.6786 0.2812 0.6786
vn -0.8866 0.2813 0.3672
vn -0.8867 0.2813 0.3669
vn -0.9596 0.2813 -0.0000
vn -0.8866 0.2813 -0.3672
vn -0.9761 0.0976 0.1940
vn -0.9761 0.0976 -0.1940
vn -0.8276 0.0976 -0.5528
vn -0.8274 0.0976 -0.5531
vn -0.5529 0.0976 -0.8275
vn -0.5533 0.0975 -0.8272
vn -0.1941 0.0976 -0.9761
vn -0.1951 0.0976 -0.9759
vn 0.1951 0.0976 -0.9759
vn 0.1941 0.0976 -0.9761
vn 0.5533 0.0975 -0.8272
vn 0.5529 0.0976 -0.8275
vn 0.8274 0.0976 -0.5531
vn 0.8276 0.0976 -0.5528
vn 0.9761 0.0976 -0.1940
vn 0.9761 0.0976 0.1940
vn 0.8276 0.0976 0.5528
vn 0.8274 0.0976 0.5531
vn 0.5529 0.0976 0.8275
vn 0.5533 0.0975 0.8272
vn 0.1941 0.0976 0.9761
vn 0.1951 0.0976 0.9759
vn -0.1951 0.0976 0.9759
vn -0.1941 0.0976 0.9761
vn -0.5533 0.0975 0.8272
vn -0.5529 0.0976 0.8275
vn -0.8274 0.0976 0.5531
vn -0.8276 0.0976 0.5528
vt 0.008285 0.982000
vt 0.022364 0.125676
vt 0.004880 0.059063
vt 0.060733 0.047821
vt 0.004782 0.059061
vt 0.047326 0.023323
vt 0.065477 0.678146
vt 0.113064 0.575359
vt 0.106191 0.674148
vt 0.154069 0.602636
vt 0.067239 0.475520
vt 0.113502 0.575483
vt 0.106165 0.474196
vt 0.154069 0.556794
vt 0.154068 0.602277
vt 0.113461 0.574171
vt 0.106051 0.673914
vt 0.065230 0.678140
vt 0.112184 0.728622
vt 0.154069 0.714011
vt 0.491574 0.996143
vt 0.476515 0.996143
vt 0.491574 0.003731
vt 0.476514 0.003731
vt 0.459480 0.996143
vt 0.459480 0.003731
vt 0.142098 0.196975
vt 0.107345 0.274024
vt 0.120261 0.198381
vt 0.107362 0.226790
vt 0.120881 0.198417
vt 0.107341 0.127806
vt 0.106996 0.176084
vt 0.154070 0.602277
vt 0.154068 0.556794
vt 0.106398 0.474200
vt 0.066715 0.475581
vt 0.022364 0.125566
vt 0.354275 0.962841
vt 0.343550 0.962841
vt 0.354532 0.003869
vt 0.340698 0.003869
vt 0.425534 0.004054
vt 0.443124 0.004054
vt 0.425725 0.994772
vt 0.441495 0.994772
vt 0.443128 0.004099
vt 0.457773 0.004099
vt 0.457778 0.996009
vt 0.288765 0.003855
vt 0.303560 0.003856
vt 0.291063 0.962928
vt 0.309315 0.962928
vt 0.343543 0.962841
vt 0.323449 0.962841
vt 0.340682 0.003869
vt 0.323589 0.003869
vt 0.154069 0.714189
vt 0.202021 0.673819
vt 0.196845 0.729936
vt 0.240600 0.678146
vt 0.194628 0.576621
vt 0.201878 0.474668
vt 0.240143 0.475536
vt 0.303568 0.003856
vt 0.321648 0.003855
vt 0.309319 0.962928
vt 0.322614 0.962928
vt 0.154070 0.402076
vt 0.202021 0.474196
vt 0.205648 0.321209
vt 0.240154 0.475531
vt 0.194613 0.576550
vt 0.240619 0.678140
vt 0.197089 0.729842
vt 0.022352 0.125784
vt 0.034537 0.149700
vt 0.008155 0.982000
vt 0.198585 0.008712
vt 0.190785 0.027779
vt 0.285362 0.059194
vt 0.276446 0.132592
vt 0.284972 0.983008
vt 0.285363 0.059194
vt 0.004945 0.059061
vt 0.060725 0.047820
vt 0.022332 0.125572
vt 0.047426 0.023348
vt 0.004947 0.059068
vt 0.034448 0.149693
vt 0.022161 0.125919
vt 0.060635 0.047826
vt 0.102483 0.321209
vt 0.065882 0.475590
vt 0.112108 0.728444
vt 0.066437 0.475605
vt 0.102477 0.321207
vt 0.060554 0.047830
vt 0.062216 0.099874
vt 0.034465 0.149684
vt 0.154070 0.968503
vt 0.118785 0.968461
vt 0.065868 0.784568
vt 0.154069 0.714216
vt 0.065467 0.785372
vt 0.065338 0.785331
vt 0.106279 0.475038
vt 0.102495 0.321207
vt 0.154070 0.402052
vt 0.102469 0.321207
vt 0.154069 0.280310
vt 0.112046 0.728771
vt 0.065730 0.785303
vt 0.244608 0.784948
vt 0.154068 0.968470
vt 0.118817 0.968564
vt 0.154069 0.968417
vt 0.154069 0.713745
vt 0.407531 0.968612
vt 0.407587 0.003638
vt 0.422961 0.968612
vt 0.423167 0.003638
vt 0.407529 0.968612
vt 0.391293 0.003638
vt 0.390754 0.968612
vt 0.154069 0.280358
vt 0.356288 0.968544
vt 0.356479 0.003503
vt 0.372205 0.968544
vt 0.372259 0.003503
vt 0.372206 0.968544
vt 0.389035 0.968543
vt 0.389092 0.003503
vt 0.084568 0.068515
vt 0.105545 0.110516
vt 0.105418 0.019047
vt 0.126395 0.061048
vt 0.205666 0.321208
vt 0.205657 0.321209
vt 0.240678 0.475430
vt 0.094817 0.200259
vt 0.154070 0.968458
vt 0.154070 0.968450
vt 0.244602 0.784704
vt 0.188874 0.968243
vt 0.246470 0.104905
vt 0.190795 0.027781
vt 0.266554 0.150656
vt 0.276445 0.132589
vt 0.190782 0.027780
vt 0.074380 0.200797
vt 0.244565 0.785152
vt 0.244716 0.784613
vt 0.244826 0.784955
vt 0.188599 0.968307
vt 0.285362 0.059195
vt 0.190784 0.027779
vt 0.198583 0.008720
vt 0.276447 0.132586
vt 0.285201 0.982662
vt 0.266558 0.150616
vt 0.505799 0.505799
vt 0.747101 0.505799
vt 0.505799 0.993677
vt 0.747101 0.993677
vt 0.505799 0.993678
vt 0.747101 0.993678
vt 0.491040 0.995743
vt 0.491040 0.504509
vt 0.005960 0.995743
vt 0.005960 0.504509
vt 0.437991 0.000561
vt 0.494809 0.000561
vt 0.494809 0.490214
vt 0.437991 0.490214
vt 0.381173 0.000561
vt 0.381173 0.490214
vt 0.324355 0.000561
vt 0.324355 0.490214
vt 0.267536 0.000561
vt 0.267536 0.490214
s 1
usemtl dc6369e195c95b45-XA128.png
f 1/1/1 2/2/2 3/3/3
f 2/2/2 4/4/4 3/5/3
f 3/5/3 4/4/4 5/6/5
f 6/7/6 8/8/7 7/9/8
f 7/9/8 8/8/7 9/10/9
f 10/11/10 8/12/7 11/13/11
f 11/13/11 8/12/7 12/14/12
f 8/12/7 13/15/13 12/14/12
f 13/15/13 8/16/7 14/17/14
f 8/16/7 6/18/6 14/17/14
f 6/18/6 15/19/15 14/17/14
f 14/17/14 15/19/15 16/20/16
f 17/21/17 19/22/18 18/23/19
f 18/23/19 19/22/18 20/24/20
f 19/22/18 21/25/21 20/24/20
f 20/24/20 21/25/21 22/26/22
f 11/27/11 12/28/12 23/29/23
f 12/28/12 24/30/24 23/29/23
f 14/27/14 7/31/8 13/32/13
f 13/32/13 7/31/8 9/33/9
f 9/34/9 8/8/7 24/35/24
f 24/35/24 8/8/7 23/36/23
f 8/8/7 10/37/10 23/36/23
f 25/38/25 1/1/1 3/3/3
f 18/39/19 20/40/20 26/41/26
f 26/41/26 20/40/20 27/42/27
f 18/43/19 28/44/28 17/45/17
f 17/45/17 28/44/28 29/46/29
f 28/47/28 22/48/22 29/46/29
f 29/46/29 22/48/22 21/49/21
f 26/50/26 30/51/30 18/52/19
f 18/52/19 30/51/30 28/53/28
f 20/54/20 22/55/22 27/56/27
f 27/56/27 22/55/22 31/57/31
f 32/58/32 34/59/33 33/60/34
f 33/60/34 34/59/33 35/61/35
f 35/61/35 34/59/33 36/62/36
f 34/59/33 9/34/9 36/62/36
f 36/62/36 9/34/9 24/35/24
f 24/35/24 37/63/37 36/62/36
f 36/62/36 37/63/37 38/64/38
f 30/65/30 31/66/31 28/67/28
f 28/67/28 31/66/31 22/68/22
f 39/69/39 41/70/40 40/71/41
f 40/71/41 41/70/40 38/72/38
f 38/72/38 41/70/40 36/73/36
f 41/70/40 12/14/12 36/73/36
f 36/73/36 12/14/12 13/15/13
f 13/15/13 42/59/42 36/73/36
f 36/73/36 42/59/42 35/74/35
f 35/74/35 42/59/42 33/75/34
f 42/59/42 16/20/16 33/75/34
f 25/76/25 2/77/2 1/78/1
f 40/79/41 4/80/4 43/81/43
f 43/81/43 4/80/4 44/82/44
f 44/82/44 45/83/45 43/84/43
f 3/85/3 46/86/46 25/87/25
f 5/88/5 46/86/46 3/89/3
f 2/90/2 25/91/25 46/92/46
f 5/93/5 23/36/23 10/94/10
f 15/95/15 6/7/6 7/9/8
f 10/96/10 11/13/11 5/97/5
f 11/13/11 39/69/39 5/97/5
f 46/98/46 4/99/4 2/100/2
f 19/101/18 17/102/17 47/103/47
f 32/104/32 47/105/47 15/95/15
f 47/106/47 32/58/32 19/101/18
f 23/107/23 5/108/5 48/109/48
f 48/109/48 5/110/5 4/111/4
f 7/17/8 32/58/32 15/95/15
f 15/112/15 47/113/47 16/20/16
f 16/20/16 49/114/49 33/75/34
f 29/115/29 47/113/47 17/116/17
f 11/27/11 23/29/23 39/32/39
f 16/28/16 7/31/8 14/27/14
f 39/32/39 23/29/23 48/33/48
f 16/28/16 32/30/32 7/31/8
f 47/105/47 29/117/29 16/118/16
f 27/119/27 50/120/50 26/121/26
f 50/120/50 51/122/51 26/121/26
f 50/120/50 27/123/27 52/124/52
f 27/123/27 31/125/31 52/124/52
f 46/126/46 5/110/5 39/69/39
f 26/127/26 51/128/51 30/129/30
f 51/128/51 53/130/53 30/129/30
f 30/131/30 53/130/53 31/132/31
f 53/130/53 52/133/52 31/132/31
f 51/134/51 50/135/50 53/136/53
f 50/135/50 52/137/52 53/136/53
f 4/111/4 40/138/41 48/109/48
f 48/109/48 40/139/41 37/63/37
f 40/139/41 38/140/38 37/63/37
f 39/32/39 48/33/48 37/141/37
f 12/28/12 37/141/37 24/30/24
f 13/32/13 9/33/9 34/141/33
f 16/28/16 34/141/33 32/30/32
f 49/114/49 19/142/18 32/104/32
f 19/143/18 49/144/49 21/145/21
f 40/138/41 46/126/46 39/69/39
f 4/146/4 46/147/46 44/148/44
f 54/149/54 44/148/44 46/150/46
f 39/32/39 37/141/37 41/151/40
f 12/28/12 41/151/40 37/141/37
f 42/151/42 13/32/13 34/141/33
f 42/151/42 34/141/33 16/28/16
f 33/75/34 49/152/49 32/58/32
f 49/153/49 16/20/16 29/117/29
f 49/154/49 29/117/29 21/155/21
f 43/156/43 46/157/46 40/158/41
f 54/159/54 45/160/45 44/161/44
f 54/159/54 46/157/46 43/81/43
f 45/83/45 54/159/54 43/84/43
usemtl 952d6d2f0e4b2172-XA128.png
f 55/162/55 57/163/56 56/164/57
f 56/164/57 57/163/56 58/165/58
f 57/163/56 59/162/59 58/165/58
f 58/165/58 59/162/59 60/164/55
f 61/166/59 62/167/60 55/162/55
f 55/162/55 62/167/60 57/163/56
f 62/167/60 63/166/61 57/163/56
f 57/163/56 63/166/61 59/162/59
f 64/168/62 66/169/63 65/170/64
f 65/170/64 66/169/63 67/171/65
f 65/168/64 67/169/65 68/170/56
f 68/170/56 67/169/65 69/171/66
f 66/171/63 64/170/62 70/169/67
f 70/169/67 64/170/62 71/168/68
f 70/171/67 71/170/68 72/169/69
f 71/170/68 73/168/56 72/169/69
f 68/168/56 69/169/66 74/170/70
f 74/170/70 69/169/66 75/171/71
f 72/171/69 73/170/56 76/169/72
f 76/169/72 73/170/56 77/168/73
f 74/168/70 75/169/71 78/170/74
f 75/169/71 79/171/75 78/170/74
f 76/171/72 77/170/73 79/169/75
f 79/169/75 77/170/73 78/168/74
f 80/172/76 81/173/77 82/174/78
f 81/173/77 83/172/79 82/174/78
f 82/174/78 83/172/79 84/175/80
f 83/172/79 85/176/81 84/175/80
f 84/175/80 85/176/81 86/177/81
f 85/176/81 87/178/82 86/177/81
f 86/177/81 87/178/82 88/179/83
f 87/178/82 89/180/84 88/179/83
f 88/179/83 89/180/84 90/181/85
f 90/181/85 89/180/84 91/179/86
f 89/180/84 92/178/87 91/179/86
f 91/179/86 92/178/87 93/177/88
f 92/178/87 94/176/88 93/177/88
f 93/177/88 94/176/88 95/175/89
f 94/176/88 96/172/90 95/175/89
f 95/175/89 96/172/90 97/174/91
f 96/172/90 98/173/92 97/174/91
f 98/173/92 99/172/93 97/174/91
f 97/174/91 99/172/93 100/175/94
f 99/172/93 101/176/95 100/175/94
f 100/175/94 101/176/95 102/177/95
f 101/176/95 103/178/96 102/177/95
f 102/177/95 103/178/96 104/179/97
f 103/178/96 105/180/98 104/179/97
f 104/179/97 105/180/98 106/181/99
f 106/181/99 105/180/98 107/179/100
f 105/180/98 108/178/101 107/179/100
f 107/179/100 108/178/101 109/177/102
f 108/178/101 110/176/102 109/177/102
f 109/177/102 110/176/102 111/175/103
f 110/176/102 80/172/76 111/175/103
f 111/175/103 80/172/76 82/174/78
f 112/180/104 114/178/105 113/179/105
f 113/179/105 114/178/105 115/177/106
f 114/178/105 116/176/107 115/177/106
f 115/177/106 116/176/107 117/175/108
f 116/176/107 118/172/109 117/175/108
f 117/175/108 118/172/109 119/174/110
f 118/172/109 120/173/111 119/174/110
f 120/173/111 121/172/112 119/174/110
f 119/174/110 121/172/112 122/175/113
f 121/172/112 123/176/114 122/175/113
f 122/175/113 123/176/114 124/177/115
f 123/176/114 125/178/116 124/177/115
f 124/177/115 125/178/116 126/179/117
f 125/178/116 127/180/118 126/179/117
f 126/179/117 127/180/118 128/181/118
f 128/181/118 127/180/118 129/179/119
f 127/180/118 130/178/119 129/179/119
f 129/179/119 130/178/119 131/177/120
f 130/178/119 132/176/121 131/177/120
f 131/177/120 132/176/121 133/175/122
f 132/176/121 134/172/123 133/175/122
f 133/175/122 134/172/123 135/174/124
f 134/172/123 136/173/125 135/174/124
f 136/173/125 137/172/126 135/174/124
f 135/174/124 137/172/126 138/175/127
f 137/172/126 139/176/128 138/175/127
f 138/175/127 139/176/128 140/177/129
f 139/176/128 141/178/130 140/177/129
f 140/177/129 141/178/130 142/179/131
f 141/178/130 112/180/104 142/179/131
f 142/179/131 112/180/104 143/181/104
f 112/180/104 113/179/105 143/181/104
