# Blender v2.77 (sub 0) OBJ File: ''
# www.blender.org
mtllib WP_A_0208.mtl
o mesh0
v -0.030592 -0.389645 -0.011317
v -0.030592 -0.389645 0.011317
v -0.127255 -0.410024 0.004041
v -0.011730 0.317002 -0.000000
v -0.016804 0.363271 -0.029387
v -0.033770 0.363271 -0.000000
v -0.005783 0.317002 -0.010299
v 0.017129 0.363271 -0.029387
v 0.006109 0.317002 -0.010299
v 0.034096 0.363271 -0.000000
v 0.012055 0.317002 -0.000000
v 0.240261 -0.105414 0.019155
v 0.179707 -0.094739 0.006528
v 0.240261 -0.086660 0.010409
v 0.179706 -0.105414 0.012014
v 0.179706 -0.105414 0.012014
v 0.075228 -0.097984 0.004663
v 0.075228 -0.105414 0.008581
v 0.179707 -0.116089 0.006528
v 0.240261 -0.124168 0.010409
v 0.075228 -0.105414 0.008581
v 0.075228 -0.112844 0.004663
v -0.179704 -0.094739 0.006528
v -0.240259 -0.105414 0.019155
v -0.240259 -0.086660 0.010409
v -0.179704 -0.105414 0.012014
v -0.179704 -0.116089 0.006528
v -0.240259 -0.124168 0.010409
v -0.075226 -0.105414 0.008581
v -0.075226 -0.112844 0.004663
v -0.075226 -0.105414 0.008581
v -0.179704 -0.105414 0.012014
v -0.075226 -0.097984 0.004663
v -0.016804 0.363271 -0.029387
v -0.010267 0.405889 -0.000000
v -0.033770 0.363271 -0.000000
v -0.005052 0.405889 -0.009033
v 0.017129 0.363271 -0.029387
v 0.005378 0.405889 -0.009033
v 0.034096 0.363271 -0.000000
v 0.010593 0.405889 -0.000000
v -0.179704 -0.116089 -0.006528
v -0.240259 -0.105414 -0.019155
v -0.240259 -0.124168 -0.010409
v -0.179704 -0.105414 -0.012014
v -0.075226 -0.105414 -0.008581
v -0.075226 -0.111596 -0.004663
v -0.179704 -0.094739 -0.006528
v -0.075226 -0.099232 -0.004663
v -0.075226 -0.105414 -0.008581
v -0.240259 -0.086660 -0.010409
v 0.240261 -0.105414 -0.019155
v 0.179707 -0.116089 -0.006528
v 0.240261 -0.124168 -0.010409
v 0.179707 -0.105414 -0.012014
v 0.075228 -0.112844 -0.004663
v 0.075228 -0.105414 -0.008581
v 0.179707 -0.094739 -0.006528
v 0.075228 -0.097984 -0.004663
v 0.075228 -0.105414 -0.008581
v 0.240261 -0.086660 -0.010409
v 0.028877 -0.389874 0.007618
v -0.032239 -0.120914 0.007350
v 0.032241 -0.120914 0.007350
v -0.028875 -0.389874 0.007618
v 0.039128 -0.433040 0.000000
v 0.000001 -1.577368 0.007982
v 0.013061 -0.432798 0.012251
v 0.027692 -1.555124 0.000000
v 0.017998 -1.611306 0.000000
v 0.000001 -1.646888 0.000000
v -0.013058 -0.432798 0.012251
v -0.027690 -1.555124 0.000000
v -0.039125 -0.433040 0.000000
v 0.000001 -1.577368 0.007982
v -0.017996 -1.611306 0.000000
v 0.000001 -1.646888 0.000000
v -0.028875 -0.389874 -0.007618
v 0.032241 -0.120914 -0.007350
v -0.032239 -0.120914 -0.007350
v 0.028877 -0.389874 -0.007618
v 0.000001 -1.577368 -0.007982
v -0.017996 -1.611306 0.000000
v 0.000001 -1.646888 0.000000
v -0.027690 -1.555124 0.000000
v -0.039125 -0.433040 0.000000
v -0.013058 -0.432798 -0.012251
v -0.240259 -0.086660 -0.010409
v -0.179704 -0.094739 0.006528
v -0.240259 -0.086660 0.010409
v -0.179704 -0.094739 -0.006528
v -0.075226 -0.099232 -0.004663
v -0.075226 -0.097984 0.004663
v 0.240261 -0.086660 0.010409
v 0.179707 -0.094739 -0.006528
v 0.240261 -0.086660 -0.010409
v 0.179707 -0.094739 0.006528
v 0.075228 -0.097984 -0.004663
v 0.075228 -0.097984 0.004663
v 0.013061 -0.432798 -0.012251
v 0.027692 -1.555124 0.000000
v 0.039128 -0.433040 0.000000
v 0.000001 -1.577368 -0.007982
v 0.017998 -1.611306 0.000000
v 0.000001 -1.646888 0.000000
v 0.039128 -0.429185 -0.007822
v 0.015298 -0.390017 -0.012417
v 0.013061 -0.432798 -0.012251
v 0.030594 -0.389645 -0.011317
v 0.127175 -0.413801 -0.003760
v 0.127257 -0.410024 -0.004041
v -0.030592 -0.389645 0.011317
v -0.127173 -0.413801 0.003761
v -0.127255 -0.410024 0.004041
v -0.039125 -0.429185 0.007822
v -0.015295 -0.390017 0.012417
v -0.013058 -0.432798 0.012251
v 0.000001 -0.390389 0.012817
v 0.013061 -0.432798 0.012251
v 0.015298 -0.390017 0.012417
v 0.000001 -0.390389 -0.012817
v 0.013061 -0.432798 -0.012251
v 0.015298 -0.390017 -0.012417
v -0.013058 -0.432798 -0.012251
v -0.015295 -0.390017 -0.012417
v -0.030592 -0.389645 -0.011317
v -0.039125 -0.429185 -0.007822
v -0.127255 -0.410024 -0.004041
v -0.127173 -0.413801 -0.003760
v 0.039128 -0.429185 0.007822
v 0.127257 -0.410024 0.004041
v 0.127175 -0.413801 0.003761
v 0.030594 -0.389645 0.011317
v 0.013061 -0.432798 0.012251
v 0.015298 -0.390017 0.012417
v -0.240259 -0.124168 0.010409
v -0.179704 -0.116089 -0.006528
v -0.240259 -0.124168 -0.010409
v -0.179704 -0.116089 0.006528
v -0.075226 -0.112844 0.004663
v -0.075226 -0.111596 -0.004663
v 0.240261 -0.124168 -0.010409
v 0.179707 -0.116089 0.006528
v 0.240261 -0.124168 0.010409
v 0.179707 -0.116089 -0.006528
v 0.075228 -0.112844 0.004663
v 0.075228 -0.112844 -0.004663
v -0.032239 -0.120914 0.007350
v -0.028875 -0.389874 -0.007618
v -0.032239 -0.120914 -0.007350
v -0.028875 -0.389874 0.007618
v 0.028877 -0.389874 0.007618
v 0.032241 -0.120914 -0.007350
v 0.028877 -0.389874 -0.007618
v 0.032241 -0.120914 0.007350
v 0.043822 -0.120587 -0.024511
v 0.043703 -0.120587 -0.014863
v 0.053524 -0.105414 -0.018455
v 0.039128 -0.429185 0.007822
v 0.127175 -0.413801 0.003761
v 0.039128 -0.433040 0.000000
v 0.127175 -0.413801 0.003761
v 0.039128 -0.429185 -0.007822
v 0.039128 -0.433040 0.000000
v -0.127173 -0.413801 0.003761
v -0.039125 -0.429185 0.007822
v -0.039125 -0.433040 0.000000
v -0.039125 -0.433040 0.000000
v -0.039125 -0.429185 -0.007822
v -0.127173 -0.413801 -0.003760
v -0.127255 -0.410024 0.004041
v -0.127255 -0.410024 -0.004041
v -0.030592 -0.389645 -0.011317
v -0.010267 0.416836 -0.000000
v 0.005378 0.416836 0.009033
v -0.005052 0.416836 0.009033
v 0.005378 0.416836 -0.009033
v -0.005052 0.416836 -0.009033
v 0.010593 0.416836 -0.000000
v 0.005378 0.405889 0.009033
v 0.010593 0.416836 -0.000000
v 0.010593 0.405889 -0.000000
v 0.005378 0.416836 0.009033
v -0.005052 0.405889 0.009033
v -0.005052 0.416836 0.009033
v -0.010267 0.405889 -0.000000
v -0.010267 0.416836 -0.000000
v -0.005052 0.405889 -0.009033
v -0.010267 0.416836 -0.000000
v -0.010267 0.405889 -0.000000
v -0.005052 0.416836 -0.009033
v 0.005378 0.405889 -0.009033
v 0.005378 0.416836 -0.009033
v 0.010593 0.405889 -0.000000
v 0.010593 0.416836 -0.000000
v 0.012055 0.317002 -0.000000
v 0.017129 0.363271 0.029387
v 0.034096 0.363271 -0.000000
v 0.006109 0.317002 0.010299
v -0.016804 0.363271 0.029387
v -0.005783 0.317002 0.010299
v -0.033770 0.363271 -0.000000
v -0.011730 0.317002 -0.000000
v 0.017129 0.363271 0.029387
v 0.010593 0.405889 -0.000000
v 0.034096 0.363271 -0.000000
v 0.005378 0.405889 0.009033
v -0.016804 0.363271 0.029387
v -0.005052 0.405889 0.009033
v -0.033770 0.363271 -0.000000
v -0.010267 0.405889 -0.000000
v -0.071927 -0.093623 -0.017854
v -0.053522 -0.105414 -0.018455
v -0.043700 -0.090240 -0.014863
v -0.071927 -0.105414 -0.022169
v -0.071927 -0.117205 -0.017854
v -0.043700 -0.120587 -0.014863
v 0.053524 -0.105414 -0.018455
v 0.071930 -0.093623 -0.017854
v 0.043703 -0.090240 -0.014863
v 0.071930 -0.105414 -0.022169
v 0.071930 -0.117205 -0.017854
v 0.043703 -0.120587 -0.014863
v -0.071927 -0.117205 0.017854
v -0.053522 -0.105414 0.018455
v -0.043700 -0.120587 0.014863
v -0.071927 -0.105414 0.022169
v -0.071927 -0.093623 0.017854
v -0.043700 -0.090240 0.014863
v 0.053524 -0.105414 0.018455
v 0.071930 -0.117205 0.017854
v 0.043703 -0.120587 0.014863
v 0.071930 -0.105414 0.022169
v 0.071930 -0.093623 0.017854
v 0.043703 -0.090240 0.014863
v -0.043700 -0.090240 -0.014863
v -0.071927 -0.093623 0.017854
v -0.071927 -0.093623 -0.017854
v -0.043700 -0.090240 0.014863
v 0.000001 -0.082063 -0.024511
v 0.000001 -0.082063 0.024511
v 0.043703 -0.090240 0.014863
v 0.043703 -0.090240 -0.014863
v 0.071930 -0.093623 0.017854
v 0.071930 -0.093623 -0.017854
v -0.043700 -0.120587 0.014863
v -0.071927 -0.117205 -0.017854
v -0.071927 -0.117205 0.017854
v -0.043700 -0.120587 -0.014863
v 0.000001 -0.128764 0.024511
v 0.000001 -0.128764 -0.024511
v 0.043703 -0.120587 -0.014863
v 0.043703 -0.120587 0.014863
v 0.071930 -0.117205 -0.017854
v 0.071930 -0.117205 0.017854
v 0.020284 -0.376271 -0.012059
v 0.015298 -0.390017 -0.012417
v 0.030594 -0.389645 -0.011317
v 0.030594 -0.389645 0.011317
v 0.030594 -0.376020 -0.011317
v 0.030594 -0.389645 -0.011317
v 0.030594 -0.376020 0.011317
v 0.000001 -0.390389 0.012817
v -0.015295 -0.390017 -0.012417
v 0.000001 -0.390389 -0.012817
v -0.015295 -0.390017 0.012417
v 0.030594 -0.376020 0.011317
v 0.020284 -0.376271 -0.012059
v 0.030594 -0.376020 -0.011317
v 0.020284 -0.376271 0.012059
v -0.013058 -0.432798 0.012251
v 0.013061 -0.432798 0.012251
v 0.000001 -1.577368 0.007982
v 0.013061 -0.432798 -0.012251
v -0.013058 -0.432798 -0.012251
v 0.000001 -1.577368 -0.007982
v 0.030594 -0.389645 0.011317
v 0.030594 -0.389645 -0.011317
v 0.127257 -0.410024 -0.004041
v 0.127257 -0.410024 -0.004041
v 0.127257 -0.410024 0.004041
v 0.030594 -0.389645 0.011317
v -0.053522 -0.105414 -0.018455
v -0.043700 -0.120587 -0.014863
v -0.043820 -0.120587 -0.024511
v -0.053641 -0.105414 -0.028357
v -0.043820 -0.090240 -0.024511
v -0.043700 -0.090240 -0.014863
v -0.043820 -0.090240 -0.024511
v 0.000001 -0.082063 -0.024511
v -0.043700 -0.090240 -0.014863
v 0.000001 -0.128764 -0.024511
v -0.043820 -0.120587 -0.024511
v -0.043700 -0.120587 -0.014863
v -0.053641 -0.105414 0.028357
v -0.043820 -0.120587 0.024511
v -0.043700 -0.120587 0.014863
v -0.043820 -0.120587 0.024511
v 0.000001 -0.128764 0.024511
v -0.043700 -0.120587 0.014863
v 0.043703 -0.090240 -0.014863
v 0.043822 -0.090240 -0.024511
v 0.053644 -0.105414 -0.028357
v 0.000001 -0.082063 -0.024511
v 0.043822 -0.090240 -0.024511
v 0.043703 -0.090240 -0.014863
v 0.043822 -0.120587 -0.024511
v 0.000001 -0.128764 -0.024511
v 0.043703 -0.120587 -0.014863
v 0.043703 -0.120587 0.014863
v 0.043822 -0.120587 0.024511
v 0.053644 -0.105414 0.028357
v 0.000001 -0.128764 0.024511
v 0.043822 -0.120587 0.024511
v 0.043703 -0.120587 0.014863
v 0.000001 -0.390389 -0.012817
v 0.015298 -0.390017 0.012417
v 0.000001 -0.390389 0.012817
v 0.015298 -0.390017 -0.012417
v 0.127175 -0.413801 0.003761
v 0.127175 -0.413801 -0.003760
v 0.039128 -0.429185 -0.007822
v 0.039128 -0.429185 0.007822
v 0.039128 -0.433040 0.000000
v 0.013061 -0.432798 0.012251
v -0.039125 -0.429185 0.007822
v -0.013058 -0.432798 0.012251
v -0.039125 -0.433040 0.000000
v -0.127173 -0.413801 0.003761
v -0.039125 -0.433040 0.000000
v -0.127173 -0.413801 -0.003760
v -0.039125 -0.429185 -0.007822
v -0.039125 -0.433040 0.000000
v -0.013058 -0.432798 -0.012251
v 0.039128 -0.429185 -0.007822
v 0.013061 -0.432798 -0.012251
v 0.039128 -0.433040 0.000000
v -0.127255 -0.410024 -0.004041
v -0.127173 -0.413801 0.003761
v -0.127173 -0.413801 -0.003760
v -0.127255 -0.410024 0.004041
v 0.127175 -0.413801 -0.003760
v 0.127257 -0.410024 0.004041
v 0.127257 -0.410024 -0.004041
v 0.127175 -0.413801 0.003761
v 0.015298 -0.381393 0.012417
v 0.020284 -0.376271 -0.012059
v 0.020284 -0.376271 0.012059
v 0.015298 -0.381393 -0.012417
v -0.015295 -0.381393 -0.012417
v -0.020282 -0.376271 0.012059
v -0.020282 -0.376271 -0.012059
v -0.015295 -0.381393 0.012417
v 0.015298 -0.381393 0.012417
v 0.015298 -0.390017 -0.012417
v 0.015298 -0.381393 -0.012417
v 0.015298 -0.390017 0.012417
v 0.030594 -0.376020 -0.011317
v 0.020284 -0.376271 -0.012059
v 0.030594 -0.389645 -0.011317
v 0.020284 -0.376271 -0.012059
v 0.015298 -0.381393 -0.012417
v 0.015298 -0.390017 -0.012417
v 0.015298 -0.381393 0.012417
v 0.030594 -0.376020 0.011317
v 0.015298 -0.390017 0.012417
v 0.015298 -0.381393 0.012417
v 0.020284 -0.376271 0.012059
v 0.030594 -0.376020 0.011317
v 0.030594 -0.376020 0.011317
v 0.030594 -0.389645 0.011317
v 0.015298 -0.390017 0.012417
v -0.015295 -0.381393 -0.012417
v -0.015295 -0.390017 0.012417
v -0.015295 -0.381393 0.012417
v -0.015295 -0.390017 -0.012417
v -0.030592 -0.376020 0.011317
v -0.020282 -0.376271 0.012059
v -0.030592 -0.389645 0.011317
v -0.020282 -0.376271 0.012059
v -0.015295 -0.390017 0.012417
v -0.030592 -0.389645 0.011317
v -0.020282 -0.376271 0.012059
v -0.015295 -0.381393 0.012417
v -0.015295 -0.390017 0.012417
v -0.030592 -0.376020 0.011317
v -0.030592 -0.389645 -0.011317
v -0.030592 -0.376020 -0.011317
v -0.030592 -0.389645 0.011317
v -0.015295 -0.381393 -0.012417
v -0.030592 -0.376020 -0.011317
v -0.015295 -0.390017 -0.012417
v -0.015295 -0.381393 -0.012417
v -0.020282 -0.376271 -0.012059
v -0.030592 -0.376020 -0.011317
v -0.030592 -0.376020 -0.011317
v -0.030592 -0.389645 -0.011317
v -0.015295 -0.390017 -0.012417
v -0.030592 -0.376020 -0.011317
v -0.020282 -0.376271 0.012059
v -0.030592 -0.376020 0.011317
v -0.020282 -0.376271 -0.012059
v -0.043820 -0.120587 -0.024511
v -0.053641 -0.105414 -0.028357
v -0.053522 -0.105414 -0.018455
v -0.043700 -0.090240 -0.014863
v -0.053522 -0.105414 -0.018455
v -0.053641 -0.105414 -0.028357
v -0.053522 -0.105414 0.018455
v -0.043700 -0.090240 0.014863
v -0.043820 -0.090240 0.024511
v -0.043820 -0.090240 0.024511
v -0.053641 -0.105414 0.028357
v -0.053522 -0.105414 0.018455
v -0.043700 -0.120587 0.014863
v -0.053522 -0.105414 0.018455
v -0.053641 -0.105414 0.028357
v 0.000001 -0.082063 0.024511
v -0.043820 -0.090240 0.024511
v -0.043700 -0.090240 0.014863
v 0.053524 -0.105414 -0.018455
v 0.053644 -0.105414 -0.028357
v 0.043822 -0.120587 -0.024511
v 0.053644 -0.105414 -0.028357
v 0.053524 -0.105414 -0.018455
v 0.043703 -0.090240 -0.014863
v 0.053524 -0.105414 0.018455
v 0.053644 -0.105414 0.028357
v 0.043822 -0.090240 0.024511
v 0.043822 -0.090240 0.024511
v 0.043703 -0.090240 0.014863
v 0.053524 -0.105414 0.018455
v 0.053644 -0.105414 0.028357
v 0.053524 -0.105414 0.018455
v 0.043703 -0.120587 0.014863
v 0.043822 -0.090240 0.024511
v 0.000001 -0.082063 0.024511
v 0.043703 -0.090240 0.014863
v 0.043822 -0.090240 -0.024511
v 0.000001 -0.105414 -0.034787
v 0.053644 -0.105414 -0.028357
v 0.000001 -0.082063 -0.024511
v 0.043822 -0.120587 -0.024511
v -0.043820 -0.090240 -0.024511
v 0.000001 -0.128764 -0.024511
v -0.053641 -0.105414 -0.028357
v -0.043820 -0.120587 -0.024511
v 0.000001 -0.105414 0.034787
v -0.043820 -0.090240 0.024511
v 0.000001 -0.082063 0.024511
v -0.053641 -0.105414 0.028357
v 0.043822 -0.090240 0.024511
v -0.043820 -0.120587 0.024511
v 0.053644 -0.105414 0.028357
v 0.000001 -0.128764 0.024511
v 0.043822 -0.120587 0.024511
v -0.075226 -0.111596 -0.004663
v -0.071927 -0.117205 -0.017854
v -0.071927 -0.105414 -0.022169
v -0.071927 -0.117205 0.017854
v -0.075226 -0.105414 -0.008581
v -0.071927 -0.093623 -0.017854
v -0.075226 -0.099232 -0.004663
v -0.075226 -0.097984 0.004663
v -0.071927 -0.093623 0.017854
v -0.075226 -0.105414 0.008581
v -0.071927 -0.105414 0.022169
v -0.075226 -0.112844 0.004663
v 0.075228 -0.097984 -0.004663
v 0.071930 -0.093623 -0.017854
v 0.075228 -0.105414 -0.008581
v 0.075228 -0.097984 0.004663
v 0.071930 -0.105414 -0.022169
v 0.071930 -0.093623 0.017854
v 0.075228 -0.105414 0.008581
v 0.071930 -0.105414 0.022169
v 0.071930 -0.117205 0.017854
v 0.075228 -0.112844 0.004663
v 0.075228 -0.112844 -0.004663
v 0.071930 -0.117205 -0.017854
v -0.260462 -0.115046 0.006517
v -0.270142 -0.105414 -0.000000
v -0.260462 -0.105414 0.011993
v -0.260462 -0.115046 -0.006517
v -0.260462 -0.095782 0.006517
v -0.260462 -0.105414 -0.011993
v -0.260462 -0.095782 -0.006517
v 0.270144 -0.105414 0.000000
v 0.260465 -0.115046 0.006517
v 0.260465 -0.105414 0.011993
v 0.260465 -0.115046 -0.006517
v 0.260465 -0.095782 0.006517
v 0.260465 -0.105414 -0.011993
v 0.260465 -0.095782 -0.006517
v -0.247004 -0.105414 0.004723
v -0.240259 -0.086660 0.010409
v -0.240259 -0.105414 0.019155
v -0.247004 -0.101464 0.002566
v -0.240259 -0.086660 -0.010409
v -0.247004 -0.101464 -0.002566
v -0.240259 -0.105414 -0.019155
v -0.247004 -0.105414 -0.004723
v -0.240259 -0.124168 -0.010409
v -0.247004 -0.109363 -0.002566
v -0.240259 -0.124168 0.010409
v -0.247004 -0.109363 0.002566
v 0.240261 -0.105414 0.019155
v 0.247006 -0.105414 0.004723
v 0.247006 -0.109363 0.002566
v 0.240261 -0.086660 0.010409
v 0.240261 -0.124168 0.010409
v 0.247006 -0.109363 -0.002566
v 0.240261 -0.124168 -0.010409
v 0.247006 -0.105414 -0.004722
v 0.240261 -0.105414 -0.019155
v 0.247006 -0.101464 -0.002566
v 0.240261 -0.086660 -0.010409
v 0.247006 -0.101464 0.002566
v -0.260462 -0.105414 0.011993
v -0.247004 -0.109363 0.002566
v -0.260462 -0.115046 0.006517
v -0.247004 -0.105414 0.004723
v -0.260462 -0.095782 0.006517
v -0.247004 -0.101464 0.002566
v -0.260462 -0.095782 -0.006517
v -0.247004 -0.101464 -0.002566
v -0.260462 -0.105414 -0.011993
v -0.247004 -0.105414 -0.004723
v -0.260462 -0.115046 -0.006517
v -0.247004 -0.109363 -0.002566
v 0.247006 -0.105414 0.004723
v 0.260465 -0.105414 0.011993
v 0.247006 -0.109363 0.002566
v 0.260465 -0.095782 0.006517
v 0.260465 -0.115046 0.006517
v 0.247006 -0.109363 -0.002566
v 0.260465 -0.115046 -0.006517
v 0.247006 -0.105414 -0.004722
v 0.260465 -0.105414 -0.011993
v 0.247006 -0.101464 -0.002566
v 0.260465 -0.095782 -0.006517
v 0.247006 -0.101464 0.002566
vt 0.9238 -0.0186
vt 0.4775 -0.0068
vt 0.9238 -0.0039
vt 0.5879 -0.7441
vt 0.4639 -0.7061
vt 0.6357 -0.7061
vt 0.6689 -0.7441
vt 0.7998 -0.7061
vt 0.7666 -0.7441
vt 0.9707 -0.7061
vt 0.8467 -0.7441
vt 0.6699 -0.1953
vt 0.5283 -0.1953
vt 0.5879 -0.2461
vt 0.6699 -0.2461
vt 0.6699 -0.2461
vt 0.6123 -0.3330
vt 0.6709 -0.3330
vt 0.7529 -0.2461
vt 0.8125 -0.1953
vt 0.6709 -0.3330
vt 0.7285 -0.3330
vt 0.5869 -0.2461
vt 0.5283 -0.1953
vt 0.6699 -0.1953
vt 0.6699 -0.2461
vt 0.7529 -0.2461
vt 0.8125 -0.1953
vt 0.6709 -0.3330
vt 0.7285 -0.3330
vt 0.6699 -0.2461
vt 0.6709 -0.3330
vt 0.6123 -0.3330
vt 0.6357 -0.7061
vt 0.4639 -0.7061
vt 0.6152 -0.6709
vt 0.6807 -0.6709
vt 0.7998 -0.7061
vt 0.7549 -0.6709
vt 0.9707 -0.7061
vt 0.8203 -0.6709
vt 0.7529 -0.2461
vt 0.8125 -0.1953
vt 0.6699 -0.1953
vt 0.6699 -0.2461
vt 0.6709 -0.3330
vt 0.7285 -0.3330
vt 0.5879 -0.2461
vt 0.6123 -0.3330
vt 0.6709 -0.3330
vt 0.5283 -0.1953
vt 0.6699 -0.1953
vt 0.8125 -0.1953
vt 0.7539 -0.2461
vt 0.6699 -0.2461
vt 0.7285 -0.3330
vt 0.6709 -0.3330
vt 0.5879 -0.2461
vt 0.6123 -0.3330
vt 0.6709 -0.3330
vt 0.5283 -0.1953
vt 0.9424 -0.6582
vt 0.9424 -0.4805
vt 0.5859 -0.4805
vt 0.5859 -0.6582
vt 0.0146 -0.0459
vt 0.1797 -0.0449
vt 0.2559 -0.8613
vt 0.0889 -0.8457
vt 0.1484 -0.8857
vt 0.2559 -0.9111
vt 0.3311 -0.0449
vt 0.4971 -0.0459
vt 0.4229 -0.8457
vt 0.2559 -0.8613
vt 0.3633 -0.8857
vt 0.2559 -0.9111
vt 0.9424 -0.6582
vt 0.9424 -0.4805
vt 0.5859 -0.4805
vt 0.5859 -0.6582
vt 0.2559 -0.8613
vt 0.2559 -0.9111
vt 0.3633 -0.8857
vt 0.4229 -0.8457
vt 0.4971 -0.0459
vt 0.3311 -0.0449
vt 0.9238 -0.2393
vt 0.7764 -0.2393
vt 0.8037 -0.2881
vt 0.8965 -0.2881
vt 0.8828 -0.3711
vt 0.8164 -0.3711
vt 0.9238 -0.2393
vt 0.7764 -0.2393
vt 0.8037 -0.2881
vt 0.8965 -0.2881
vt 0.8164 -0.3711
vt 0.8828 -0.3711
vt 0.1797 -0.0449
vt 0.0146 -0.0459
vt 0.0889 -0.8457
vt 0.2559 -0.8613
vt 0.1484 -0.8857
vt 0.2559 -0.9111
vt 0.4834 -0.0410
vt 0.3311 -0.0449
vt 0.3418 -0.0137
vt 0.4287 -0.0127
vt 0.9893 -0.0283
vt 0.9893 -0.0264
vt 0.4287 -0.0127
vt 0.9893 -0.0264
vt 0.9893 -0.0283
vt 0.4834 -0.0410
vt 0.3418 -0.0137
vt 0.3311 -0.0449
vt 0.2559 -0.0137
vt 0.1797 -0.0449
vt 0.1699 -0.0137
vt 0.2559 -0.0137
vt 0.1699 -0.0137
vt 0.1797 -0.0449
vt 0.3311 -0.0449
vt 0.3418 -0.0137
vt 0.4287 -0.0127
vt 0.4834 -0.0410
vt 0.9893 -0.0264
vt 0.9893 -0.0283
vt 0.4834 -0.0410
vt 0.9893 -0.0283
vt 0.9893 -0.0264
vt 0.4287 -0.0127
vt 0.3311 -0.0449
vt 0.3418 -0.0137
vt 0.9238 -0.2393
vt 0.7764 -0.2393
vt 0.8037 -0.2881
vt 0.8965 -0.2881
vt 0.8828 -0.3711
vt 0.8164 -0.3711
vt 0.7764 -0.2393
vt 0.9238 -0.2393
vt 0.8965 -0.2881
vt 0.8037 -0.2881
vt 0.8828 -0.3711
vt 0.8164 -0.3711
vt 0.5859 -0.4805
vt 0.5107 -0.4805
vt 0.5107 -0.6582
vt 0.5859 -0.6582
vt 0.5107 -0.6582
vt 0.5859 -0.6582
vt 0.5859 -0.4805
vt 0.5107 -0.4805
vt 0.5830 -0.0771
vt 0.6748 -0.0625
vt 0.5615 -0.0693
vt 0.9238 -0.0186
vt 0.9238 -0.0107
vt 0.4600 -0.0127
vt 0.4600 -0.0127
vt 0.9238 -0.0107
vt 0.9238 -0.0039
vt 0.4609 -0.0078
vt 0.9238 -0.0107
vt 0.9238 -0.0039
vt 0.9238 -0.0107
vt 0.4600 -0.0127
vt 0.9238 -0.0186
vt 0.4775 -0.0068
vt 0.9238 -0.0186
vt 0.4766 -0.0127
vt 0.7861 -0.0469
vt 0.8350 -0.0586
vt 0.9307 -0.0586
vt 0.9307 -0.0352
vt 0.8350 -0.0352
vt 0.9785 -0.0469
vt 0.7549 -0.6709
vt 0.8203 -0.6709
vt 0.8057 -0.6631
vt 0.7471 -0.6631
vt 0.6807 -0.6709
vt 0.6875 -0.6631
vt 0.6152 -0.6709
vt 0.6289 -0.6631
vt 0.6807 -0.6709
vt 0.6152 -0.6709
vt 0.6289 -0.6631
vt 0.6875 -0.6631
vt 0.7549 -0.6709
vt 0.7471 -0.6631
vt 0.8203 -0.6709
vt 0.8057 -0.6631
vt 0.8467 -0.7441
vt 0.9707 -0.7061
vt 0.7998 -0.7061
vt 0.7666 -0.7441
vt 0.6357 -0.7061
vt 0.6689 -0.7441
vt 0.4639 -0.7061
vt 0.5879 -0.7441
vt 0.7998 -0.7061
vt 0.9707 -0.7061
vt 0.8203 -0.6709
vt 0.7549 -0.6709
vt 0.6357 -0.7061
vt 0.6807 -0.6709
vt 0.4639 -0.7061
vt 0.6152 -0.6709
vt 0.7490 -0.1924
vt 0.7881 -0.1680
vt 0.6748 -0.1748
vt 0.6748 -0.1924
vt 0.5996 -0.1924
vt 0.5615 -0.1680
vt 0.6748 -0.0625
vt 0.7881 -0.0693
vt 0.7500 -0.0449
vt 0.6748 -0.0449
vt 0.5996 -0.0449
vt 0.5615 -0.0693
vt 0.5996 -0.1924
vt 0.5615 -0.1680
vt 0.6748 -0.1748
vt 0.6748 -0.1924
vt 0.7490 -0.1924
vt 0.7881 -0.1680
vt 0.6748 -0.0625
vt 0.5615 -0.0693
vt 0.5996 -0.0449
vt 0.6748 -0.0449
vt 0.7500 -0.0449
vt 0.7881 -0.0693
vt 0.5342 -0.4189
vt 0.5195 -0.4385
vt 0.6904 -0.4385
vt 0.6768 -0.4189
vt 0.4873 -0.3896
vt 0.7227 -0.3896
vt 0.6768 -0.3594
vt 0.5342 -0.3594
vt 0.6904 -0.3398
vt 0.5195 -0.3398
vt 0.9268 -0.3955
vt 0.9404 -0.3779
vt 0.7764 -0.3779
vt 0.7900 -0.3955
vt 0.9707 -0.4229
vt 0.7461 -0.4229
vt 0.7900 -0.4512
vt 0.9258 -0.4512
vt 0.7764 -0.4688
vt 0.9395 -0.4688
vt 0.3662 -0.0039
vt 0.4287 -0.0127
vt 0.3418 -0.0137
vt 0.9238 -0.0039
vt 0.9238 -0.0186
vt 0.9854 -0.0186
vt 0.9854 -0.0039
vt 0.2783 -0.9639
vt 0.2783 -0.9961
vt 0.1514 -0.9961
vt 0.1514 -0.9639
vt 0.0244 -0.9658
vt 0.0244 -0.9941
vt 0.1104 -0.9951
vt 0.1104 -0.9648
vt 0.3311 -0.0449
vt 0.2559 -0.8613
vt 0.1797 -0.0449
vt 0.1797 -0.0449
vt 0.2559 -0.8613
vt 0.3311 -0.0449
vt 0.9238 -0.0039
vt 0.4766 -0.0127
vt 0.9238 -0.0186
vt 0.4766 -0.0127
vt 0.9238 -0.0039
vt 0.4775 -0.0068
vt 0.6748 -0.1748
vt 0.5830 -0.1602
vt 0.5615 -0.1680
vt 0.6748 -0.1670
vt 0.7881 -0.1680
vt 0.7666 -0.1602
vt 0.4873 -0.4189
vt 0.5342 -0.4189
vt 0.4873 -0.3896
vt 0.7461 -0.4229
vt 0.7900 -0.3955
vt 0.7461 -0.3955
vt 0.6748 -0.1670
vt 0.5615 -0.1680
vt 0.5830 -0.1602
vt 0.9707 -0.3955
vt 0.9268 -0.3955
vt 0.9707 -0.4229
vt 0.7881 -0.0693
vt 0.6748 -0.0703
vt 0.7666 -0.0771
vt 0.4873 -0.3896
vt 0.5342 -0.3594
vt 0.4873 -0.3594
vt 0.7461 -0.4512
vt 0.7900 -0.4512
vt 0.7461 -0.4229
vt 0.5615 -0.0693
vt 0.6748 -0.0703
vt 0.5830 -0.0771
vt 0.9707 -0.4229
vt 0.9258 -0.4512
vt 0.9707 -0.4512
vt 0.2783 -0.9961
vt 0.2783 -0.9639
vt 0.1514 -0.9639
vt 0.1514 -0.9961
vt 0.4600 -0.0127
vt 0.9238 -0.0039
vt 0.4609 -0.0078
vt 0.0273 -0.0410
vt 0.1797 -0.0449
vt 0.0146 -0.0459
vt 0.4834 -0.0410
vt 0.4971 -0.0459
vt 0.3311 -0.0449
vt 0.4609 -0.0078
vt 0.4600 -0.0127
vt 0.9238 -0.0107
vt 0.4834 -0.0410
vt 0.3311 -0.0449
vt 0.4971 -0.0459
vt 0.0273 -0.0410
vt 0.0146 -0.0459
vt 0.1797 -0.0449
vt 0.4766 -0.0127
vt 0.4600 -0.0127
vt 0.4609 -0.0078
vt 0.4775 -0.0068
vt 0.4600 -0.0127
vt 0.4766 -0.0127
vt 0.4775 -0.0068
vt 0.4609 -0.0078
vt 0.1514 -0.9639
vt 0.1104 -0.9648
vt 0.1104 -0.9951
vt 0.1514 -0.9961
vt 0.1514 -0.9961
vt 0.1104 -0.9951
vt 0.1104 -0.9648
vt 0.1514 -0.9639
vt 0.1514 -0.9639
vt 0.1514 -0.9961
vt 0.1514 -0.9961
vt 0.1514 -0.9639
vt 0.4258 -0.0029
vt 0.4287 -0.0127
vt 0.3662 -0.0039
vt 0.3662 -0.0039
vt 0.3418 -0.0137
vt 0.3389 -0.0078
vt 0.3389 -0.0078
vt 0.3418 -0.0137
vt 0.4258 -0.0029
vt 0.3389 -0.0078
vt 0.4258 -0.0029
vt 0.3662 -0.0039
vt 0.4258 -0.0029
vt 0.3418 -0.0137
vt 0.4287 -0.0127
vt 0.1514 -0.9961
vt 0.1514 -0.9639
vt 0.1514 -0.9639
vt 0.1514 -0.9961
vt 0.4258 -0.0029
vt 0.4287 -0.0127
vt 0.3662 -0.0039
vt 0.3662 -0.0039
vt 0.4287 -0.0127
vt 0.3418 -0.0137
vt 0.3662 -0.0039
vt 0.3418 -0.0137
vt 0.3389 -0.0078
vt 0.9854 -0.0039
vt 0.9854 -0.0186
vt 0.9238 -0.0186
vt 0.9238 -0.0039
vt 0.3389 -0.0078
vt 0.3418 -0.0137
vt 0.4258 -0.0029
vt 0.3389 -0.0078
vt 0.4258 -0.0029
vt 0.3662 -0.0039
vt 0.4258 -0.0029
vt 0.3418 -0.0137
vt 0.4287 -0.0127
vt 0.0244 -0.9941
vt 0.0244 -0.9658
vt 0.1104 -0.9648
vt 0.1104 -0.9951
vt 0.5830 -0.1602
vt 0.6748 -0.1748
vt 0.6748 -0.1670
vt 0.7881 -0.1680
vt 0.6748 -0.1670
vt 0.6748 -0.1748
vt 0.6748 -0.1748
vt 0.7666 -0.1602
vt 0.7881 -0.1680
vt 0.7666 -0.1602
vt 0.6748 -0.1748
vt 0.6748 -0.1670
vt 0.5615 -0.1680
vt 0.6748 -0.1670
vt 0.6748 -0.1748
vt 0.7227 -0.3896
vt 0.6768 -0.4189
vt 0.7227 -0.4189
vt 0.6748 -0.0625
vt 0.5830 -0.0771
vt 0.6748 -0.0703
vt 0.6748 -0.0703
vt 0.7881 -0.0693
vt 0.6748 -0.0625
vt 0.6748 -0.0625
vt 0.7666 -0.0771
vt 0.6748 -0.0703
vt 0.7666 -0.0771
vt 0.6748 -0.0625
vt 0.7881 -0.0693
vt 0.6748 -0.0703
vt 0.5615 -0.0693
vt 0.6748 -0.0625
vt 0.7227 -0.3594
vt 0.6768 -0.3594
vt 0.7227 -0.3896
vt 0.7666 -0.0771
vt 0.6748 -0.0703
vt 0.6748 -0.1191
vt 0.8301 -0.1191
vt 0.5830 -0.0771
vt 0.7666 -0.1602
vt 0.5186 -0.1191
vt 0.6748 -0.1670
vt 0.5830 -0.1602
vt 0.6748 -0.1191
vt 0.8301 -0.1191
vt 0.7666 -0.1602
vt 0.6748 -0.1670
vt 0.7666 -0.0771
vt 0.5830 -0.1602
vt 0.6748 -0.0703
vt 0.5186 -0.1191
vt 0.5830 -0.0771
vt 0.6436 -0.4707
vt 0.7422 -0.4639
vt 0.7178 -0.4746
vt 0.5176 -0.4746
vt 0.6660 -0.4639
vt 0.7178 -0.4531
vt 0.6436 -0.4561
vt 0.5918 -0.4561
vt 0.5176 -0.4531
vt 0.5693 -0.4639
vt 0.4941 -0.4639
vt 0.5918 -0.4707
vt 0.6436 -0.4561
vt 0.6660 -0.4639
vt 0.7178 -0.4531
vt 0.5918 -0.4561
vt 0.7422 -0.4639
vt 0.5176 -0.4531
vt 0.5693 -0.4639
vt 0.4941 -0.4639
vt 0.5176 -0.4746
vt 0.5918 -0.4707
vt 0.6436 -0.4707
vt 0.7178 -0.4746
vt 0.5078 -0.9756
vt 0.5625 -0.9619
vt 0.4424 -0.9619
vt 0.3770 -0.9756
vt 0.5078 -0.9482
vt 0.3223 -0.9619
vt 0.3770 -0.9482
vt 0.4424 -0.9619
vt 0.5625 -0.9619
vt 0.5078 -0.9756
vt 0.3770 -0.9756
vt 0.5078 -0.9482
vt 0.3223 -0.9619
vt 0.3770 -0.9482
vt 0.1455 -0.9404
vt 0.0166 -0.9404
vt 0.0947 -0.9189
vt 0.1650 -0.9355
vt 0.2812 -0.9189
vt 0.2109 -0.9355
vt 0.3594 -0.9404
vt 0.2305 -0.9404
vt 0.2812 -0.9609
vt 0.2109 -0.9443
vt 0.0947 -0.9609
vt 0.1650 -0.9443
vt 0.0166 -0.9404
vt 0.1650 -0.9443
vt 0.1455 -0.9404
vt 0.0947 -0.9189
vt 0.0947 -0.9609
vt 0.2109 -0.9443
vt 0.2812 -0.9609
vt 0.2305 -0.9404
vt 0.3594 -0.9404
vt 0.2109 -0.9355
vt 0.2812 -0.9189
vt 0.1650 -0.9355
vt 0.5762 -0.9180
vt 0.5127 -0.9326
vt 0.4668 -0.9238
vt 0.4912 -0.9180
vt 0.5127 -0.9033
vt 0.4668 -0.9121
vt 0.3613 -0.9033
vt 0.4072 -0.9121
vt 0.2979 -0.9180
vt 0.3818 -0.9180
vt 0.3613 -0.9326
vt 0.4072 -0.9238
vt 0.4912 -0.9180
vt 0.4668 -0.9238
vt 0.5762 -0.9180
vt 0.5127 -0.9033
vt 0.5127 -0.9326
vt 0.4072 -0.9238
vt 0.3613 -0.9326
vt 0.3818 -0.9180
vt 0.2979 -0.9180
vt 0.4072 -0.9121
vt 0.3613 -0.9033
vt 0.4668 -0.9121
vn 0.8691 0.0829 0.4877
vn -0.5180 -0.2096 0.8293
vn -0.6989 -0.2477 -0.6709
vn 0.1878 0.8758 -0.4446
vn 0.2586 -0.6631 0.7024
vn 0.6049 0.7064 -0.3676
vn 0.6274 0.7240 -0.2867
vn -0.6136 0.7036 -0.3584
vn -0.6353 0.7207 -0.2775
vn -0.2623 -0.6529 0.7106
vn -0.2012 0.8737 -0.4430
vn -0.5306 -0.6739 -0.5142
vn -0.3943 -0.7425 0.5414
vn 0.3082 0.9371 -0.1640
vn -0.6913 0.6532 -0.3089
vn -0.6331 0.4305 -0.6433
vn -0.4070 -0.6389 0.6528
vn 0.3641 0.9204 -0.1423
vn -0.4111 -0.6371 0.6520
vn 0.8762 0.1011 0.4713
vn -0.3835 0.7487 0.5407
vn -0.4018 0.6467 0.6483
vn 0.3539 -0.9229 -0.1513
vn -0.3034 0.9376 -0.1697
vn 0.3880 -0.7472 0.5396
vn 0.5361 -0.6684 -0.5156
vn 0.6859 0.6590 -0.3087
vn -0.8795 0.0982 0.4656
vn 0.3773 0.7532 0.5388
vn 0.3971 0.6514 0.6465
vn -0.3494 -0.9238 -0.1564
vn 0.4015 -0.6434 0.6519
vn 0.6283 0.4379 -0.6431
vn 0.4070 -0.6442 0.6476
vn -0.3592 0.9212 -0.1495
vn 0.6090 -0.6456 -0.4607
vn 0.3000 0.6380 0.7092
vn 0.1367 -0.8789 -0.4570
vn 0.6367 -0.6770 -0.3691
vn -0.6189 -0.6467 -0.4458
vn -0.6441 -0.6754 -0.3591
vn -0.3026 0.6275 0.7174
vn -0.1503 -0.8772 -0.4560
vn -0.8819 0.0684 -0.4665
vn 0.3719 0.7471 -0.5509
vn 0.5411 -0.6713 0.5065
vn 0.6271 -0.6975 0.3467
vn 0.3485 0.5976 -0.7221
vn -0.2824 -0.9373 0.2042
vn -0.8783 -0.0791 -0.4714
vn -0.2961 0.9385 0.1776
vn 0.3530 -0.5687 -0.7430
vn 0.3827 -0.7412 -0.5516
vn -0.5356 -0.6768 0.5051
vn -0.3781 0.7425 -0.5529
vn 0.8746 0.0911 -0.4762
vn -0.6319 -0.7108 0.3091
vn 0.3468 -0.9277 0.1383
vn -0.3944 0.6379 -0.6614
vn 0.8694 -0.0984 -0.4842
vn 0.3566 0.9250 0.1314
vn -0.4043 -0.6307 -0.6624
vn -0.3889 -0.7364 -0.5536
vn -0.6982 0.7159 -0.0014
vn 0.6982 -0.7159 -0.0000
vn -0.7159 0.6982 -0.0014
vn 0.7158 -0.6983 -0.0000
vn 0.6905 0.5112 -0.5118
vn -0.8401 -0.5079 0.1902
vn 0.5093 -0.7802 -0.3630
vn 0.3422 -0.9051 -0.2523
vn 0.0179 -0.9762 -0.2160
vn -0.2588 0.9572 0.1293
vn 0.8446 -0.5003 0.1904
vn -0.6907 0.5014 -0.5210
vn -0.3325 -0.9096 -0.2491
vn -0.5044 -0.7876 -0.3538
vn -0.0091 -0.9774 -0.2111
vn 0.2492 0.9597 0.1301
vn 0.7159 -0.6981 -0.0111
vn -0.7159 0.6982 -0.0098
vn 0.6982 -0.7158 -0.0112
vn -0.6982 0.7159 -0.0097
vn -0.5101 -0.7870 0.3471
vn 0.2493 0.9578 -0.1433
vn -0.0154 -0.9797 0.1998
vn -0.3411 -0.9100 0.2357
vn -0.7021 0.5080 0.4990
vn 0.8379 -0.5049 -0.2074
vn -0.7924 0.0353 0.6090
vn 0.6912 -0.1627 -0.7041
vn -0.6149 0.0949 0.7829
vn -0.7356 0.0818 0.6725
vn -0.6815 0.0231 -0.7315
vn 0.7111 0.1563 0.6855
vn -0.6976 -0.1625 -0.6978
vn 0.7977 0.0370 0.6020
vn 0.6065 0.0807 -0.7910
vn 0.7260 0.0927 -0.6815
vn -0.7189 -0.0331 -0.6943
vn 0.6943 0.0108 0.7196
vn -0.8355 -0.5139 -0.1946
vn 0.6881 0.5150 0.5111
vn 0.3478 -0.9053 0.2439
vn 0.5186 -0.7810 0.3480
vn 0.0241 -0.9785 0.2047
vn -0.2589 0.9554 -0.1423
vn -0.8679 0.4689 -0.1642
vn 0.6314 0.7497 0.1980
vn -0.7351 -0.6743 -0.0697
vn -0.5405 0.8308 -0.1327
vn -0.5725 -0.8199 0.0007
vn 0.8381 0.5452 -0.0187
vn 0.5331 0.8372 0.1218
vn -0.8427 0.5383 0.0069
vn 0.5809 -0.8139 -0.0108
vn 0.8646 0.4783 0.1539
vn 0.7230 0.6908 0.0121
vn 0.7831 0.6177 -0.0721
vn 0.7068 0.7070 -0.0229
vn -0.7512 -0.6600 -0.0077
vn 0.7372 0.6750 -0.0303
vn 0.7071 0.7071 0.0118
vn 0.7374 0.6752 0.0187
vn -0.7510 -0.6602 -0.0038
vn 0.7830 0.6206 0.0416
vn 0.7239 0.6898 0.0076
vn 0.5371 0.8400 -0.0764
vn 0.8579 0.4735 -0.1997
vn -0.8426 0.5382 -0.0189
vn 0.5791 -0.8153 -0.0009
vn -0.8633 0.4685 0.1876
vn -0.5743 -0.8186 -0.0124
vn 0.8382 0.5453 0.0069
vn -0.5444 0.8364 0.0641
vn 0.6375 0.7498 -0.1773
vn -0.7395 -0.6732 0.0035
vn 0.6899 0.1744 -0.7026
vn -0.7940 -0.0236 0.6075
vn -0.7345 -0.0890 0.6728
vn -0.6173 -0.0679 0.7838
vn 0.7125 -0.0924 0.6955
vn -0.6830 0.0052 -0.7304
vn 0.7992 -0.0252 0.6005
vn -0.6962 0.1743 -0.6964
vn 0.7268 -0.0789 -0.6823
vn 0.6068 -0.0710 -0.7916
vn 0.6948 0.0004 0.7192
vn -0.7185 0.0443 -0.6941
vn 0.0000 -0.7065 0.7078
vn -0.0177 0.7076 -0.7064
vn 0.0000 -0.7078 0.7064
vn -0.0177 0.7062 -0.7078
vn 0.0065 0.7063 -0.7078
vn -0.0112 -0.7077 0.7064
vn 0.0066 0.7078 -0.7064
vn -0.0111 -0.7062 0.7079
vn -0.4509 -0.8847 0.1182
vn 0.2469 0.2142 0.9451
vn 0.5230 0.6132 -0.5920
vn 0.7410 -0.3955 -0.5427
vn -0.7161 -0.0737 0.6941
vn 0.5961 0.2234 0.7712
vn 0.4554 0.1957 0.8685
vn 0.5597 0.7828 -0.2720
vn -0.8020 0.0285 0.5966
vn -0.5893 0.2205 0.7773
vn 0.7197 -0.0813 0.6895
vn -0.7467 -0.3952 -0.5351
vn -0.5426 0.7662 -0.3443
vn -0.5836 0.2193 0.7819
vn 0.7521 0.0162 0.6589
vn 0.8691 0.0829 0.4876
vn -0.3932 -0.1833 0.9010
vn -0.7873 -0.2664 -0.5560
vn -0.7071 0.0111 0.7070
vn 0.9659 0.0111 0.2588
vn -0.2588 0.0111 -0.9659
vn -0.2589 0.0111 -0.9659
vn -0.7071 0.0111 0.7071
vn -0.6297 0.6467 -0.4304
vn -0.0557 -0.6179 0.7843
vn 0.6514 0.6179 -0.4404
vn -0.6296 0.6468 -0.4305
vn 0.6262 0.6502 -0.4302
vn 0.6264 0.6501 -0.4301
vn 0.0474 -0.6124 0.7891
vn -0.6597 0.6124 -0.4356
vn 0.6286 0.6547 0.4198
vn 0.6598 0.6124 -0.4356
vn -0.0473 -0.6123 0.7892
vn 0.6287 0.6547 0.4198
vn -0.6321 0.6511 0.4202
vn -0.6322 0.6510 0.4201
vn -0.6680 0.6068 -0.4308
vn 0.0391 -0.6068 0.7939
vn -0.0675 -0.8514 0.5202
vn 0.8858 0.4615 -0.0478
vn -0.6088 0.7139 0.3461
vn -0.6301 0.7299 0.2649
vn 0.6000 0.7169 0.3551
vn 0.6221 0.7335 0.2740
vn -0.8908 0.4527 -0.0388
vn 0.0540 -0.8513 0.5219
vn -0.6136 -0.6591 0.4349
vn 0.8971 -0.4412 -0.0249
vn -0.1161 0.8719 0.4757
vn -0.6382 -0.6867 0.3481
vn 0.6053 -0.6602 0.4446
vn 0.6307 -0.6885 0.3580
vn -0.9015 -0.4324 -0.0154
vn 0.1025 0.8730 0.4768
vn 0.7264 -0.6271 -0.2813
vn -0.2514 0.9665 0.0528
vn 0.6166 -0.7293 0.2965
vn 0.4522 -0.6446 0.6164
vn 0.7198 0.6344 -0.2818
vn -0.2419 -0.9687 0.0555
vn -0.6104 -0.7351 0.2950
vn 0.2593 0.9645 0.0496
vn -0.7319 -0.6205 -0.2816
vn -0.4473 -0.6501 0.6142
vn -0.7253 0.6279 -0.2821
vn 0.2499 -0.9669 0.0523
vn 0.7224 0.6367 0.2697
vn -0.2458 -0.9669 -0.0682
vn 0.6129 -0.7280 -0.3072
vn 0.4458 -0.6415 -0.6243
vn 0.7291 -0.6292 0.2693
vn -0.2551 0.9647 -0.0653
vn -0.6067 -0.7338 -0.3058
vn 0.2537 -0.9651 -0.0651
vn -0.7281 0.6301 0.2699
vn -0.4409 -0.6469 -0.6222
vn -0.7346 -0.6227 0.2694
vn 0.2631 0.9628 -0.0622
vn 0.5568 0.0534 -0.8289
vn -0.6648 -0.1412 -0.7335
vn 0.8162 0.0363 0.5767
vn 0.7207 0.0796 -0.6887
vn 0.6872 -0.2356 -0.6872
vn 0.6894 -0.2224 -0.6894
vn -0.7270 0.0792 -0.6821
vn -0.5643 0.0533 -0.8239
vn -0.8112 0.0347 0.5837
vn 0.6582 -0.1414 -0.7394
vn 0.7213 -0.0667 -0.6894
vn 0.8175 -0.0246 0.5754
vn -0.6636 0.1529 -0.7323
vn 0.5571 -0.0420 -0.8294
vn 0.6854 0.2457 -0.6854
vn 0.6877 0.2328 -0.6877
vn -0.5646 -0.0420 -0.8243
vn -0.7276 -0.0665 -0.6828
vn 0.6571 0.1530 -0.7382
vn -0.8126 -0.0231 0.5824
vn -0.8749 0.4836 -0.0250
vn -0.1340 -0.9906 0.0283
vn 0.9025 0.4182 0.1028
vn -0.0111 0.7071 -0.7070
vn -0.0111 -0.7070 0.7071
vn -0.0111 -0.7071 0.7070
vn -0.6875 0.0451 -0.7248
vn 0.7257 0.0107 0.6879
vn -0.7243 0.0460 -0.6879
vn 0.6889 0.0116 0.7248
vn -0.7556 -0.0244 -0.6546
vn 0.6545 0.0099 0.7560
vn -0.6541 -0.0220 -0.7560
vn 0.7558 0.0124 0.6546
vn -0.7151 0.6990 0.0052
vn 0.7071 0.7071 0.0053
vn 0.6990 -0.7151 -0.0000
vn 0.6989 -0.7151 -0.0111
vn 0.7070 0.7070 -0.0164
vn -0.7151 0.6989 -0.0164
vn 0.6364 -0.2363 -0.7343
vn 0.6477 -0.2387 0.7236
vn -0.8229 0.0714 0.5637
vn 0.7442 -0.2590 0.6157
vn -0.7335 0.0525 0.6777
vn -0.2534 0.2018 0.9461
vn 0.4403 -0.8909 0.1113
vn -0.5349 0.6092 -0.5855
vn -0.6173 -0.7409 0.2645
vn -0.3595 -0.3187 -0.8771
vn 0.3299 0.7231 0.6069
vn -0.7517 -0.2309 -0.6178
vn 0.8960 0.0742 0.4377
vn -0.4242 -0.1732 0.8889
vn -0.4200 0.1847 0.8885
vn 0.8980 -0.0623 0.4356
vn -0.7496 0.2427 -0.6158
vn -0.6082 0.7424 -0.2809
vn -0.3607 0.3361 0.8700
vn 0.3428 -0.7279 -0.5939
vn 0.7719 -0.0377 0.6346
vn -0.5836 0.2185 -0.7821
vn -0.7425 0.2449 0.6235
vn 0.3464 -0.3207 -0.8816
vn 0.6088 -0.7501 0.2582
vn -0.3386 0.7139 0.6130
vn 0.4319 -0.1763 0.8845
vn -0.8922 0.0718 0.4460
vn 0.7455 -0.2313 -0.6250
vn 0.7435 0.2430 -0.6230
vn -0.8941 -0.0601 0.4438
vn 0.4277 0.1876 0.8842
vn 0.3477 0.3381 0.8745
vn 0.5999 0.7516 -0.2744
vn -0.3513 -0.7188 -0.6000
vn 0.7478 0.2473 0.6162
vn 0.5760 0.2185 -0.7877
vn -0.7662 -0.0352 0.6416
vn -0.6880 -0.0228 -0.7253
vn 0.7253 0.0116 0.6884
vn -0.7249 -0.0237 -0.6884
vn 0.6883 0.0107 0.7253
vn -0.8508 -0.0562 0.5226
vn 0.4607 0.1729 0.8705
vn 0.7736 0.2276 -0.5914
vn -0.3314 0.1689 0.9282
vn 1.0000 0.0048 -0.0055
vn 0.1199 -0.5839 -0.8029
vn 0.3365 0.1613 0.9278
vn -0.1279 -0.5868 -0.7996
vn -1.0000 0.0029 0.0034
vn 0.8107 -0.0588 0.5826
vn -0.7111 0.2738 -0.6476
vn -0.5767 0.2444 0.7796
vn 0.3458 0.1525 -0.9258
vn -0.9999 0.0035 -0.0165
vn -0.1405 -0.5882 0.7965
vn -0.3407 0.1602 -0.9264
vn 0.1323 -0.5854 0.7999
vn 1.0000 0.0053 -0.0074
vn -0.0296 0.6524 -0.7573
vn -0.0012 -0.6530 0.7573
vn -0.0319 0.7570 -0.6526
vn 0.0011 -0.7577 0.6526
vn -0.0100 -0.6526 0.7576
vn 0.0184 0.6525 -0.7576
vn -0.0123 -0.7574 0.6528
vn 0.0207 0.7572 -0.6528
vn 0.6441 0.6836 0.3433
vn -0.6660 -0.6622 -0.3432
vn 0.6169 0.6556 0.4354
vn -0.6388 -0.6343 -0.4355
vn 0.6285 -0.6387 -0.4439
vn -0.6216 0.6454 0.4439
vn 0.6564 -0.6673 -0.3520
vn -0.6494 0.6740 0.3520
vn -0.0000 -0.7071 0.7071
vn -0.0000 0.7071 -0.7072
vn 0.0000 0.7071 -0.7071
vn 0.7054 0.7033 0.0886
vn -0.9873 0.1557 -0.0331
vn -0.1341 -0.9906 0.0283
vn 0.3537 0.9332 0.0634
vn -0.3977 0.9175 0.0093
vn -0.0195 -0.9991 0.0365
vn -0.4618 -0.8868 -0.0162
vn 0.0714 0.9960 -0.0546
vn 0.9587 0.2585 -0.1184
vn 0.9422 0.3138 -0.1172
vn 0.8919 -0.4378 -0.1136
vn -0.9997 -0.0068 0.0225
vn 0.9914 -0.0509 -0.1207
vn -0.7118 -0.7024 0.0018
vn -0.0111 0.7070 -0.7071
vn -0.7105 0.6965 -0.1001
vn 0.9862 0.1644 0.0219
vn 0.1436 -0.9889 -0.0387
vn 0.8709 0.4913 0.0136
vn -0.9050 0.4099 -0.1141
vn -0.3611 0.9295 -0.0750
vn 0.3902 0.9205 -0.0209
vn 0.0293 -0.9985 -0.0469
vn 0.4681 -0.8837 0.0038
vn -0.0800 0.9959 0.0432
vn -0.9621 0.2511 0.1067
vn -0.9460 0.3065 0.1055
vn -0.8897 -0.4450 0.1015
vn 0.9994 0.0010 -0.0344
vn -0.0799 0.9959 0.0432
vn -0.9923 -0.0587 0.1088
vn 0.7167 -0.6973 -0.0141
vn -0.7550 0.0467 -0.6541
vn 0.6551 0.0124 0.7554
vn -0.6537 0.0442 -0.7555
vn 0.7564 0.0099 0.6541
vn -0.2603 0.2125 0.9418
vn 0.4405 -0.8908 0.1115
vn -0.5302 0.6027 -0.5964
vn -0.6153 -0.7379 0.2773
vn -0.3591 -0.3188 -0.8772
vn 0.3344 0.7298 0.5963
vn -0.2605 -0.2024 -0.9440
vn 0.4350 0.8929 -0.1160
vn -0.5378 -0.6033 0.5888
vn -0.2673 -0.2130 -0.9398
vn 0.4351 0.8928 -0.1162
vn -0.5331 -0.5967 0.5998
vn -0.6061 0.7392 -0.2937
vn -0.3604 0.3361 0.8702
vn 0.3470 -0.7345 -0.5832
vn -0.7466 -0.2336 0.6229
vn -0.5852 -0.2067 -0.7841
vn 0.7696 0.0494 0.6366
vn -0.4511 -0.8846 0.1183
vn 0.2538 0.2249 0.9408
vn 0.5183 0.6065 -0.6029
vn 0.3461 -0.3208 -0.8817
vn 0.6069 -0.7471 0.2711
vn -0.3430 0.7207 0.6024
vn -0.4456 0.8868 -0.1229
vn 0.2609 -0.2251 -0.9387
vn 0.5215 -0.6006 0.6061
vn -0.4455 0.8869 -0.1227
vn 0.2541 -0.2145 -0.9431
vn 0.5262 -0.6073 0.5952
vn 0.3473 0.3381 0.8747
vn 0.5978 0.7484 -0.2874
vn -0.3556 -0.7254 -0.5894
vn -0.7638 0.0469 0.6437
vn 0.5777 -0.2068 -0.7897
vn 0.7519 -0.2360 0.6156
vn -0.7846 0.6197 -0.0170
vn 0.5684 -0.6759 0.4691
vn -0.3932 -0.8095 0.4360
vn 0.8527 -0.3568 -0.3816
vn -0.7789 -0.6271 -0.0102
vn 0.7881 0.6151 -0.0229
vn 0.8586 0.3500 -0.3746
vn -0.5630 -0.6814 0.4677
vn 0.7825 -0.6225 -0.0161
vn -0.3911 0.8056 -0.4451
vn 0.8526 -0.3669 0.3720
vn 0.7938 0.6081 0.0117
vn -0.5582 -0.6788 -0.4771
vn -0.7903 0.6127 0.0059
vn 0.7882 -0.6154 0.0048
vn 0.5637 -0.6734 -0.4784
vn 0.8585 0.3601 0.3650
vn -0.7845 -0.6201 -0.0010
vn -0.3755 0.9244 0.0676
vn -0.1743 -0.7881 0.5904
vn -0.2712 0.8908 0.3645
vn -0.3344 0.8631 -0.3785
vn -0.0943 -0.7879 0.6086
vn -0.3220 -0.8742 0.3634
vn -0.3363 -0.9359 0.1047
vn -0.3628 -0.9255 0.1084
vn -0.3352 -0.8588 -0.3874
vn -0.1062 -0.7937 -0.5990
vn -0.1666 -0.7948 -0.5836
vn -0.4564 0.8713 0.1803
vn 0.3662 -0.9305 -0.0063
vn 0.1072 -0.7869 0.6078
vn 0.3168 -0.8718 0.3737
vn 0.3863 -0.9224 0.0002
vn 0.1624 -0.7872 0.5950
vn 0.3122 -0.8691 -0.3837
vn 0.0934 -0.7920 -0.6033
vn 0.1544 -0.7935 -0.5886
vn 0.3158 0.8722 -0.3736
vn 0.3616 0.9323 0.0098
vn 0.3335 0.9426 -0.0152
vn 0.2762 0.8858 0.3730
vn -0.5402 0.8410 0.0286
vn 0.0368 -0.8636 -0.5029
vn 0.9329 0.0682 -0.3536
vn -0.5378 0.8421 -0.0402
vn -0.5520 -0.8336 0.0177
vn 0.0246 -0.8622 0.5060
vn -0.5495 -0.8350 -0.0293
vn -0.9359 0.0667 -0.3460
vn -0.0408 -0.8571 -0.5135
vn 0.5237 0.8517 0.0159
vn 0.5216 0.8527 -0.0275
vn 0.5356 -0.8445 0.0052
vn -0.0287 -0.8558 0.5166
vn 0.5335 -0.8456 -0.0169
vn -0.0525 -0.8573 -0.5121
vn -0.1555 -0.8680 -0.4716
vn -0.4542 -0.8684 -0.1988
vn -0.3894 -0.9052 -0.1702
vn -0.4481 -0.8733 0.1909
vn -0.3978 -0.9037 0.1582
vn -0.1640 -0.8628 0.4782
vn -0.0620 -0.8524 0.5191
vn -0.4493 0.8753 0.1788
vn -0.3840 0.9111 0.1497
vn -0.4464 0.8745 -0.1897
vn -0.3959 0.9047 -0.1573
vn 0.1442 -0.8647 -0.4811
vn 0.3797 0.9107 -0.1628
vn 0.0432 -0.8531 -0.5199
vn 0.4394 -0.8748 -0.2043
vn 0.4313 0.8808 -0.1952
vn 0.3679 0.9168 0.1551
vn 0.4344 0.8816 0.1843
vn 0.0528 -0.8483 0.5268
vn 0.1528 -0.8596 0.4876
vn 0.3819 -0.9096 0.1636
vn 0.4335 -0.8796 0.1962
vn 0.3732 -0.9110 -0.1755
vn 0.0733 -0.7263 -0.6835
vn 0.6178 0.7860 0.0249
vn 0.5474 0.8369 -0.0077
vn 0.0373 -0.6953 -0.7177
vn 0.6343 -0.7728 0.0228
vn 0.5538 -0.8325 -0.0177
vn 0.6294 -0.7764 -0.0342
vn 0.5597 -0.8287 -0.0011
vn 0.0839 -0.7294 0.6789
vn 0.0476 -0.6985 0.7141
vn 0.6200 0.7835 -0.0409
vn 0.5396 0.8419 0.0010
vn -0.0339 -0.7021 -0.7113
vn -0.5520 0.8338 0.0038
vn -0.0696 -0.7331 -0.6766
vn -0.6387 -0.7687 0.0344
vn -0.6221 0.7821 0.0366
vn -0.5439 0.8391 -0.0106
vn -0.6240 0.7797 -0.0527
vn -0.0442 -0.7052 0.7076
vn -0.0802 -0.7362 0.6720
vn -0.5642 -0.8255 -0.0126
vn -0.6336 -0.7723 -0.0458
vn -0.5585 -0.8295 -0.0064
usemtl AM_A_1000_0
s 1
f 1/1/1 3/2/2 2/3/3
f 4/4/4 6/5/5 5/6/6
f 5/6/6 7/7/7 4/4/4
f 7/7/7 5/6/6 8/8/8
f 8/8/8 9/9/9 7/7/7
f 9/9/9 8/8/8 10/10/10
f 10/10/10 11/11/11 9/9/9
f 12/12/12 14/13/13 13/14/14
f 13/14/14 15/15/15 12/12/12
f 16/16/16 13/14/17 17/17/18
f 17/17/18 18/18/19 16/16/16
f 12/12/12 15/15/15 19/19/20
f 19/19/20 20/20/21 12/12/12
f 19/19/20 15/15/15 21/21/22
f 21/21/22 22/22/23 19/19/20
f 23/23/24 25/24/25 24/25/26
f 24/25/26 26/26/27 23/23/24
f 27/27/28 26/26/27 24/25/26
f 24/25/26 28/28/29 27/27/28
f 29/29/30 26/26/27 27/27/28
f 27/27/28 30/30/31 29/29/30
f 23/23/32 32/31/33 31/32/34
f 31/32/34 33/33/35 23/23/32
f 34/34/36 36/35/37 35/36/38
f 35/36/38 37/37/39 34/34/36
f 38/38/40 34/34/36 37/37/39
f 37/37/39 39/39/41 38/38/40
f 40/40/42 38/38/40 39/39/41
f 39/39/41 41/41/43 40/40/42
f 42/42/44 44/43/45 43/44/46
f 43/44/46 45/45/47 42/42/44
f 46/46/48 42/42/44 45/45/47
f 47/47/49 42/42/44 46/46/48
f 45/45/47 43/44/46 48/48/50
f 48/48/50 49/49/51 45/45/47
f 50/50/52 45/45/47 49/49/51
f 51/51/53 48/48/50 43/44/46
f 52/52/54 54/53/55 53/54/56
f 53/54/56 55/55/57 52/52/54
f 55/55/57 53/54/56 56/56/58
f 56/56/58 57/57/59 55/55/57
f 58/58/60 52/52/54 55/55/57
f 55/55/57 59/59/61 58/58/60
f 59/59/61 55/55/57 60/60/62
f 52/52/54 58/58/60 61/61/63
f 62/62/64 64/63/65 63/64/66
f 63/64/66 65/65/67 62/62/64
f 66/66/68 68/67/69 67/68/70
f 67/68/70 69/69/71 66/66/68
f 70/70/72 69/69/71 67/68/70
f 67/68/70 71/71/73 70/70/72
f 72/72/74 74/73/75 73/74/76
f 73/74/76 75/75/77 72/72/74
f 75/75/77 73/74/76 76/76/78
f 76/76/78 77/77/79 75/75/77
f 78/78/80 80/79/81 79/80/82
f 79/80/82 81/81/83 78/78/80
f 82/82/84 84/83/85 83/84/86
f 83/84/86 85/85/87 82/82/84
f 86/86/88 82/82/84 85/85/87
f 87/87/89 82/82/84 86/86/88
f 88/88/90 90/89/91 89/90/92
f 89/90/92 91/91/93 88/88/90
f 92/92/94 91/91/93 89/90/92
f 89/90/92 93/93/95 92/92/94
f 94/94/96 96/95/97 95/96/98
f 95/96/98 97/97/99 94/94/96
f 97/97/99 95/96/98 98/98/100
f 98/98/100 99/99/101 97/97/99
f 100/100/102 102/101/103 101/102/104
f 101/102/104 103/103/105 100/100/102
f 103/103/105 101/102/104 104/104/106
f 104/104/106 105/105/107 103/103/105
f 106/106/108 108/107/109 107/108/110
f 107/108/110 109/109/111 106/106/108
f 110/110/112 106/106/108 109/109/111
f 109/109/111 111/111/113 110/110/112
f 112/112/114 114/113/115 113/114/116
f 113/114/116 115/115/117 112/112/114
f 116/116/118 112/112/114 115/115/117
f 115/115/117 117/117/119 116/116/118
f 118/118/120 116/116/118 117/117/119
f 117/117/119 119/119/121 118/118/120
f 120/120/122 118/118/120 119/119/121
f 121/121/123 123/122/124 122/123/125
f 122/123/125 124/124/126 121/121/123
f 125/125/127 121/121/123 124/124/126
f 124/124/126 126/126/128 125/125/127
f 126/126/128 124/124/126 127/127/129
f 127/127/129 128/128/130 126/126/128
f 128/128/130 127/127/129 129/129/131
f 130/130/132 132/131/133 131/132/134
f 131/132/134 133/133/135 130/130/132
f 134/134/136 130/130/132 133/133/135
f 133/133/135 135/135/137 134/134/136
f 136/136/138 138/137/139 137/138/140
f 137/138/140 139/139/141 136/136/138
f 140/140/142 139/139/141 137/138/140
f 137/138/140 141/141/143 140/140/142
f 142/142/144 144/143/145 143/144/146
f 143/144/146 145/145/147 142/142/144
f 145/145/147 143/144/146 146/146/148
f 146/146/148 147/147/149 145/145/147
f 148/148/150 150/149/151 149/150/152
f 149/150/152 151/151/153 148/148/150
f 152/152/154 154/153/155 153/154/156
f 153/154/156 155/155/157 152/152/154
f 156/156/158 158/157/159 157/158/160
f 159/159/161 161/160/162 160/161/163
f 162/162/164 164/163/165 163/164/166
f 165/165/167 167/166/168 166/167/169
f 168/168/170 170/169/171 169/170/172
f 171/171/173 173/172/174 172/173/175
f 174/174/176 176/175/177 175/176/178
f 175/176/178 177/177/177 174/174/176
f 178/178/179 174/174/176 177/177/177
f 179/179/180 177/177/177 175/176/178
f 180/180/181 182/181/182 181/182/183
f 181/182/183 183/183/184 180/180/181
f 184/184/185 180/180/181 183/183/184
f 183/183/184 185/185/186 184/184/185
f 186/186/187 184/184/185 185/185/186
f 185/185/186 187/187/188 186/186/187
f 188/188/189 190/189/190 189/190/191
f 189/190/191 191/191/192 188/188/189
f 192/192/193 188/188/189 191/191/192
f 191/191/192 193/193/194 192/192/193
f 194/194/195 192/192/193 193/193/194
f 193/193/194 195/195/196 194/194/195
f 196/196/197 198/197/198 197/198/199
f 197/198/199 199/199/200 196/196/197
f 199/199/200 197/198/199 200/200/201
f 200/200/201 201/201/202 199/199/200
f 201/201/202 200/200/201 202/202/203
f 202/202/203 203/203/204 201/201/202
f 204/204/205 206/205/206 205/206/207
f 205/206/207 207/207/208 204/204/205
f 208/208/209 204/204/205 207/207/208
f 207/207/208 209/209/210 208/208/209
f 210/210/211 208/208/209 209/209/210
f 209/209/210 211/211/212 210/210/211
f 212/212/213 214/213/214 213/214/215
f 213/214/215 215/215/216 212/212/213
f 216/216/217 215/215/216 213/214/215
f 213/214/215 217/217/218 216/216/217
f 218/218/219 220/219/220 219/220/221
f 219/220/221 221/221/222 218/218/219
f 222/222/223 218/218/219 221/221/222
f 223/223/224 218/218/219 222/222/223
f 224/224/225 226/225/226 225/226/227
f 225/226/227 227/227/228 224/224/225
f 228/228/229 227/227/228 225/226/227
f 225/226/227 229/229/230 228/228/229
f 230/230/231 232/231/232 231/232/233
f 231/232/233 233/233/234 230/230/231
f 234/234/235 230/230/231 233/233/234
f 235/235/236 230/230/231 234/234/235
f 236/236/237 238/237/238 237/238/239
f 237/238/239 239/239/240 236/236/237
f 240/240/241 236/236/237 239/239/240
f 239/239/240 241/241/242 240/240/241
f 242/242/243 240/240/241 241/241/242
f 243/243/244 240/240/241 242/242/243
f 242/242/243 244/244/245 243/243/244
f 245/245/246 243/243/244 244/244/245
f 246/246/247 248/247/248 247/248/249
f 247/248/249 249/249/250 246/246/247
f 250/250/251 246/246/247 249/249/250
f 249/249/250 251/251/252 250/250/251
f 252/252/253 250/250/251 251/251/252
f 253/253/254 250/250/251 252/252/253
f 252/252/253 254/254/255 253/253/254
f 255/255/256 253/253/254 254/254/255
f 256/256/257 258/257/258 257/258/259
f 259/259/260 261/260/261 260/261/260
f 260/261/260 262/262/262 259/259/260
f 263/263/263 265/264/264 264/265/265
f 264/265/265 266/266/266 263/263/263
f 267/267/267 269/268/268 268/269/269
f 268/269/269 270/270/270 267/267/267
f 271/271/271 273/272/272 272/273/273
f 274/274/274 276/275/275 275/276/276
f 277/277/277 279/278/278 278/279/279
f 280/280/277 282/281/280 281/282/281
f 283/283/282 285/284/283 284/285/284
f 286/286/285 288/287/286 287/288/287
f 289/289/288 291/290/289 290/291/290
f 292/292/291 294/293/292 293/294/293
f 295/295/294 297/296/295 296/297/296
f 298/298/297 300/299/298 299/300/299
f 301/301/300 303/302/301 302/303/302
f 304/304/303 306/305/304 305/306/305
f 307/307/306 309/308/307 308/309/308
f 310/310/309 312/311/310 311/312/311
f 313/313/312 315/314/313 314/315/314
f 316/316/315 318/317/316 317/318/317
f 317/318/317 319/319/318 316/316/315
f 320/320/319 322/321/320 321/322/321
f 323/323/322 325/324/323 324/325/324
f 326/326/325 328/327/326 327/328/327
f 329/329/328 331/330/329 330/331/330
f 332/332/331 334/333/332 333/334/333
f 335/335/334 337/336/335 336/337/336
f 338/338/337 340/339/338 339/340/339
f 339/340/339 341/341/340 338/338/337
f 342/342/341 344/343/342 343/344/343
f 343/344/343 345/345/344 342/342/341
f 346/346/345 348/347/346 347/348/347
f 347/348/347 349/349/348 346/346/345
f 350/350/349 352/351/350 351/352/351
f 351/352/351 353/353/352 350/350/349
f 354/354/353 356/355/354 355/356/353
f 355/356/353 357/357/355 354/354/353
f 358/358/356 360/359/357 359/360/358
f 361/361/359 363/362/360 362/363/361
f 364/364/362 366/365/363 365/366/364
f 367/367/365 369/368/366 368/369/367
f 370/370/363 372/371/368 371/372/369
f 373/373/260 375/374/262 374/375/370
f 374/375/370 376/376/261 373/373/260
f 377/377/371 379/378/372 378/379/373
f 380/380/374 382/381/373 381/382/375
f 383/383/376 385/384/377 384/385/378
f 386/386/353 388/387/354 387/388/353
f 387/388/353 389/389/355 386/386/353
f 390/390/379 392/391/380 391/392/381
f 393/393/382 395/394/383 394/395/384
f 396/396/385 398/397/386 397/398/387
f 399/399/388 401/400/389 400/401/390
f 400/401/390 402/402/391 399/399/388
f 403/403/392 405/404/393 404/405/394
f 406/406/395 408/407/396 407/408/397
f 409/409/398 411/410/399 410/411/400
f 412/412/401 414/413/402 413/414/403
f 415/415/404 417/416/405 416/417/406
f 418/418/407 420/419/408 419/420/409
f 421/421/410 423/422/411 422/423/412
f 424/424/413 426/425/414 425/426/415
f 427/427/416 429/428/417 428/429/418
f 430/430/419 432/431/420 431/432/421
f 433/433/422 435/434/423 434/435/424
f 436/436/425 438/437/426 437/438/427
f 439/439/428 441/440/429 440/441/430
f 440/441/430 442/442/431 439/439/428
f 443/443/432 440/441/430 441/440/429
f 444/444/433 442/442/431 440/441/430
f 440/441/430 443/443/432 445/445/434
f 446/446/435 444/444/433 440/441/430
f 440/441/430 445/445/434 447/447/436
f 447/447/436 446/446/435 440/441/430
f 448/448/437 450/449/438 449/450/439
f 449/450/439 451/451/440 448/448/437
f 452/452/441 450/449/438 448/448/437
f 453/453/442 448/448/437 451/451/440
f 454/454/443 452/452/441 448/448/437
f 448/448/437 453/453/442 455/455/444
f 456/456/445 454/454/443 448/448/437
f 448/448/437 455/455/444 456/456/445
f 457/457/446 459/458/447 458/459/448
f 458/459/448 460/460/449 457/457/446
f 459/458/447 457/457/446 461/461/450
f 461/461/450 462/462/451 459/458/447
f 462/462/451 461/461/450 463/463/452
f 463/463/452 464/464/453 462/462/451
f 465/465/454 462/462/451 464/464/453
f 464/464/453 466/466/455 465/465/454
f 467/467/456 465/465/454 466/466/455
f 466/466/455 460/460/449 467/467/456
f 460/460/449 466/466/455 468/468/457
f 468/468/457 457/457/446 460/460/449
f 469/469/458 471/470/459 470/471/460
f 470/471/460 472/472/461 469/469/458
f 470/471/460 471/470/459 473/473/462
f 472/472/461 470/471/460 474/474/463
f 474/474/463 475/475/464 472/472/461
f 475/475/464 474/474/463 476/476/465
f 476/476/465 477/477/466 475/475/464
f 478/478/467 475/475/464 477/477/466
f 477/477/466 479/479/468 478/478/467
f 479/479/468 477/477/466 480/480/469
f 480/480/469 473/473/462 479/479/468
f 471/470/459 479/479/468 473/473/462
f 481/481/470 483/482/471 482/483/472
f 482/483/472 484/484/473 481/481/470
f 482/483/472 483/482/471 485/485/474
f 486/486/475 484/484/473 482/483/472
f 482/483/472 485/485/474 487/487/476
f 487/487/476 486/486/475 482/483/472
f 488/488/477 490/489/478 489/490/479
f 489/490/479 491/491/480 488/488/477
f 492/492/481 490/489/478 488/488/477
f 493/493/482 488/488/477 491/491/480
f 494/494/483 492/492/481 488/488/477
f 488/488/477 493/493/482 494/494/483
f 495/495/484 497/496/485 496/497/486
f 496/497/486 498/498/487 495/495/484
f 498/498/487 496/497/486 499/499/488
f 499/499/488 500/500/489 498/498/487
f 500/500/489 499/499/488 501/501/490
f 501/501/490 502/502/491 500/500/489
f 502/502/491 501/501/490 503/503/492
f 503/503/492 504/504/493 502/502/491
f 504/504/493 503/503/492 505/505/494
f 505/505/494 506/506/495 504/504/493
f 506/506/495 505/505/494 497/496/485
f 497/496/485 495/495/484 506/506/495
f 507/507/496 509/508/497 508/509/498
f 508/509/498 510/510/499 507/507/496
f 509/508/497 507/507/496 511/511/500
f 511/511/500 512/512/501 509/508/497
f 512/512/501 511/511/500 513/513/502
f 513/513/502 514/514/503 512/512/501
f 514/514/503 513/513/502 515/515/504
f 515/515/504 516/516/505 514/514/503
f 516/516/505 515/515/504 517/517/506
f 517/517/506 518/518/507 516/516/505
f 518/518/507 517/517/506 510/510/499
f 510/510/499 508/509/498 518/518/507
f 519/519/508 521/520/509 520/521/510
f 520/521/510 522/522/511 519/519/508
f 523/523/512 519/519/508 522/522/511
f 522/522/511 524/524/513 523/523/512
f 525/525/514 523/523/512 524/524/513
f 524/524/513 526/526/515 525/525/514
f 527/527/516 525/525/514 526/526/515
f 526/526/515 528/528/517 527/527/516
f 529/529/518 527/527/516 528/528/517
f 528/528/517 530/530/519 529/529/518
f 521/520/509 529/529/518 530/530/519
f 530/530/519 520/521/510 521/520/509
f 531/531/520 533/532/521 532/533/522
f 532/533/522 534/534/523 531/531/520
f 535/535/524 532/533/522 533/532/521
f 533/532/521 536/536/525 535/535/524
f 537/537/526 535/535/524 536/536/525
f 536/536/525 538/538/527 537/537/526
f 539/539/528 537/537/526 538/538/527
f 538/538/527 540/540/529 539/539/528
f 541/541/530 539/539/528 540/540/529
f 540/540/529 542/542/531 541/541/530
f 534/534/523 541/541/530 542/542/531
f 542/542/531 531/531/520 534/534/523
o mesh1
v 0.011710 0.135233 -0.020280
v 0.017077 0.045471 0.000000
v 0.023418 0.135233 -0.000000
v 0.008539 0.045471 -0.014788
v -0.011707 0.135233 -0.020280
v 0.018063 -0.057234 0.000000
v 0.009032 -0.057234 -0.015642
v -0.008536 0.045471 -0.014788
v -0.023416 0.135233 -0.000000
v -0.017074 0.045471 0.000000
v -0.009029 -0.057234 -0.015642
v -0.018060 -0.057234 0.000000
v -0.011549 0.148039 -0.020005
v -0.015051 0.223919 -0.000000
v -0.023098 0.148039 -0.000000
v -0.007525 0.223919 -0.013035
v 0.011551 0.148039 -0.020005
v -0.011730 0.317002 -0.000000
v -0.005783 0.317002 -0.010299
v 0.007527 0.223919 -0.013035
v 0.023101 0.148039 -0.000000
v 0.015053 0.223919 -0.000000
v 0.006109 0.317002 -0.010299
v 0.012055 0.317002 -0.000000
v -0.023060 -0.064157 0.000000
v -0.009029 -0.057234 -0.015642
v -0.018060 -0.057234 0.000000
v -0.011529 -0.064157 -0.019971
v -0.018060 -0.071081 0.000000
v 0.009032 -0.057234 -0.015642
v -0.009029 -0.071081 -0.015642
v 0.011532 -0.064157 -0.019971
v 0.018063 -0.057234 0.000000
v 0.023062 -0.064157 0.000000
v 0.009032 -0.071081 -0.015642
v 0.018063 -0.071081 0.000000
v -0.005783 0.317002 0.010299
v -0.015051 0.223919 -0.000000
v -0.011730 0.317002 -0.000000
v -0.007525 0.223919 0.013035
v 0.006109 0.317002 0.010299
v -0.023098 0.148039 -0.000000
v -0.011549 0.148039 0.020005
v 0.007527 0.223919 0.013035
v 0.012055 0.317002 -0.000000
v 0.015053 0.223919 -0.000000
v 0.011551 0.148039 0.020005
v 0.023101 0.148039 -0.000000
v 0.022205 -0.087855 0.000000
v 0.009032 -0.071081 0.015642
v 0.018063 -0.071081 0.000000
v 0.011103 -0.087855 0.019229
v -0.009029 -0.071081 0.015642
v -0.011101 -0.087855 0.019229
v -0.018060 -0.071081 0.000000
v -0.022202 -0.087855 0.000000
v -0.022202 -0.087855 0.000000
v -0.009029 -0.071081 -0.015642
v -0.018060 -0.071081 0.000000
v -0.011101 -0.087855 -0.019229
v 0.009032 -0.071081 -0.015642
v 0.011103 -0.087855 -0.019229
v 0.018063 -0.071081 0.000000
v 0.022205 -0.087855 0.000000
v -0.023060 -0.064157 0.000000
v -0.009029 -0.071081 0.015642
v -0.018060 -0.071081 0.000000
v -0.011529 -0.064157 0.019972
v -0.018060 -0.057234 0.000000
v 0.009032 -0.071081 0.015642
v -0.009029 -0.057234 0.015642
v 0.011532 -0.064157 0.019972
v 0.018063 -0.071081 0.000000
v 0.023062 -0.064157 0.000000
v 0.009032 -0.057234 0.015642
v 0.018063 -0.057234 0.000000
v 0.029899 0.141796 -0.000000
v 0.011551 0.148039 0.020005
v 0.023101 0.148039 -0.000000
v 0.014950 0.141796 0.025892
v 0.023418 0.135233 -0.000000
v -0.011549 0.148039 0.020005
v 0.011710 0.135233 0.020280
v -0.014947 0.141796 0.025892
v -0.023098 0.148039 -0.000000
v -0.029896 0.141796 -0.000000
v -0.011707 0.135233 0.020280
v -0.023416 0.135233 -0.000000
v -0.029896 0.141796 -0.000000
v -0.011549 0.148039 -0.020005
v -0.023098 0.148039 -0.000000
v -0.014947 0.141796 -0.025892
v -0.023416 0.135233 -0.000000
v 0.011551 0.148039 -0.020005
v -0.011707 0.135233 -0.020280
v 0.014950 0.141796 -0.025892
v 0.023101 0.148039 -0.000000
v 0.029899 0.141796 -0.000000
v 0.011710 0.135233 -0.020280
v 0.023418 0.135233 -0.000000
v -0.011707 0.135233 0.020280
v -0.017074 0.045471 0.000000
v -0.023416 0.135233 -0.000000
v -0.008536 0.045471 0.014788
v 0.011710 0.135233 0.020280
v -0.018060 -0.057234 0.000000
v -0.009029 -0.057234 0.015642
v 0.008539 0.045471 0.014788
v 0.023418 0.135233 -0.000000
v 0.017077 0.045471 0.000000
v 0.009032 -0.057234 0.015642
v 0.018063 -0.057234 0.000000
vt 0.6689 -0.8584
vt 0.5449 -0.8584
vt 0.6035 -0.9131
vt 0.6904 -0.9131
vt 0.7969 -0.8584
vt 0.5928 -0.9766
vt 0.6875 -0.9766
vt 0.7783 -0.9131
vt 0.9199 -0.8584
vt 0.8662 -0.9131
vt 0.7861 -0.9766
vt 0.8809 -0.9766
vt 0.7949 -0.8467
vt 0.9160 -0.8467
vt 0.8428 -0.8008
vt 0.7666 -0.8008
vt 0.6689 -0.8467
vt 0.8184 -0.7471
vt 0.7578 -0.7471
vt 0.6885 -0.8008
vt 0.5469 -0.8467
vt 0.6123 -0.8008
vt 0.6973 -0.7471
vt 0.6367 -0.7471
vt 0.8975 -0.9814
vt 0.8809 -0.9766
vt 0.7861 -0.9766
vt 0.7881 -0.9814
vt 0.8838 -0.9863
vt 0.6875 -0.9766
vt 0.7871 -0.9863
vt 0.6846 -0.9814
vt 0.5928 -0.9766
vt 0.5752 -0.9814
vt 0.6846 -0.9863
vt 0.5879 -0.9863
vt 0.7578 -0.7471
vt 0.8184 -0.7471
vt 0.8428 -0.8008
vt 0.7666 -0.8008
vt 0.6973 -0.7471
vt 0.9160 -0.8467
vt 0.7949 -0.8467
vt 0.6885 -0.8008
vt 0.6367 -0.7471
vt 0.6123 -0.8008
vt 0.6689 -0.8467
vt 0.5469 -0.8467
vt 0.5703 -0.9971
vt 0.5879 -0.9863
vt 0.6846 -0.9863
vt 0.6807 -0.9971
vt 0.7871 -0.9863
vt 0.7891 -0.9971
vt 0.8838 -0.9863
vt 0.8994 -0.9971
vt 0.8994 -0.9971
vt 0.8838 -0.9863
vt 0.7871 -0.9863
vt 0.7891 -0.9971
vt 0.6846 -0.9863
vt 0.6807 -0.9971
vt 0.5879 -0.9863
vt 0.5703 -0.9971
vt 0.8975 -0.9814
vt 0.8838 -0.9863
vt 0.7871 -0.9863
vt 0.7881 -0.9814
vt 0.8809 -0.9766
vt 0.6846 -0.9863
vt 0.7861 -0.9766
vt 0.6846 -0.9814
vt 0.5879 -0.9863
vt 0.5752 -0.9814
vt 0.6875 -0.9766
vt 0.5928 -0.9766
vt 0.5234 -0.8525
vt 0.5469 -0.8467
vt 0.6689 -0.8467
vt 0.6660 -0.8525
vt 0.5449 -0.8584
vt 0.7949 -0.8467
vt 0.6689 -0.8584
vt 0.7988 -0.8525
vt 0.9160 -0.8467
vt 0.9404 -0.8525
vt 0.7969 -0.8584
vt 0.9199 -0.8584
vt 0.9404 -0.8525
vt 0.9160 -0.8467
vt 0.7949 -0.8467
vt 0.7988 -0.8525
vt 0.9199 -0.8584
vt 0.6689 -0.8467
vt 0.7969 -0.8584
vt 0.6660 -0.8525
vt 0.5469 -0.8467
vt 0.5234 -0.8525
vt 0.6689 -0.8584
vt 0.5449 -0.8584
vt 0.7969 -0.8584
vt 0.9199 -0.8584
vt 0.8662 -0.9131
vt 0.7627 -0.9131
vt 0.6689 -0.8584
vt 0.8809 -0.9766
vt 0.7861 -0.9766
vt 0.6904 -0.9131
vt 0.5449 -0.8584
vt 0.6035 -0.9131
vt 0.6875 -0.9766
vt 0.5928 -0.9766
vn -0.6037 0.7625 0.2325
vn 0.0166 -0.6314 0.7753
vn -0.5944 -0.7009 -0.3943
vn 0.4959 0.4252 0.7572
vn 0.5955 0.7695 0.2309
vn -0.6774 0.6003 -0.4252
vn -0.6096 -0.7278 0.3143
vn -0.5347 0.3253 0.7799
vn -0.0245 -0.6378 0.7699
vn 0.5881 -0.7005 -0.4042
vn 0.6058 -0.7311 0.3139
vn 0.6691 0.6060 -0.4301
vn 0.5815 -0.7944 0.1752
vn -0.0141 0.6416 0.7669
vn 0.6216 0.6520 -0.4342
vn -0.5340 -0.4287 0.7287
vn -0.5902 -0.7875 0.1775
vn 0.6230 -0.6423 -0.4464
vn 0.5981 -0.7515 0.2784
vn 0.5347 -0.4144 0.7364
vn 0.0066 0.6349 0.7726
vn -0.6251 0.6546 -0.4253
vn -0.6033 -0.7463 0.2810
vn -0.6355 -0.6324 -0.4431
vn 0.8837 -0.4659 0.0444
vn 0.0362 -0.8866 -0.4612
vn 0.7211 -0.5594 -0.4088
vn 0.1567 0.1789 0.9713
vn 0.0377 0.8925 -0.4496
vn -0.7249 -0.5618 -0.3985
vn 0.7316 0.5527 -0.3990
vn -0.7607 -0.1798 0.6237
vn -0.0501 -0.8857 -0.4615
vn -0.8852 -0.4623 0.0529
vn -0.7352 0.5554 -0.3886
vn -0.0517 0.8916 -0.4499
vn 0.5961 -0.7486 -0.2903
vn 0.0371 0.6187 0.7847
vn -0.6251 0.7206 -0.2999
vn 0.9309 0.3631 0.0399
vn -0.6013 -0.7434 -0.2928
vn -0.7497 -0.5664 -0.3422
vn 0.5794 -0.7931 -0.1880
vn -0.7793 0.6222 -0.0747
vn -0.0486 0.6215 0.7819
vn 0.6210 0.7199 -0.3099
vn -0.5879 -0.7863 -0.1901
vn 0.7420 -0.5730 -0.3480
vn 0.8258 -0.5183 -0.2222
vn -0.0089 0.7200 0.6939
vn -0.5960 -0.7955 -0.1096
vn -0.5893 -0.8044 -0.0754
vn 0.5876 -0.8023 -0.1052
vn 0.5806 -0.8111 -0.0710
vn -0.0025 0.7167 0.6974
vn -0.8325 -0.5105 -0.2152
vn 0.0696 0.6733 0.7360
vn 0.4013 -0.7896 -0.4642
vn 0.5912 -0.8013 0.0917
vn 0.5840 -0.8097 0.0573
vn -0.5995 -0.7946 0.0963
vn -0.5926 -0.8031 0.0620
vn -0.4126 -0.7857 -0.4609
vn -0.0758 0.6651 0.7429
vn -0.1069 -0.7332 -0.6715
vn 0.2280 -0.9125 0.3396
vn 0.7246 0.5667 0.3922
vn 0.7589 -0.1727 -0.6279
vn 0.2254 0.9085 0.3519
vn -0.7282 0.5691 0.3818
vn 0.7140 -0.5732 0.4021
vn -0.4439 -0.3814 -0.8109
vn -0.2415 -0.9088 0.3403
vn 0.0943 -0.7275 -0.6796
vn -0.7180 -0.5754 0.3917
vn -0.2388 0.9048 0.3526
vn -0.0457 -0.6771 -0.7344
vn -0.5160 0.8409 0.1633
vn -0.8322 -0.3311 0.4447
vn -0.7095 0.1136 -0.6955
vn -0.4519 -0.8707 0.1941
vn 0.8323 -0.3197 0.4528
vn -0.8133 0.3846 0.4366
vn 0.2448 -0.1580 -0.9566
vn 0.5051 0.8483 0.1592
vn 0.0378 -0.6829 -0.7295
vn 0.8132 0.3770 0.4434
vn 0.4401 -0.8774 0.1908
vn 0.9014 -0.4079 0.1451
vn -0.0918 -0.8589 -0.5039
vn 0.8380 -0.3022 -0.4545
vn 0.7163 0.1189 0.6876
vn -0.0591 0.8758 -0.4791
vn -0.8381 -0.3149 -0.4455
vn 0.8196 0.3608 -0.4452
vn -0.2402 -0.1641 0.9568
vn 0.0783 -0.8588 -0.5064
vn -0.9018 -0.4044 0.1521
vn -0.8198 0.3700 -0.4370
vn 0.0454 0.8755 -0.4811
vn 0.5933 0.7674 -0.2432
vn -0.7238 0.5849 -0.3662
vn -0.6272 -0.7149 -0.3091
vn -0.4933 0.4141 -0.7650
vn -0.6016 0.7604 -0.2448
vn 0.0480 -0.6129 0.7887
vn 0.6037 -0.7278 -0.3252
vn 0.5232 0.3227 -0.7887
vn 0.7158 0.5912 -0.3717
vn 0.6223 -0.7151 -0.3184
vn -0.6076 -0.7244 -0.3257
vn -0.0563 -0.6184 0.7838
usemtl AM_A_1000_1
s 1
f 543/543/532 545/544/533 544/545/534
f 544/545/534 546/546/535 543/543/532
f 547/547/536 543/543/532 546/546/535
f 546/546/535 544/545/534 548/548/537
f 548/548/537 549/549/538 546/546/535
f 550/550/539 546/546/535 549/549/538
f 547/547/536 546/546/535 550/550/539
f 550/550/539 551/551/540 547/547/536
f 552/552/541 551/551/540 550/550/539
f 550/550/539 553/553/542 552/552/541
f 549/549/538 553/553/542 550/550/539
f 554/554/543 552/552/541 553/553/542
f 555/555/544 557/556/545 556/557/546
f 556/557/546 558/558/547 555/555/544
f 559/559/548 555/555/544 558/558/547
f 558/558/547 556/557/546 560/560/549
f 560/560/549 561/561/550 558/558/547
f 562/562/551 558/558/547 561/561/550
f 559/559/548 558/558/547 562/562/551
f 562/562/551 563/563/552 559/559/548
f 564/564/553 563/563/552 562/562/551
f 562/562/551 565/565/554 564/564/553
f 561/561/550 565/565/554 562/562/551
f 566/566/555 564/564/553 565/565/554
f 567/567/556 569/568/557 568/569/558
f 568/569/558 570/570/559 567/567/556
f 571/571/560 567/567/556 570/570/559
f 572/572/561 570/570/559 568/569/558
f 573/573/562 571/571/560 570/570/559
f 570/570/559 572/572/561 574/574/563
f 574/574/563 573/573/562 570/570/559
f 574/574/563 572/572/561 575/575/564
f 575/575/564 576/576/565 574/574/563
f 577/577/566 574/574/563 576/576/565
f 573/573/562 574/574/563 577/577/566
f 577/577/566 576/576/565 578/578/567
f 579/579/568 581/580/569 580/581/570
f 580/581/570 582/582/571 579/579/568
f 583/583/572 579/579/568 582/582/571
f 582/582/571 580/581/570 584/584/573
f 584/584/573 585/585/574 582/582/571
f 586/586/575 582/582/571 585/585/574
f 583/583/572 582/582/571 586/586/575
f 586/586/575 587/587/576 583/583/572
f 588/588/577 587/587/576 586/586/575
f 586/586/575 589/589/578 588/588/577
f 585/585/574 589/589/578 586/586/575
f 590/590/579 588/588/577 589/589/578
f 591/591/580 593/592/581 592/593/582
f 592/593/582 594/594/583 591/591/580
f 594/594/583 592/593/582 595/595/584
f 595/595/584 596/596/585 594/594/583
f 596/596/585 595/595/584 597/597/586
f 597/597/586 598/598/587 596/596/585
f 599/599/588 601/600/589 600/601/590
f 600/601/590 602/602/591 599/599/588
f 602/602/591 600/601/590 603/603/592
f 603/603/592 604/604/593 602/602/591
f 604/604/593 603/603/592 605/605/594
f 605/605/594 606/606/595 604/604/593
f 607/607/596 609/608/597 608/609/598
f 608/609/598 610/610/599 607/607/596
f 611/611/600 607/607/596 610/610/599
f 612/612/601 610/610/599 608/609/598
f 613/613/602 611/611/600 610/610/599
f 610/610/599 614/614/603 613/613/602
f 614/614/603 610/610/599 612/612/601
f 612/612/601 615/615/604 614/614/603
f 616/616/605 614/614/603 615/615/604
f 614/614/603 616/616/605 617/617/606
f 617/617/606 613/613/602 614/614/603
f 617/617/606 616/616/605 618/618/607
f 619/619/608 621/620/609 620/621/610
f 620/621/610 622/622/611 619/619/608
f 623/623/612 619/619/608 622/622/611
f 624/624/613 622/622/611 620/621/610
f 625/625/614 623/623/612 622/622/611
f 622/622/611 624/624/613 626/626/615
f 626/626/615 625/625/614 622/622/611
f 626/626/615 624/624/613 627/627/616
f 627/627/616 628/628/617 626/626/615
f 629/629/618 626/626/615 628/628/617
f 625/625/614 626/626/615 629/629/618
f 629/629/618 628/628/617 630/630/619
f 631/631/620 633/632/621 632/633/622
f 632/633/622 634/634/623 631/631/620
f 635/635/624 631/631/620 634/634/623
f 636/636/625 634/634/623 632/633/622
f 637/637/626 635/635/624 634/634/623
f 634/634/623 636/636/625 638/638/627
f 638/638/627 637/637/626 634/634/623
f 638/638/627 636/636/625 639/639/628
f 639/639/628 640/640/629 638/638/627
f 641/641/630 638/638/627 640/640/629
f 637/637/626 638/638/627 641/641/630
f 641/641/630 640/640/629 642/642/631
f 643/643/632 645/644/633 644/645/634
f 644/645/634 646/646/635 643/643/632
f 647/647/636 643/643/632 646/646/635
f 646/646/635 644/645/634 648/648/637
f 648/648/637 649/649/638 646/646/635
f 650/650/639 646/646/635 649/649/638
f 647/647/636 646/646/635 650/650/639
f 650/650/639 651/651/640 647/647/636
f 652/652/641 651/651/640 650/650/639
f 650/650/639 653/653/642 652/652/641
f 649/649/638 653/653/642 650/650/639
f 654/654/643 652/652/641 653/653/642
