# Blender v2.79 (sub 0) OBJ File: ''
# www.blender.org
mtllib Cupula.mtl
o Sphere
v 0.138548 3.570274 -0.696526
v 0.271771 3.363124 -1.366285
v 0.394551 3.026732 -1.983538
v 0.502167 2.574024 -2.524565
v 0.590486 2.022398 -2.968574
v 0.656113 1.393052 -3.298503
v 0.696526 0.710172 -3.501672
v 0.710172 0.000000 -3.570274
v 0.271771 3.570274 -0.656113
v 0.533098 3.363124 -1.287012
v 0.773939 3.026732 -1.868452
v 0.985037 2.574024 -2.378088
v 1.158281 2.022398 -2.796335
v 1.287012 1.393052 -3.107121
v 1.366285 0.710172 -3.298502
v 1.393052 0.000000 -3.363124
v 0.394551 3.570274 -0.590486
v 0.773939 3.363124 -1.158280
v 1.123585 3.026732 -1.681562
v 1.430052 2.574024 -2.140223
v 1.681563 2.022398 -2.516635
v 1.868452 1.393052 -2.796335
v 1.983538 0.710172 -2.968574
v 2.022398 0.000000 -3.026731
v 0.502168 3.570274 -0.502167
v 0.985037 3.363124 -0.985036
v 1.430052 3.026732 -1.430051
v 1.820110 2.574024 -1.820109
v 2.140224 2.022398 -2.140222
v 2.378089 1.393052 -2.378088
v 2.524565 0.710172 -2.524564
v 2.574025 0.000000 -2.574023
v 0.590487 3.570274 -0.394550
v 1.158281 3.363124 -0.773938
v 1.681563 3.026732 -1.123583
v 2.140224 2.574024 -1.430050
v 2.516637 2.022398 -1.681561
v 2.796336 1.393052 -1.868451
v 2.968575 0.710172 -1.983537
v 3.026733 0.000000 -2.022397
v 0.656114 3.570274 -0.271770
v 1.287013 3.363124 -0.533097
v 1.868453 3.026732 -0.773937
v 2.378089 2.574024 -0.985035
v 2.796337 2.022398 -1.158279
v 3.107122 1.393052 -1.287011
v 3.298503 0.710172 -1.366283
v 3.363125 0.000000 -1.393051
v 0.696527 3.570274 -0.138547
v 1.366286 3.363124 -0.271770
v 1.983539 3.026732 -0.394549
v 2.524566 2.574024 -0.502166
v 2.968575 2.022398 -0.590485
v 3.298503 1.393052 -0.656112
v 3.501672 0.710172 -0.696525
v 3.570275 0.000000 -0.710170
v 0.710173 3.570274 0.000001
v 1.393053 3.363124 0.000001
v 2.022399 3.026732 0.000001
v 2.574025 2.574024 0.000001
v 3.026733 2.022398 0.000001
v 3.363125 1.393052 0.000001
v 3.570274 0.710172 0.000001
v 3.640221 0.000000 0.000001
v 0.696527 3.570274 0.138549
v 1.366286 3.363124 0.271772
v 1.983539 3.026732 0.394552
v 2.524565 2.574024 0.502168
v 2.968575 2.022398 0.590487
v 3.298503 1.393052 0.656114
v 3.501672 0.710172 0.696527
v 3.570275 0.000000 0.710173
v 0.656114 3.570274 0.271773
v 1.287013 3.363124 0.533099
v 1.868453 3.026732 0.773940
v 2.378089 2.574024 0.985038
v 2.796336 2.022398 1.158282
v 3.107122 1.393052 1.287013
v 3.298502 0.710172 1.366286
v 3.363125 0.000000 1.393053
v 0.590487 3.570274 0.394552
v 1.158281 3.363124 0.773940
v 1.681563 3.026732 1.123585
v 2.140223 2.574024 1.430052
v 2.516636 2.022398 1.681564
v 2.796336 1.393052 1.868453
v 2.968574 0.710172 1.983539
v 3.026732 0.000000 2.022399
v 0.502168 3.570274 0.502169
v 0.985037 3.363124 0.985038
v 1.430052 3.026732 1.430053
v 1.820110 2.574024 1.820111
v 2.140223 2.022398 2.140224
v 2.378089 1.393052 2.378089
v 2.524565 0.710172 2.524566
v 2.574024 0.000000 2.574026
v 0.394551 3.570274 0.590488
v 0.773939 3.363124 1.158282
v 1.123584 3.026732 1.681564
v 1.430051 2.574024 2.140224
v 1.681562 2.022398 2.516637
v 1.868452 1.393052 2.796337
v 1.983537 0.710172 2.968575
v 2.022398 0.000000 3.026734
v 0.271771 3.570274 0.656115
v 0.533098 3.363124 1.287014
v 0.773938 3.026732 1.868453
v 0.985036 2.574024 2.378089
v 1.158280 2.022398 2.796337
v 1.287012 1.393052 3.107123
v 1.366284 0.710172 3.298504
v 1.393052 0.000000 3.363126
v 0.138548 3.570274 0.696528
v 0.271771 3.363124 1.366286
v 0.394550 3.026732 1.983539
v 0.502167 2.574024 2.524566
v 0.590486 2.022398 2.968575
v 0.656113 1.393052 3.298504
v 0.696526 0.710172 3.501673
v 0.710171 0.000000 3.570276
v -0.000000 3.570274 0.710174
v 0.000000 3.363124 1.393053
v 0.000000 3.026732 2.022399
v -0.000000 2.574024 2.574025
v -0.000000 2.022398 3.026732
v 0.000000 1.393052 3.363126
v -0.000000 0.710172 3.570274
v -0.000000 0.000000 3.640221
v -0.138548 3.570274 0.696528
v -0.271771 3.363124 1.366286
v -0.394550 3.026732 1.983539
v -0.502167 2.574024 2.524566
v -0.590486 2.022398 2.968575
v -0.656113 1.393052 3.298504
v -0.696526 0.710172 3.501672
v -0.710172 0.000000 3.570275
v -0.000000 3.640220 0.000002
v -0.271771 3.570274 0.656115
v -0.533098 3.363124 1.287013
v -0.773938 3.026732 1.868453
v -0.985036 2.574024 2.378089
v -1.158280 2.022398 2.796336
v -1.287012 1.393052 3.107123
v -1.366285 0.710172 3.298503
v -1.393052 0.000000 3.363126
v -0.394551 3.570274 0.590488
v -0.773938 3.363124 1.158281
v -1.123584 3.026732 1.681564
v -1.430051 2.574024 2.140224
v -1.681562 2.022398 2.516636
v -1.868452 1.393052 2.796337
v -1.983538 0.710172 2.968574
v -2.022398 0.000000 3.026733
v -0.502168 3.570274 0.502169
v -0.985036 3.363124 0.985037
v -1.430051 3.026732 1.430053
v -1.820110 2.574024 1.820111
v -2.140222 2.022398 2.140223
v -2.378088 1.393052 2.378089
v -2.524564 0.710172 2.524565
v -2.574024 0.000000 2.574025
v -0.590487 3.570274 0.394552
v -1.158280 3.363124 0.773939
v -1.681562 3.026732 1.123585
v -2.140223 2.574024 1.430052
v -2.516635 2.022398 1.681562
v -2.796335 1.393052 1.868453
v -2.968573 0.710172 1.983538
v -3.026732 0.000000 2.022398
v -0.656114 3.570274 0.271772
v -1.287012 3.363124 0.533099
v -1.868452 3.026732 0.773939
v -2.378088 2.574024 0.985037
v -2.796335 2.022398 1.158280
v -3.107122 1.393052 1.287013
v -3.298502 0.710172 1.366284
v -3.363124 0.000000 1.393052
v -0.696526 3.570274 0.138549
v -1.366284 3.363124 0.271772
v -1.983538 3.026732 0.394551
v -2.524565 2.574024 0.502168
v -2.968573 2.022398 0.590486
v -3.298503 1.393052 0.656114
v -3.501671 0.710172 0.696526
v -3.570274 0.000000 0.710172
v -0.710172 3.570274 0.000001
v -1.393052 3.363124 0.000001
v -2.022398 3.026732 0.000001
v -2.574024 2.574024 0.000001
v -3.026731 2.022398 0.000001
v -3.363124 1.393052 0.000001
v -3.570272 0.710172 0.000000
v -3.640219 0.000000 0.000001
v -0.696526 3.570274 -0.138547
v -1.366284 3.363124 -0.271770
v -1.983538 3.026732 -0.394549
v -2.524565 2.574024 -0.502166
v -2.968573 2.022398 -0.590485
v -3.298502 1.393052 -0.656112
v -3.501670 0.710172 -0.696525
v -3.570273 0.000000 -0.710171
v -0.656114 3.570274 -0.271770
v -1.287012 3.363124 -0.533097
v -1.868451 3.026732 -0.773937
v -2.378088 2.574024 -0.985036
v -2.796334 2.022398 -1.158279
v -3.107121 1.393052 -1.287011
v -3.298501 0.710172 -1.366284
v -3.363123 0.000000 -1.393051
v -0.590487 3.570274 -0.394549
v -1.158280 3.363124 -0.773937
v -1.681562 3.026732 -1.123583
v -2.140222 2.574024 -1.430050
v -2.516634 2.022398 -1.681561
v -2.796335 1.393052 -1.868451
v -2.968572 0.710172 -1.983536
v -3.026731 0.000000 -2.022397
v -0.502167 3.570274 -0.502166
v -0.985036 3.363124 -0.985035
v -1.430051 3.026732 -1.430050
v -1.820109 2.574024 -1.820109
v -2.140221 2.022398 -2.140221
v -2.378088 1.393052 -2.378087
v -2.524563 0.710172 -2.524563
v -2.574023 0.000000 -2.574023
v -0.394550 3.570274 -0.590485
v -0.773938 3.363124 -1.158279
v -1.123583 3.026732 -1.681561
v -1.430050 2.574024 -2.140222
v -1.681561 2.022398 -2.516634
v -1.868451 1.393052 -2.796334
v -1.983536 0.710172 -2.968572
v -2.022396 0.000000 -3.026730
v -0.271771 3.570274 -0.656112
v -0.533097 3.363124 -1.287011
v -0.773938 3.026732 -1.868450
v -0.985036 2.574024 -2.378087
v -1.158279 2.022398 -2.796333
v -1.287012 1.393052 -3.107120
v -1.366283 0.710172 -3.298500
v -1.393050 0.000000 -3.363122
v -0.138548 3.570274 -0.696525
v -0.271771 3.363124 -1.366283
v -0.394550 3.026732 -1.983536
v -0.502167 2.574024 -2.524564
v -0.590485 2.022398 -2.968571
v -0.656113 1.393052 -3.298501
v -0.696525 0.710172 -3.501669
v -0.710170 0.000000 -3.570271
v 0.000000 3.570274 -0.710171
v 0.000000 3.363124 -1.393050
v 0.000000 3.026732 -2.022396
v 0.000001 2.574024 -2.574023
v 0.000001 2.022398 -3.026729
v 0.000000 1.393052 -3.363123
v 0.000001 0.710172 -3.570270
v 0.000001 0.000000 -3.640217
vt 0.650097 0.813560
vt 0.648811 0.767243
vt 0.700466 0.763836
vt 0.701476 0.800226
vt 0.593087 0.824029
vt 0.591575 0.769567
vt 0.532638 0.831231
vt 0.530958 0.770716
vt 0.471072 0.834890
vt 0.469288 0.770647
vt 0.410755 0.834864
vt 0.408937 0.769362
vt 0.156302 0.251786
vt 0.153956 0.239030
vt 0.215171 0.232651
vt 0.099386 0.269852
vt 0.094783 0.244830
vt 0.046609 0.286153
vt 0.039927 0.249827
vt 0.039927 0.212784
vt 0.094783 0.219315
vt 0.650097 0.720102
vt 0.701476 0.726797
vt 0.593087 0.714134
vt 0.532638 0.709123
vt 0.471072 0.705260
vt 0.410755 0.702695
vt 0.153956 0.226023
vt 0.476354 0.641242
vt 0.537614 0.648819
vt 0.416141 0.637423
vt 0.156302 0.213263
vt 0.099386 0.194286
vt 0.046609 0.176449
vt 0.653905 0.673948
vt 0.704468 0.690534
vt 0.597566 0.659863
vt 0.000000 0.160436
vt 0.016683 0.116867
vt 0.059717 0.142217
vt 0.604838 0.608837
vt 0.660090 0.630554
vt 0.545694 0.592123
vt 0.484932 0.581054
vt 0.424887 0.576055
vt 0.160905 0.201243
vt 0.108414 0.170707
vt 0.436658 0.520950
vt 0.496477 0.527008
vt 0.167587 0.190422
vt 0.121522 0.149482
vt 0.078746 0.111403
vt 0.040903 0.077649
vt 0.614624 0.563019
vt 0.668413 0.591589
vt 0.556569 0.541213
vt 0.071730 0.044290
vt 0.102967 0.085193
vt 0.922081 0.949223
vt 0.910156 0.910373
vt 0.963944 0.881803
vt 0.974086 0.914843
vt 0.865350 0.975348
vt 0.852100 0.932180
vt 0.806075 0.992212
vt 0.792008 0.946385
vt 0.746531 0.999167
vt 0.732189 0.952442
vt 0.176092 0.181219
vt 0.138206 0.131428
vt 0.720419 0.897337
vt 0.780464 0.892339
vt 0.186093 0.173985
vt 0.157823 0.117239
vt 0.131447 0.064593
vt 0.107978 0.018071
vt 0.900369 0.864555
vt 0.955621 0.842838
vt 0.841226 0.881269
vt 0.893097 0.813530
vt 0.949437 0.799444
vt 0.833145 0.824573
vt 0.771886 0.832150
vt 0.711673 0.835970
vt 0.197206 0.168999
vt 0.179621 0.107459
vt 0.163092 0.050395
vt 0.148255 0.000000
vt 0.202761 0.102465
vt 0.209002 0.166453
vt 0.196686 0.043144
vt 0.945629 0.753290
vt 0.997008 0.746595
vt 1.000000 0.782859
vt 0.888619 0.759258
vt 0.828170 0.764270
vt 0.766604 0.768132
vt 0.706287 0.770698
vt 0.826490 0.702677
vt 0.887107 0.703826
vt 0.764820 0.702746
vt 0.704468 0.704030
vt 0.221030 0.166444
vt 0.226354 0.102448
vt 0.230939 0.043120
vt 0.944343 0.706149
vt 0.995997 0.709557
vt 0.249495 0.107409
vt 0.232827 0.168974
vt 0.264533 0.050323
vt 0.945629 0.659832
vt 0.997008 0.673166
vt 0.888619 0.649363
vt 0.828170 0.642161
vt 0.766604 0.638502
vt 0.706287 0.638528
vt 0.833145 0.585048
vt 0.893097 0.597963
vt 0.771886 0.577872
vt 0.711673 0.576710
vt 0.243939 0.173944
vt 0.271292 0.117158
vt 0.296179 0.064476
vt 0.949437 0.616120
vt 1.000000 0.638821
vt 0.324659 0.085036
vt 0.290910 0.131320
vt 0.317642 0.017922
vt 0.353890 0.044089
vt 0.900369 0.551601
vt 0.955621 0.576692
vt 0.841226 0.533533
vt 0.780464 0.523184
vt 0.720419 0.520950
vt 0.253940 0.181163
vt 0.612414 0.005054
vt 0.625225 0.051309
vt 0.564771 0.063592
vt 0.552704 0.020020
vt 0.672121 0.000000
vt 0.685183 0.047162
vt 0.262445 0.190355
vt 0.307593 0.149350
vt 0.348879 0.111211
vt 0.384717 0.077405
vt 0.495286 0.044324
vt 0.506146 0.083537
vt 0.451602 0.110380
vt 0.442366 0.077031
vt 0.367909 0.141998
vt 0.320701 0.170556
vt 0.408937 0.116588
vt 0.514679 0.129648
vt 0.458859 0.149593
vt 0.574253 0.114827
vt 0.635290 0.105700
vt 0.695445 0.102618
vt 0.269128 0.201166
vt 0.642223 0.166136
vt 0.580784 0.171756
vt 0.702514 0.164238
vt 0.273731 0.213180
vt 0.329730 0.194123
vt 0.381016 0.176211
vt 0.463858 0.193165
vt 0.412864 0.208132
vt 0.408937 0.173897
vt 0.520557 0.180883
vt 0.466406 0.239421
vt 0.414866 0.244474
vt 0.523553 0.235274
vt 0.584113 0.232192
vt 0.645758 0.230294
vt 0.706118 0.229653
vt 0.276077 0.225936
vt 0.334332 0.219145
vt 0.387699 0.212537
vt 0.706118 0.296350
vt 0.645758 0.295709
vt 0.276077 0.238944
vt 0.334332 0.244660
vt 0.387699 0.249580
vt 0.466406 0.286583
vt 0.414866 0.281529
vt 0.523553 0.290730
vt 0.584113 0.293812
vt 0.520557 0.345121
vt 0.463858 0.332838
vt 0.580784 0.354248
vt 0.642223 0.359868
vt 0.702514 0.361766
vt 0.273731 0.251703
vt 0.329730 0.269688
vt 0.381016 0.285916
vt 0.412864 0.317872
vt 0.269128 0.263724
vt 0.320701 0.293268
vt 0.367909 0.320148
vt 0.458859 0.376410
vt 0.408937 0.352106
vt 0.514679 0.396356
vt 0.574253 0.411177
vt 0.635290 0.420304
vt 0.695445 0.423386
vt 0.506146 0.442466
vt 0.451602 0.415624
vt 0.564771 0.462412
vt 0.625224 0.474694
vt 0.685182 0.478842
vt 0.262445 0.274544
vt 0.307593 0.314493
vt 0.348879 0.350961
vt 0.408937 0.343331
vt 0.384717 0.382548
vt 0.290910 0.332547
vt 0.253940 0.283748
vt 0.324659 0.377172
vt 0.353890 0.415908
vt 0.086349 0.486599
vt 0.097209 0.525813
vt 0.042665 0.552656
vt 0.033429 0.519307
vt 0.552704 0.505984
vt 0.495286 0.481680
vt 0.612413 0.520950
vt 0.263184 0.442276
vt 0.276246 0.489437
vt 0.216287 0.493585
vt 0.203477 0.447329
vt 0.155834 0.505867
vt 0.165316 0.557102
vt 0.105742 0.571923
vt 0.226353 0.547976
vt 0.286508 0.544894
vt 0.243939 0.290982
vt 0.271292 0.346736
vt 0.296179 0.397772
vt 0.317642 0.442127
vt 0.049922 0.591869
vt 0.249495 0.356516
vt 0.232827 0.295967
vt 0.264533 0.411970
vt 0.054921 0.635441
vt 0.003927 0.650407
vt 0.000000 0.616173
vt 0.111620 0.623158
vt 0.171847 0.614032
vt 0.233286 0.608411
vt 0.293577 0.606514
vt 0.175176 0.674467
vt 0.114616 0.677549
vt 0.236821 0.672570
vt 0.297181 0.671929
vt 0.221030 0.298513
vt 0.226354 0.361510
vt 0.230939 0.419220
vt 0.057469 0.681697
vt 0.005930 0.686750
vt 0.196686 0.419244
vt 0.202761 0.361527
vt 0.057469 0.728858
vt 0.005930 0.723805
vt 0.114617 0.733006
vt 0.175176 0.736087
vt 0.236821 0.737985
vt 0.297181 0.738626
vt 0.209002 0.298522
vt 0.233286 0.802143
vt 0.171847 0.796523
vt 0.293577 0.804041
vt 0.197206 0.295993
vt 0.179621 0.356566
vt 0.163092 0.412042
vt 0.054921 0.775114
vt 0.003927 0.760148
vt 0.111620 0.787396
vt 0.049922 0.818686
vt 0.000000 0.794382
vt 0.105742 0.838631
vt 0.165316 0.853452
vt 0.226353 0.862579
vt 0.286508 0.865661
vt 0.186093 0.291023
vt 0.157823 0.346817
vt 0.131447 0.397889
vt 0.276246 0.921117
vt 0.216288 0.916970
vt 0.176092 0.283803
vt 0.138206 0.332655
vt 0.102967 0.377329
vt 0.107978 0.442276
vt 0.071730 0.416108
vt 0.097209 0.884742
vt 0.042665 0.857899
vt 0.155834 0.904687
vt 0.040904 0.382793
vt 0.078747 0.351153
vt 0.614624 0.961335
vt 0.604838 0.921792
vt 0.660090 0.896700
vt 0.668413 0.930329
vt 0.556569 0.983797
vt 0.545694 0.939859
vt 0.496477 0.996853
vt 0.484932 0.950209
vt 0.436658 1.000000
vt 0.424887 0.952442
vt 0.167587 0.274611
vt 0.121522 0.314625
vt 0.416141 0.896683
vt 0.476354 0.895520
vt 0.160905 0.263801
vt 0.108415 0.293419
vt 0.059717 0.320367
vt 0.016683 0.343609
vt 0.597566 0.875429
vt 0.653905 0.857272
vt 0.537614 0.888344
vt 0.704468 0.834571
vn -0.0624 -0.7715 0.6332
vn -0.0759 -0.6326 0.7708
vn -0.0865 -0.4696 0.8786
vn -0.0938 -0.2890 0.9527
vn -0.0975 -0.0976 0.9904
vn -0.0097 -0.9951 0.0980
vn -0.0286 -0.9565 0.2902
vn -0.0464 -0.8810 0.4709
vn -0.1374 -0.8810 0.4528
vn -0.1847 -0.7715 0.6088
vn -0.2248 -0.6326 0.7412
vn -0.2563 -0.4696 0.8448
vn -0.2779 -0.2890 0.9161
vn -0.2889 -0.0976 0.9524
vn -0.0286 -0.9951 0.0942
vn -0.0846 -0.9565 0.2790
vn -0.4513 -0.2890 0.8443
vn -0.4691 -0.0975 0.8777
vn -0.0464 -0.9951 0.0869
vn -0.1374 -0.9565 0.2571
vn -0.2230 -0.8810 0.4173
vn -0.2999 -0.7715 0.5611
vn -0.3651 -0.6326 0.6831
vn -0.4162 -0.4696 0.7786
vn -0.4036 -0.7715 0.4918
vn -0.4913 -0.6326 0.5987
vn -0.5601 -0.4696 0.6825
vn -0.6073 -0.2890 0.7400
vn -0.6314 -0.0976 0.7693
vn -0.0625 -0.9951 0.0761
vn -0.1850 -0.9565 0.2254
vn -0.3002 -0.8810 0.3658
vn -0.7693 -0.0976 0.6314
vn -0.0761 -0.9951 0.0625
vn -0.2254 -0.9565 0.1850
vn -0.3658 -0.8810 0.3002
vn -0.4918 -0.7715 0.4036
vn -0.5987 -0.6326 0.4913
vn -0.6825 -0.4696 0.5601
vn -0.7400 -0.2890 0.6073
vn -0.5611 -0.7715 0.2999
vn -0.6831 -0.6326 0.3651
vn -0.7786 -0.4696 0.4162
vn -0.8443 -0.2890 0.4513
vn -0.8777 -0.0976 0.4691
vn -0.0869 -0.9951 0.0464
vn -0.2571 -0.9565 0.1374
vn -0.4173 -0.8810 0.2230
vn -0.9524 -0.0976 0.2889
vn -0.0942 -0.9951 0.0286
vn -0.2790 -0.9565 0.0846
vn -0.4528 -0.8810 0.1374
vn -0.6088 -0.7715 0.1847
vn -0.7412 -0.6326 0.2248
vn -0.8448 -0.4696 0.2563
vn -0.9161 -0.2890 0.2779
vn -0.7708 -0.6326 0.0759
vn -0.8786 -0.4696 0.0865
vn -0.9527 -0.2890 0.0938
vn -0.9904 -0.0976 0.0975
vn -0.0980 -0.9951 0.0097
vn -0.2902 -0.9565 0.0286
vn -0.4709 -0.8810 0.0464
vn -0.6332 -0.7715 0.0624
vn -0.2902 -0.9565 -0.0286
vn -0.4709 -0.8810 -0.0464
vn -0.6332 -0.7715 -0.0624
vn -0.7708 -0.6326 -0.0759
vn -0.8786 -0.4696 -0.0865
vn -0.9527 -0.2890 -0.0938
vn -0.9904 -0.0976 -0.0976
vn -0.0980 -0.9951 -0.0097
vn -0.8448 -0.4696 -0.2563
vn -0.9161 -0.2890 -0.2779
vn -0.9524 -0.0976 -0.2889
vn -0.0942 -0.9951 -0.0286
vn -0.2790 -0.9565 -0.0846
vn -0.4528 -0.8810 -0.1374
vn -0.6088 -0.7715 -0.1847
vn -0.7412 -0.6326 -0.2248
vn -0.2571 -0.9565 -0.1374
vn -0.4173 -0.8810 -0.2230
vn -0.5611 -0.7715 -0.2999
vn -0.6831 -0.6326 -0.3651
vn -0.7786 -0.4696 -0.4162
vn -0.8443 -0.2890 -0.4513
vn -0.8777 -0.0976 -0.4691
vn -0.0869 -0.9951 -0.0464
vn -0.6825 -0.4696 -0.5601
vn -0.7400 -0.2890 -0.6073
vn -0.7693 -0.0976 -0.6314
vn -0.0761 -0.9951 -0.0625
vn -0.2254 -0.9565 -0.1850
vn -0.3658 -0.8810 -0.3002
vn -0.4918 -0.7715 -0.4036
vn -0.5987 -0.6326 -0.4913
vn -0.3002 -0.8810 -0.3658
vn -0.4036 -0.7715 -0.4918
vn -0.4913 -0.6326 -0.5987
vn -0.5601 -0.4696 -0.6825
vn -0.6073 -0.2890 -0.7400
vn -0.6314 -0.0976 -0.7693
vn -0.0625 -0.9951 -0.0761
vn -0.1850 -0.9565 -0.2254
vn -0.4513 -0.2890 -0.8443
vn -0.4691 -0.0976 -0.8777
vn -0.0464 -0.9951 -0.0869
vn -0.1374 -0.9565 -0.2571
vn -0.2230 -0.8810 -0.4173
vn -0.2999 -0.7715 -0.5611
vn -0.3651 -0.6326 -0.6831
vn -0.4162 -0.4696 -0.7786
vn -0.1374 -0.8810 -0.4528
vn -0.1847 -0.7715 -0.6088
vn -0.2248 -0.6326 -0.7412
vn -0.2563 -0.4696 -0.8448
vn -0.2779 -0.2890 -0.9161
vn -0.2889 -0.0976 -0.9524
vn -0.0286 -0.9951 -0.0942
vn -0.0846 -0.9565 -0.2790
vn -0.0938 -0.2890 -0.9527
vn -0.0975 -0.0976 -0.9904
vn -0.0097 -0.9951 -0.0980
vn -0.0286 -0.9565 -0.2902
vn -0.0464 -0.8810 -0.4709
vn -0.0624 -0.7715 -0.6332
vn -0.0759 -0.6326 -0.7708
vn -0.0865 -0.4696 -0.8786
vn 0.0624 -0.7715 -0.6332
vn 0.0759 -0.6326 -0.7708
vn 0.0865 -0.4696 -0.8786
vn 0.0938 -0.2890 -0.9527
vn 0.0976 -0.0976 -0.9904
vn 0.0097 -0.9951 -0.0980
vn 0.0286 -0.9565 -0.2902
vn 0.0464 -0.8810 -0.4709
vn 0.2889 -0.0976 -0.9524
vn 0.0286 -0.9951 -0.0942
vn 0.0846 -0.9565 -0.2790
vn 0.1374 -0.8810 -0.4528
vn 0.1847 -0.7715 -0.6088
vn 0.2248 -0.6326 -0.7412
vn 0.2563 -0.4696 -0.8448
vn 0.2779 -0.2890 -0.9161
vn 0.3651 -0.6326 -0.6831
vn 0.4162 -0.4696 -0.7786
vn 0.4513 -0.2890 -0.8443
vn 0.4691 -0.0976 -0.8777
vn 0.0464 -0.9951 -0.0869
vn 0.1374 -0.9565 -0.2571
vn 0.2230 -0.8810 -0.4173
vn 0.2999 -0.7715 -0.5611
vn 0.0625 -0.9951 -0.0761
vn 0.1850 -0.9565 -0.2254
vn 0.3002 -0.8810 -0.3658
vn 0.4036 -0.7715 -0.4918
vn 0.4913 -0.6326 -0.5987
vn 0.5601 -0.4696 -0.6825
vn 0.6073 -0.2890 -0.7400
vn 0.6314 -0.0976 -0.7693
vn 0.5987 -0.6326 -0.4913
vn 0.6825 -0.4696 -0.5601
vn 0.7400 -0.2890 -0.6073
vn 0.7693 -0.0976 -0.6314
vn 0.0761 -0.9951 -0.0625
vn 0.2254 -0.9565 -0.1850
vn 0.3658 -0.8810 -0.3002
vn 0.4918 -0.7715 -0.4036
vn 0.2571 -0.9565 -0.1374
vn 0.4173 -0.8810 -0.2230
vn 0.5611 -0.7715 -0.2999
vn 0.6831 -0.6326 -0.3651
vn 0.7786 -0.4696 -0.4162
vn 0.8443 -0.2890 -0.4513
vn 0.8777 -0.0976 -0.4691
vn 0.0869 -0.9951 -0.0464
vn 0.8448 -0.4696 -0.2563
vn 0.9161 -0.2890 -0.2779
vn 0.9524 -0.0976 -0.2889
vn 0.0942 -0.9951 -0.0286
vn 0.2790 -0.9565 -0.0846
vn 0.4528 -0.8810 -0.1374
vn 0.6088 -0.7715 -0.1847
vn 0.7412 -0.6326 -0.2248
vn 0.2902 -0.9565 -0.0286
vn 0.4709 -0.8810 -0.0464
vn 0.6332 -0.7715 -0.0624
vn 0.7708 -0.6326 -0.0759
vn 0.8786 -0.4696 -0.0865
vn 0.9527 -0.2890 -0.0938
vn 0.9904 -0.0976 -0.0975
vn 0.0980 -0.9951 -0.0097
vn 0.8786 -0.4696 0.0865
vn 0.9527 -0.2890 0.0938
vn 0.9904 -0.0976 0.0976
vn 0.0980 -0.9951 0.0097
vn 0.2902 -0.9565 0.0286
vn 0.4709 -0.8810 0.0464
vn 0.6332 -0.7715 0.0624
vn 0.7708 -0.6326 0.0759
vn 0.4528 -0.8810 0.1374
vn 0.6088 -0.7715 0.1847
vn 0.7412 -0.6326 0.2248
vn 0.8448 -0.4696 0.2563
vn 0.9161 -0.2890 0.2779
vn 0.9524 -0.0976 0.2889
vn 0.0942 -0.9951 0.0286
vn 0.2790 -0.9565 0.0846
vn 0.8443 -0.2890 0.4513
vn 0.8777 -0.0976 0.4691
vn 0.0869 -0.9951 0.0464
vn 0.2571 -0.9565 0.1374
vn 0.4173 -0.8810 0.2230
vn 0.5611 -0.7715 0.2999
vn 0.6831 -0.6326 0.3651
vn 0.7786 -0.4696 0.4162
vn 0.4918 -0.7715 0.4036
vn 0.5987 -0.6326 0.4913
vn 0.6825 -0.4696 0.5601
vn 0.7400 -0.2890 0.6073
vn 0.7693 -0.0976 0.6314
vn 0.0761 -0.9951 0.0625
vn 0.2254 -0.9565 0.1850
vn 0.3658 -0.8810 0.3002
vn 0.6314 -0.0976 0.7693
vn 0.0625 -0.9951 0.0761
vn 0.1850 -0.9565 0.2254
vn 0.3002 -0.8810 0.3658
vn 0.4036 -0.7715 0.4918
vn 0.4913 -0.6326 0.5987
vn 0.5601 -0.4696 0.6825
vn 0.6073 -0.2890 0.7400
vn 0.2999 -0.7715 0.5611
vn 0.3651 -0.6326 0.6831
vn 0.4162 -0.4696 0.7786
vn 0.4513 -0.2890 0.8443
vn 0.4691 -0.0976 0.8777
vn 0.0464 -0.9951 0.0869
vn 0.1374 -0.9565 0.2571
vn 0.2230 -0.8810 0.4173
vn 0.2889 -0.0976 0.9524
vn 0.0286 -0.9951 0.0942
vn 0.0846 -0.9565 0.2790
vn 0.1374 -0.8810 0.4528
vn 0.1847 -0.7715 0.6088
vn 0.2248 -0.6326 0.7412
vn 0.2563 -0.4696 0.8448
vn 0.2779 -0.2890 0.9161
vn 0.0759 -0.6326 0.7708
vn 0.0865 -0.4696 0.8786
vn 0.0938 -0.2890 0.9527
vn 0.0975 -0.0976 0.9904
vn 0.0097 -0.9951 0.0980
vn 0.0286 -0.9565 0.2902
vn 0.0464 -0.8810 0.4709
vn 0.0624 -0.7715 0.6332
usemtl Material.001
s off
f 253/1/1 4/2/1 3/3/1 252/4/1
f 254/5/2 5/6/2 4/2/2 253/1/2
f 255/7/3 6/8/3 5/6/3 254/5/3
f 256/9/4 7/10/4 6/8/4 255/7/4
f 257/11/5 8/12/5 7/10/5 256/9/5
f 250/13/6 1/14/6 137/15/6
f 251/16/7 2/17/7 1/14/7 250/13/7
f 252/18/8 3/19/8 2/17/8 251/16/8
f 3/19/9 11/20/9 10/21/9 2/17/9
f 4/2/10 12/22/10 11/23/10 3/3/10
f 5/6/11 13/24/11 12/22/11 4/2/11
f 6/8/12 14/25/12 13/24/12 5/6/12
f 7/10/13 15/26/13 14/25/13 6/8/13
f 8/12/14 16/27/14 15/26/14 7/10/14
f 1/14/15 9/28/15 137/15/15
f 2/17/16 10/21/16 9/28/16 1/14/16
f 15/26/17 23/29/17 22/30/17 14/25/17
f 16/27/18 24/31/18 23/29/18 15/26/18
f 9/28/19 17/32/19 137/15/19
f 10/21/20 18/33/20 17/32/20 9/28/20
f 11/20/21 19/34/21 18/33/21 10/21/21
f 12/22/22 20/35/22 19/36/22 11/23/22
f 13/24/23 21/37/23 20/35/23 12/22/23
f 14/25/24 22/30/24 21/37/24 13/24/24
f 20/38/25 28/39/25 27/40/25 19/34/25
f 21/37/26 29/41/26 28/42/26 20/35/26
f 22/30/27 30/43/27 29/41/27 21/37/27
f 23/29/28 31/44/28 30/43/28 22/30/28
f 24/31/29 32/45/29 31/44/29 23/29/29
f 17/32/30 25/46/30 137/15/30
f 18/33/31 26/47/31 25/46/31 17/32/31
f 19/34/32 27/40/32 26/47/32 18/33/32
f 32/45/33 40/48/33 39/49/33 31/44/33
f 25/46/34 33/50/34 137/15/34
f 26/47/35 34/51/35 33/50/35 25/46/35
f 27/40/36 35/52/36 34/51/36 26/47/36
f 28/39/37 36/53/37 35/52/37 27/40/37
f 29/41/38 37/54/38 36/55/38 28/42/38
f 30/43/39 38/56/39 37/54/39 29/41/39
f 31/44/40 39/49/40 38/56/40 30/43/40
f 36/53/41 44/57/41 43/58/41 35/52/41
f 37/59/42 45/60/42 44/61/42 36/62/42
f 38/63/43 46/64/43 45/60/43 37/59/43
f 39/65/44 47/66/44 46/64/44 38/63/44
f 40/67/45 48/68/45 47/66/45 39/65/45
f 33/50/46 41/69/46 137/15/46
f 34/51/47 42/70/47 41/69/47 33/50/47
f 35/52/48 43/58/48 42/70/48 34/51/48
f 48/68/49 56/71/49 55/72/49 47/66/49
f 41/69/50 49/73/50 137/15/50
f 42/70/51 50/74/51 49/73/51 41/69/51
f 43/58/52 51/75/52 50/74/52 42/70/52
f 44/57/53 52/76/53 51/75/53 43/58/53
f 45/60/54 53/77/54 52/78/54 44/61/54
f 46/64/55 54/79/55 53/77/55 45/60/55
f 47/66/56 55/72/56 54/79/56 46/64/56
f 53/77/57 61/80/57 60/81/57 52/78/57
f 54/79/58 62/82/58 61/80/58 53/77/58
f 55/72/59 63/83/59 62/82/59 54/79/59
f 56/71/60 64/84/60 63/83/60 55/72/60
f 49/73/61 57/85/61 137/15/61
f 50/74/62 58/86/62 57/85/62 49/73/62
f 51/75/63 59/87/63 58/86/63 50/74/63
f 52/76/64 60/88/64 59/87/64 51/75/64
f 58/86/65 66/89/65 65/90/65 57/85/65
f 59/87/66 67/91/66 66/89/66 58/86/66
f 60/81/67 68/92/67 67/93/67 59/94/67
f 61/80/68 69/95/68 68/92/68 60/81/68
f 62/82/69 70/96/69 69/95/69 61/80/69
f 63/83/70 71/97/70 70/96/70 62/82/70
f 64/84/71 72/98/71 71/97/71 63/83/71
f 57/85/72 65/90/72 137/15/72
f 70/96/73 78/99/73 77/100/73 69/95/73
f 71/97/74 79/101/74 78/99/74 70/96/74
f 72/98/75 80/102/75 79/101/75 71/97/75
f 65/90/76 73/103/76 137/15/76
f 66/89/77 74/104/77 73/103/77 65/90/77
f 67/91/78 75/105/78 74/104/78 66/89/78
f 68/92/79 76/106/79 75/107/79 67/93/79
f 69/95/80 77/100/80 76/106/80 68/92/80
f 74/104/81 82/108/81 81/109/81 73/103/81
f 75/105/82 83/110/82 82/108/82 74/104/82
f 76/106/83 84/111/83 83/112/83 75/107/83
f 77/100/84 85/113/84 84/111/84 76/106/84
f 78/99/85 86/114/85 85/113/85 77/100/85
f 79/101/86 87/115/86 86/114/86 78/99/86
f 80/102/87 88/116/87 87/115/87 79/101/87
f 73/103/88 81/109/88 137/15/88
f 86/114/89 94/117/89 93/118/89 85/113/89
f 87/115/90 95/119/90 94/117/90 86/114/90
f 88/116/91 96/120/91 95/119/91 87/115/91
f 81/109/92 89/121/92 137/15/92
f 82/108/93 90/122/93 89/121/93 81/109/93
f 83/110/94 91/123/94 90/122/94 82/108/94
f 84/111/95 92/124/95 91/125/95 83/112/95
f 85/113/96 93/118/96 92/124/96 84/111/96
f 91/123/97 99/126/97 98/127/97 90/122/97
f 92/128/98 100/129/98 99/126/98 91/123/98
f 93/118/99 101/130/99 100/131/99 92/124/99
f 94/117/100 102/132/100 101/130/100 93/118/100
f 95/119/101 103/133/101 102/132/101 94/117/101
f 96/120/102 104/134/102 103/133/102 95/119/102
f 89/121/103 97/135/103 137/15/103
f 90/122/104 98/127/104 97/135/104 89/121/104
f 103/136/105 111/137/105 110/138/105 102/139/105
f 104/140/106 112/141/106 111/137/106 103/136/106
f 97/135/107 105/142/107 137/15/107
f 98/127/108 106/143/108 105/142/108 97/135/108
f 99/126/109 107/144/109 106/143/109 98/127/109
f 100/129/110 108/145/110 107/144/110 99/126/110
f 101/146/111 109/147/111 108/148/111 100/149/111
f 102/139/112 110/138/112 109/147/112 101/146/112
f 107/144/113 115/150/113 114/151/113 106/143/113
f 108/145/114 116/152/114 115/150/114 107/144/114
f 109/147/115 117/153/115 116/154/115 108/148/115
f 110/138/116 118/155/116 117/153/116 109/147/116
f 111/137/117 119/156/117 118/155/117 110/138/117
f 112/141/118 120/157/118 119/156/118 111/137/118
f 105/142/119 113/158/119 137/15/119
f 106/143/120 114/151/120 113/158/120 105/142/120
f 119/156/121 127/159/121 126/160/121 118/155/121
f 120/157/122 128/161/122 127/159/122 119/156/122
f 113/158/123 121/162/123 137/15/123
f 114/151/124 122/163/124 121/162/124 113/158/124
f 115/150/125 123/164/125 122/163/125 114/151/125
f 116/154/126 124/165/126 123/166/126 115/167/126
f 117/153/127 125/168/127 124/165/127 116/154/127
f 118/155/128 126/160/128 125/168/128 117/153/128
f 124/165/129 132/169/129 131/170/129 123/166/129
f 125/168/130 133/171/130 132/169/130 124/165/130
f 126/160/131 134/172/131 133/171/131 125/168/131
f 127/159/132 135/173/132 134/172/132 126/160/132
f 128/161/133 136/174/133 135/173/133 127/159/133
f 121/162/134 129/175/134 137/15/134
f 122/163/135 130/176/135 129/175/135 121/162/135
f 123/164/136 131/177/136 130/176/136 122/163/136
f 136/174/137 145/178/137 144/179/137 135/173/137
f 129/175/138 138/180/138 137/15/138
f 130/176/139 139/181/139 138/180/139 129/175/139
f 131/177/140 140/182/140 139/181/140 130/176/140
f 132/169/141 141/183/141 140/184/141 131/170/141
f 133/171/142 142/185/142 141/183/142 132/169/142
f 134/172/143 143/186/143 142/185/143 133/171/143
f 135/173/144 144/179/144 143/186/144 134/172/144
f 142/185/145 150/187/145 149/188/145 141/183/145
f 143/186/146 151/189/146 150/187/146 142/185/146
f 144/179/147 152/190/147 151/189/147 143/186/147
f 145/178/148 153/191/148 152/190/148 144/179/148
f 138/180/149 146/192/149 137/15/149
f 139/181/150 147/193/150 146/192/150 138/180/150
f 140/182/151 148/194/151 147/193/151 139/181/151
f 141/183/152 149/188/152 148/195/152 140/184/152
f 146/192/153 154/196/153 137/15/153
f 147/193/154 155/197/154 154/196/154 146/192/154
f 148/194/155 156/198/155 155/197/155 147/193/155
f 149/188/156 157/199/156 156/200/156 148/195/156
f 150/187/157 158/201/157 157/199/157 149/188/157
f 151/189/158 159/202/158 158/201/158 150/187/158
f 152/190/159 160/203/159 159/202/159 151/189/159
f 153/191/160 161/204/160 160/203/160 152/190/160
f 158/201/161 166/205/161 165/206/161 157/199/161
f 159/202/162 167/207/162 166/205/162 158/201/162
f 160/203/163 168/208/163 167/207/163 159/202/163
f 161/204/164 169/209/164 168/208/164 160/203/164
f 154/196/165 162/210/165 137/15/165
f 155/197/166 163/211/166 162/210/166 154/196/166
f 156/198/167 164/212/167 163/211/167 155/197/167
f 157/213/168 165/214/168 164/212/168 156/198/168
f 163/211/169 171/215/169 170/216/169 162/210/169
f 164/212/170 172/217/170 171/215/170 163/211/170
f 165/214/171 173/218/171 172/217/171 164/212/171
f 166/219/172 174/220/172 173/221/172 165/222/172
f 167/207/173 175/223/173 174/224/173 166/205/173
f 168/208/174 176/225/174 175/223/174 167/207/174
f 169/226/175 177/227/175 176/228/175 168/229/175
f 162/210/176 170/216/176 137/15/176
f 175/230/177 183/231/177 182/232/177 174/220/177
f 176/228/178 184/233/178 183/231/178 175/230/178
f 177/227/179 185/234/179 184/233/179 176/228/179
f 170/216/180 178/235/180 137/15/180
f 171/215/181 179/236/181 178/235/181 170/216/181
f 172/217/182 180/237/182 179/236/182 171/215/182
f 173/218/183 181/238/183 180/237/183 172/217/183
f 174/220/184 182/232/184 181/239/184 173/221/184
f 179/236/185 187/240/185 186/241/185 178/235/185
f 180/237/186 188/242/186 187/240/186 179/236/186
f 181/239/187 189/243/187 188/244/187 180/245/187
f 182/232/188 190/246/188 189/243/188 181/239/188
f 183/231/189 191/247/189 190/246/189 182/232/189
f 184/233/190 192/248/190 191/247/190 183/231/190
f 185/234/191 193/249/191 192/248/191 184/233/191
f 178/235/192 186/241/192 137/15/192
f 191/247/193 199/250/193 198/251/193 190/246/193
f 192/248/194 200/252/194 199/250/194 191/247/194
f 193/249/195 201/253/195 200/252/195 192/248/195
f 186/241/196 194/254/196 137/15/196
f 187/240/197 195/255/197 194/254/197 186/241/197
f 188/242/198 196/256/198 195/255/198 187/240/198
f 189/243/199 197/257/199 196/258/199 188/244/199
f 190/246/200 198/251/200 197/257/200 189/243/200
f 196/256/201 204/259/201 203/260/201 195/255/201
f 197/257/202 205/261/202 204/262/202 196/258/202
f 198/251/203 206/263/203 205/261/203 197/257/203
f 199/250/204 207/264/204 206/263/204 198/251/204
f 200/252/205 208/265/205 207/264/205 199/250/205
f 201/253/206 209/266/206 208/265/206 200/252/206
f 194/254/207 202/267/207 137/15/207
f 195/255/208 203/260/208 202/267/208 194/254/208
f 208/265/209 216/268/209 215/269/209 207/264/209
f 209/266/210 217/270/210 216/268/210 208/265/210
f 202/267/211 210/271/211 137/15/211
f 203/260/212 211/272/212 210/271/212 202/267/212
f 204/259/213 212/273/213 211/272/213 203/260/213
f 205/261/214 213/274/214 212/275/214 204/262/214
f 206/263/215 214/276/215 213/274/215 205/261/215
f 207/264/216 215/269/216 214/276/216 206/263/216
f 213/274/217 221/277/217 220/278/217 212/275/217
f 214/276/218 222/279/218 221/277/218 213/274/218
f 215/269/219 223/280/219 222/279/219 214/276/219
f 216/268/220 224/281/220 223/280/220 215/269/220
f 217/270/221 225/282/221 224/281/221 216/268/221
f 210/271/222 218/283/222 137/15/222
f 211/272/223 219/284/223 218/283/223 210/271/223
f 212/273/224 220/285/224 219/284/224 211/272/224
f 225/282/225 233/286/225 232/287/225 224/281/225
f 218/283/226 226/288/226 137/15/226
f 219/284/227 227/289/227 226/288/227 218/283/227
f 220/285/228 228/290/228 227/289/228 219/284/228
f 221/291/229 229/292/229 228/290/229 220/285/229
f 222/279/230 230/293/230 229/294/230 221/277/230
f 223/280/231 231/295/231 230/293/231 222/279/231
f 224/281/232 232/287/232 231/295/232 223/280/232
f 229/292/233 237/296/233 236/297/233 228/290/233
f 230/298/234 238/299/234 237/300/234 229/301/234
f 231/302/235 239/303/235 238/299/235 230/298/235
f 232/304/236 240/305/236 239/303/236 231/302/236
f 233/306/237 241/307/237 240/305/237 232/304/237
f 226/288/238 234/308/238 137/15/238
f 227/289/239 235/309/239 234/308/239 226/288/239
f 228/290/240 236/297/240 235/309/240 227/289/240
f 241/307/241 249/310/241 248/311/241 240/305/241
f 234/308/242 242/312/242 137/15/242
f 235/309/243 243/313/243 242/312/243 234/308/243
f 236/297/244 244/314/244 243/313/244 235/309/244
f 237/296/245 245/315/245 244/314/245 236/297/245
f 238/299/246 246/316/246 245/317/246 237/300/246
f 239/303/247 247/318/247 246/316/247 238/299/247
f 240/305/248 248/311/248 247/318/248 239/303/248
f 246/316/249 254/5/249 253/1/249 245/317/249
f 247/318/250 255/7/250 254/5/250 246/316/250
f 248/311/251 256/9/251 255/7/251 247/318/251
f 249/310/252 257/11/252 256/9/252 248/311/252
f 242/312/253 250/13/253 137/15/253
f 243/313/254 251/16/254 250/13/254 242/312/254
f 244/314/255 252/18/255 251/16/255 243/313/255
f 245/317/256 253/1/256 252/4/256 244/319/256
