# Blender v2.79 (sub 0) OBJ File: ''
# www.blender.org
mtllib MDL_MAIblade.mtl
o Model001_p00g00o00g._0p
v 0.000000 -69.562317 -585.125000
v -12.250000 -142.812302 -524.812500
v 0.000000 -110.812317 -527.187500
v 0.000000 -125.249809 -568.875000
v -12.250000 -132.249802 -569.750000
v 0.000000 -110.999802 -613.687500
v -13.812500 -118.749802 -615.750000
v 0.000000 -92.499786 -642.937500
v -15.875000 -100.249794 -647.937500
v 0.000000 -70.437286 -666.875000
v -17.562500 -77.437286 -674.250000
v 0.000000 -42.812279 -677.875000
v -19.062500 -47.249779 -687.937500
v 0.000000 -14.562280 -681.937500
v -19.875000 -16.249777 -693.312500
v 0.000000 12.000219 -675.687500
v -20.750000 13.187721 -687.625000
v 0.000000 38.625217 -661.000000
v -21.187500 43.562721 -672.187500
v 0.000000 69.062698 -629.750000
v -21.500000 76.187714 -640.000000
v 0.000000 96.125183 -577.187500
v -22.375000 103.937698 -587.437500
v 0.000000 106.437683 -522.500000
v -22.375000 117.062683 -529.875000
v 0.000000 102.875175 -464.437469
v -22.375000 115.187675 -468.187469
v 0.000000 91.562637 -412.937500
v -22.375000 104.187668 -410.062469
v 0.000000 69.937607 -351.062500
v -22.375000 82.187607 -347.125000
v 0.000000 -10.062444 -165.312500
v -22.375000 2.312552 -161.875000
v 0.000000 -17.999960 -124.437500
v -22.375000 -5.062459 -124.437500
v 0.000000 -18.000002 15.812497
v -22.375000 -5.062504 15.812499
v -22.375000 20.687540 -124.437500
v -22.375000 20.687498 15.812504
v 0.000000 33.625038 -124.437492
v 0.000000 33.624996 15.812515
v 22.375000 20.687540 -124.437500
v 22.375000 20.687498 15.812504
v 22.375000 -5.062459 -124.437500
v 22.375000 -5.062504 15.812499
v 22.375000 2.312552 -161.875000
v 22.375000 82.187607 -347.125000
v 22.375000 104.187668 -410.062469
v 22.375000 115.187675 -468.187469
v 22.375000 117.062683 -529.875000
v 22.375000 103.937698 -587.437500
v 21.500000 76.187714 -640.000000
v 21.187500 43.562721 -672.187500
v 20.750000 13.187721 -687.625000
v 19.875000 -16.249777 -693.312500
v 19.062500 -47.249779 -687.937500
v 17.562500 -77.437286 -674.250000
v 15.875000 -100.249794 -647.937500
v 13.812500 -118.749802 -615.750000
v 12.250000 -132.249802 -569.750000
v 12.250000 -142.812302 -524.812500
v 0.000000 -164.124832 -413.625031
v 12.250000 -153.999802 -522.812500
v 0.000000 -161.062302 -523.687500
v -12.250000 -153.999802 -522.812500
v -12.250000 -146.374802 -571.500000
v -13.812500 -134.187286 -619.937500
v -15.875000 -115.687294 -657.937500
v -17.562500 -91.374779 -689.062500
v -19.062500 -56.062275 -708.062500
v -19.875000 -19.624763 -716.125000
v -20.750000 15.687737 -711.500000
v -21.187500 53.500225 -694.562500
v -21.500000 90.375214 -660.437500
v -22.375000 119.562698 -608.062500
v -22.375000 138.250198 -544.625000
v -22.375000 139.937683 -475.749969
v -22.375000 129.375168 -404.374969
v -22.375000 106.812653 -339.187469
v -22.375000 27.250044 -155.000000
v 0.000000 39.687542 -151.562500
v 22.375000 27.250044 -155.000000
v 22.375000 106.812653 -339.187469
v 22.375000 129.375168 -404.374969
v 22.375000 139.937683 -475.749969
v 22.375000 138.250198 -544.625000
v 22.375000 119.562698 -608.062500
v 21.500000 90.375214 -660.437500
v 21.187500 53.500225 -694.562500
v 20.750000 15.687737 -711.500000
v 19.875000 -19.624763 -716.125000
v 19.062500 -56.062275 -708.062500
v 17.562500 -91.374779 -689.062500
v 15.875000 -115.687294 -657.937500
v 13.812500 -134.187286 -619.937500
v 12.250000 -146.374802 -571.500000
v 0.000000 -153.437302 -572.375000
v 0.000000 -141.937286 -622.000000
v 0.000000 -123.374794 -662.937500
v 0.000000 -98.312279 -696.437500
v 0.000000 -60.499763 -718.125000
v 0.000000 -21.374762 -727.500000
v 0.000000 16.937738 -723.437500
v 0.000000 58.437725 -705.750000
v 0.000000 97.437714 -670.687500
v 0.000000 127.375198 -618.312500
v 0.000000 148.875198 -552.062500
v 0.000000 152.312683 -479.499969
v 0.000000 142.000168 -401.499969
v 0.000000 119.062653 -335.187469
v -32.875000 7.874976 73.250000
v -28.437500 7.874982 56.812500
v -50.250000 36.937481 44.250019
v -58.000000 36.937477 73.250015
v -72.000000 22.374985 31.687504
v -83.125000 22.374979 73.250000
v -72.000000 -6.562510 31.687498
v -83.125000 -6.562524 73.250000
v -50.250000 -21.062517 44.249996
v -58.000000 -21.062521 73.250000
v -28.437500 7.874982 56.812500
v -32.875000 7.874976 73.250000
v -50.250000 -21.062536 102.250000
v -28.437500 7.874970 89.687500
v -29.000000 -21.062540 123.500000
v -16.437500 7.874966 101.750000
v 0.000000 -21.062540 131.312500
v 0.000000 7.874966 106.187500
v 29.000000 -21.062540 123.500000
v 16.437500 7.874966 101.750000
v 50.250000 -21.062536 102.250000
v 28.437500 7.874970 89.687500
v 58.000000 -21.062521 73.250000
v 32.875000 7.874976 73.250000
v 50.250000 -21.062517 44.249996
v 28.437500 7.874982 56.812500
v 29.000000 -21.062504 22.999996
v 16.437500 7.874986 44.750000
v 0.000000 -21.062502 15.249996
v 0.000000 7.874986 40.375000
v -29.000000 -21.062504 22.999996
v -16.437500 7.874986 44.750000
v -28.437500 7.874982 56.812500
v -50.250000 -21.062517 44.249996
v -41.562500 -6.562500 1.249998
v -72.000000 -6.562510 31.687498
v -41.562500 22.375000 1.250008
v -72.000000 22.374985 31.687504
v -29.000000 36.937496 23.000015
v -50.250000 36.937481 44.250019
v -28.437500 7.874982 56.812500
v -16.437500 7.874986 44.750000
v 0.000000 36.937496 15.250015
v 0.000000 7.874986 40.375000
v 29.000000 36.937496 23.000015
v 16.437500 7.874986 44.750000
v 50.250000 36.937481 44.250019
v 28.437500 7.874982 56.812500
v 58.000000 36.937477 73.250015
v 32.875000 7.874976 73.250000
v 50.250000 36.937466 102.250008
v 28.437500 7.874970 89.687500
v 29.000000 36.937462 123.500008
v 16.437500 7.874966 101.750000
v 0.000000 36.937458 131.312500
v 0.000000 7.874966 106.187500
v -29.000000 36.937462 123.500008
v -16.437500 7.874966 101.750000
v -50.250000 36.937466 102.250008
v -28.437500 7.874970 89.687500
v -72.000000 22.374962 114.875000
v -72.000000 -6.562538 114.875000
v -41.562500 -6.562548 145.312500
v 0.000000 -6.562550 156.437500
v 41.562500 -6.562548 145.312500
v 72.000000 -6.562538 114.875000
v 83.125000 -6.562524 73.250000
v 72.000000 -6.562510 31.687498
v 41.562500 -6.562500 1.249998
v 0.000000 -6.562498 -9.875002
v 0.000000 22.375002 -9.874992
v 41.562500 22.375000 1.250008
v 72.000000 22.374985 31.687504
v 83.125000 22.374979 73.250000
v 72.000000 22.374962 114.875000
v 41.562500 22.374958 145.312500
v 0.000000 22.374956 156.437500
v -41.562500 22.374958 145.312500
vt 3.260742 3.633545
vt 3.333008 3.896729
vt 3.330811 3.778809
vt 3.281250 3.812500
vt 3.278564 3.866211
vt 3.228760 3.772217
vt 3.222900 3.826660
vt 3.197021 3.723145
vt 3.183838 3.772461
vt 3.171143 3.662109
vt 3.151855 3.705811
vt 3.158203 3.593262
vt 3.135498 3.617432
vt 3.155029 3.517578
vt 3.128906 3.527100
vt 3.163086 3.447510
vt 3.135742 3.440674
vt 3.179688 3.378662
vt 3.154541 3.351807
vt 3.218262 3.298340
vt 3.193359 3.256592
vt 3.281982 3.221191
vt 3.257080 3.175537
vt 3.343750 3.196045
vt 3.326904 3.137207
vt 3.410156 3.210938
vt 3.401367 3.142578
vt 3.465820 3.237793
vt 3.471924 3.174805
vt 3.540039 3.299316
vt 3.548096 3.239014
vt 3.764893 3.537354
vt 3.772461 3.472412
vt 3.817627 3.567871
vt 3.817627 3.494385
vt 3.987549 3.567871
vt 3.987549 3.494385
vt 3.817627 3.418701
vt 3.987549 3.418701
vt 3.817627 3.345215
vt 3.987549 3.345215
vt 3.817627 3.418701
vt 3.987549 3.418701
vt 3.817627 3.494385
vt 3.987549 3.494385
vt 3.772461 3.472412
vt 3.548096 3.239014
vt 3.471924 3.174805
vt 3.401367 3.142578
vt 3.326904 3.137207
vt 3.257080 3.175537
vt 3.193359 3.256592
vt 3.154541 3.351807
vt 3.135742 3.440674
vt 3.128906 3.527100
vt 3.135498 3.617432
vt 3.151855 3.705811
vt 3.183838 3.772461
vt 3.222900 3.826660
vt 3.278564 3.866211
vt 3.333008 3.896729
vt 3.467529 3.959229
vt 3.335449 3.929688
vt 3.334229 3.976807
vt 3.335449 3.929688
vt 3.276367 3.907227
vt 3.217773 3.871826
vt 3.171631 3.817627
vt 3.138184 3.746582
vt 3.114990 3.643311
vt 3.105469 3.536865
vt 3.108643 3.433350
vt 3.127441 3.322998
vt 3.168701 3.215332
vt 3.232178 3.129883
vt 3.308838 3.075195
vt 3.392334 3.070312
vt 3.478760 3.101074
vt 3.557617 3.167236
vt 3.780762 3.399658
vt 3.788086 3.334717
vt 3.780762 3.399658
vt 3.557617 3.167236
vt 3.478760 3.101074
vt 3.392334 3.070312
vt 3.308838 3.075195
vt 3.232178 3.129883
vt 3.168701 3.215332
vt 3.127441 3.322998
vt 3.108643 3.433350
vt 3.105469 3.536865
vt 3.114990 3.643311
vt 3.138184 3.746582
vt 3.171631 3.817627
vt 3.217773 3.871826
vt 3.276367 3.907227
vt 3.273682 3.958984
vt 3.211670 3.926025
vt 3.158447 3.866943
vt 3.125488 3.790039
vt 3.098877 3.667725
vt 3.085693 3.546387
vt 3.086914 3.426514
vt 3.102295 3.296143
vt 3.143799 3.173584
vt 3.207275 3.083984
vt 3.291992 3.016357
vt 3.383789 3.001709
vt 3.484619 3.038086
vt 3.565674 3.106689
vt 3.948730 3.601074
vt 3.991211 3.601074
vt 3.991211 3.688965
vt 3.948730 3.688965
vt 3.990967 3.729980
vt 3.948730 3.729980
vt 3.991211 3.784180
vt 3.948730 3.784180
vt 3.991211 3.842529
vt 3.948730 3.842529
vt 3.991211 3.938721
vt 3.948730 3.938721
vt 3.906494 3.842529
vt 3.906494 3.938721
vt 3.864014 3.842529
vt 3.864014 3.938721
vt 3.821777 3.842529
vt 3.821777 3.938721
vt 3.779297 3.842529
vt 3.779297 3.938721
vt 3.737061 3.842529
vt 3.737061 3.938721
vt 3.694580 3.842529
vt 3.694580 3.938721
vt 3.652344 3.842529
vt 3.652344 3.938721
vt 3.609863 3.842529
vt 3.609863 3.938721
vt 3.567627 3.842529
vt 3.567627 3.938721
vt 3.525146 3.842529
vt 3.525146 3.938721
vt 3.482910 3.938721
vt 3.482910 3.842529
vt 3.525146 3.784180
vt 3.482910 3.784180
vt 3.525146 3.729980
vt 3.482910 3.729980
vt 3.525146 3.688965
vt 3.482910 3.688965
vt 3.482910 3.601074
vt 3.525146 3.601074
vt 3.567627 3.688965
vt 3.567627 3.601074
vt 3.609863 3.688965
vt 3.609863 3.601074
vt 3.652344 3.688965
vt 3.652344 3.601074
vt 3.694580 3.688965
vt 3.694580 3.601074
vt 3.737061 3.688965
vt 3.737061 3.601074
vt 3.779297 3.688965
vt 3.779297 3.601074
vt 3.821777 3.688965
vt 3.821777 3.601074
vt 3.864014 3.688965
vt 3.864014 3.601074
vt 3.906494 3.688965
vt 3.906494 3.601074
vt 3.906494 3.729980
vt 3.906494 3.784180
vt 3.864014 3.784180
vt 3.821777 3.784180
vt 3.779297 3.784180
vt 3.737061 3.784180
vt 3.694580 3.784180
vt 3.652344 3.784180
vt 3.609863 3.784180
vt 3.567627 3.784180
vt 3.567627 3.729980
vt 3.609863 3.729980
vt 3.652344 3.729980
vt 3.694580 3.729980
vt 3.737061 3.729980
vt 3.779297 3.729980
vt 3.821777 3.729980
vt 3.864014 3.729980
vn 0.0000 0.9890 -0.1482
vn -0.9583 0.2743 0.0805
vn 0.0000 0.8611 0.5085
vn -0.0000 0.9947 0.1024
vn -0.8649 0.4805 0.1453
vn -0.0000 0.9240 0.3823
vn -0.8637 0.4376 0.2503
vn 0.0000 0.8135 0.5816
vn -0.8635 0.3733 0.3392
vn 0.0000 0.6268 0.7792
vn -0.8642 0.2336 0.4456
vn 0.0000 0.3024 0.9532
vn -0.8630 0.0968 0.4959
vn 0.0000 0.0224 0.9997
vn -0.8646 -0.0622 0.4986
vn 0.0000 -0.3095 0.9509
vn -0.8624 -0.2071 0.4619
vn -0.0000 -0.5594 0.8289
vn -0.8643 -0.3234 0.3853
vn 0.0000 -0.7789 0.6271
vn -0.8591 -0.4313 0.2754
vn 0.0000 -0.9294 0.3691
vn -0.8497 -0.5059 0.1483
vn -0.0000 -0.9933 0.1155
vn -0.8549 -0.5183 0.0222
vn -0.0000 -0.9947 -0.1026
vn -0.8599 -0.5052 -0.0737
vn -0.0000 -0.9698 -0.2437
vn -0.8663 -0.4791 -0.1412
vn -0.0000 -0.9360 -0.3521
vn -0.8651 -0.4651 -0.1876
vn -0.0000 -0.9443 -0.3291
vn -0.8656 -0.4833 -0.1308
vn -0.0000 -0.9917 -0.1287
vn -0.8664 -0.4983 -0.0324
vn 0.0000 -1.0000 -0.0000
vn -0.9450 -0.3271 -0.0000
vn -0.8663 0.4944 0.0717
vn -0.7562 0.6543 0.0000
vn -0.0002 0.9941 0.1085
vn 0.1892 0.9819 0.0000
vn 0.8034 0.5940 0.0420
vn 0.9450 0.3271 0.0000
vn 0.9045 -0.4255 -0.0277
vn 0.8662 -0.4997 -0.0000
vn 0.8656 -0.4833 -0.1308
vn 0.8651 -0.4651 -0.1876
vn 0.8663 -0.4791 -0.1412
vn 0.8599 -0.5052 -0.0737
vn 0.8549 -0.5183 0.0222
vn 0.8497 -0.5059 0.1483
vn 0.8591 -0.4313 0.2754
vn 0.8643 -0.3234 0.3853
vn 0.8624 -0.2071 0.4619
vn 0.8646 -0.0622 0.4986
vn 0.8630 0.0968 0.4959
vn 0.8642 0.2336 0.4456
vn 0.8635 0.3733 0.3392
vn 0.8637 0.4376 0.2503
vn 0.8012 0.5728 0.1731
vn 0.9700 0.2332 0.0684
vn -0.0000 -0.8802 0.4746
vn 0.8070 -0.5891 -0.0411
vn -0.0000 -0.9958 -0.0914
vn -0.8691 -0.4934 -0.0345
vn -0.8665 -0.4912 -0.0889
vn -0.9172 -0.3863 -0.0980
vn -0.8642 -0.4546 -0.2158
vn -0.8666 -0.3719 -0.3327
vn -0.8653 -0.2202 -0.4502
vn -0.8667 -0.0726 -0.4936
vn -0.8656 0.0965 -0.4914
vn -0.8652 0.2454 -0.4373
vn -0.8634 0.3722 -0.3406
vn -0.8538 0.4700 -0.2240
vn -0.8527 0.5112 -0.1077
vn -0.8560 0.5168 0.0130
vn -0.8632 0.4944 0.1019
vn -0.8657 0.4688 0.1754
vn -0.8662 0.4706 0.1679
vn -0.1129 0.9511 0.2874
vn 0.8217 0.5424 0.1748
vn 0.9175 0.3708 0.1440
vn 0.8666 0.4808 0.1336
vn 0.8621 0.5049 0.0429
vn 0.8588 0.5087 -0.0607
vn 0.8562 0.4804 -0.1902
vn 0.8625 0.4078 -0.2995
vn 0.8668 0.2905 -0.4054
vn 0.8671 0.1440 -0.4768
vn 0.8681 -0.0159 -0.4962
vn 0.8671 -0.1753 -0.4663
vn 0.8679 -0.3218 -0.3785
vn 0.8647 -0.4372 -0.2475
vn 0.8658 -0.4769 -0.1514
vn 0.9046 -0.4195 -0.0759
vn -0.0000 -0.9839 -0.1785
vn -0.0819 -0.9483 -0.3067
vn 0.0006 -0.8612 -0.5083
vn 0.0004 -0.6623 -0.7492
vn -0.0020 -0.3674 -0.9301
vn -0.0011 -0.0618 -0.9981
vn -0.0019 0.2556 -0.9668
vn -0.0025 0.5412 -0.8409
vn 0.0024 0.7806 -0.6250
vn -0.0030 0.9168 -0.3993
vn -0.0112 0.9852 -0.1709
vn -0.0112 0.9988 0.0483
vn -0.0063 0.9726 0.2324
vn 0.0819 0.9271 0.3658
vn 0.9918 0.1220 -0.0378
vn 0.8399 -0.1237 0.5285
vn 0.3023 0.9462 0.1153
vn -0.1066 0.9943 0.0000
vn -0.6518 0.6585 -0.3762
vn -0.9430 0.3329 -0.0001
vn -0.8165 -0.3334 -0.4713
vn -0.7983 -0.6014 -0.0311
vn -0.0917 -0.9944 -0.0530
vn 0.1603 -0.9844 0.0726
vn 0.1749 -0.9844 -0.0179
vn 0.8258 -0.1714 -0.5373
vn 0.1434 -0.9843 -0.1026
vn 0.5018 -0.0009 -0.8650
vn 0.0726 -0.9844 -0.1605
vn -0.0000 -0.0012 -1.0000
vn -0.0182 -0.9843 -0.1754
vn -0.5012 -0.0013 -0.8653
vn -0.1029 -0.9844 -0.1425
vn -0.8661 -0.0012 -0.4998
vn -0.1602 -0.9844 -0.0726
vn -1.0000 -0.0009 -0.0002
vn -0.1747 -0.9845 0.0176
vn -0.8662 -0.0012 0.4998
vn -0.1432 -0.9844 0.1025
vn -0.5003 -0.0010 0.8659
vn -0.0512 -0.9463 0.3193
vn 0.0000 -0.0012 1.0000
vn 0.1592 -0.9611 0.2258
vn 0.4466 0.1695 0.8785
vn -0.4094 -0.5063 -0.7590
vn -0.5092 0.4025 -0.7607
vn 0.0543 0.9983 0.0194
vn 0.0724 0.9844 0.1606
vn -0.1149 0.9460 0.3030
vn -0.1322 0.9869 0.0924
vn -0.8661 -0.0012 0.4998
vn -0.1607 0.9869 0.0147
vn -0.1463 0.9869 -0.0683
vn -0.8662 -0.0012 -0.4998
vn -0.0935 0.9868 -0.1322
vn -0.5012 -0.0013 -0.8654
vn -0.0148 0.9868 -0.1610
vn 0.0686 0.9868 -0.1467
vn 0.2514 0.9609 -0.1163
vn -0.7075 0.6007 0.3723
vn -0.7914 -0.4338 0.4307
vn -0.4258 -0.6019 0.6756
vn -0.0768 -0.5051 0.8596
vn 0.3633 -0.5053 0.7828
vn 0.7061 -0.5053 0.4961
vn 0.8597 -0.5050 0.0765
vn 0.7830 -0.5050 -0.3632
vn 0.4963 -0.5050 -0.7062
vn 0.0433 -0.5749 -0.8171
vn -0.0767 0.5042 -0.8602
vn 0.3712 0.5740 -0.7299
vn 0.7347 0.5055 -0.4525
vn 0.8625 0.5055 -0.0248
vn 0.7593 0.5058 0.4095
vn 0.4526 0.5058 0.7344
vn 0.0245 0.5056 0.8624
vn -0.4698 0.4332 0.7692
usemtl Model001_Material001
s 1
f 1/1/1 2/2/2 3/3/3
f 2/2/2 1/1/1 4/4/4
f 4/4/4 5/5/5 2/2/2
f 5/5/5 4/4/4 6/6/6
f 6/6/6 7/7/7 5/5/5
f 7/7/7 6/6/6 8/8/8
f 8/8/8 9/9/9 7/7/7
f 9/9/9 8/8/8 10/10/10
f 10/10/10 11/11/11 9/9/9
f 11/11/11 10/10/10 12/12/12
f 12/12/12 13/13/13 11/11/11
f 13/13/13 12/12/12 14/14/14
f 14/14/14 15/15/15 13/13/13
f 15/15/15 14/14/14 16/16/16
f 16/16/16 17/17/17 15/15/15
f 17/17/17 16/16/16 18/18/18
f 18/18/18 19/19/19 17/17/17
f 19/19/19 18/18/18 20/20/20
f 20/20/20 21/21/21 19/19/19
f 21/21/21 20/20/20 22/22/22
f 22/22/22 23/23/23 21/21/21
f 23/23/23 22/22/22 24/24/24
f 24/24/24 25/25/25 23/23/23
f 25/25/25 24/24/24 26/26/26
f 26/26/26 27/27/27 25/25/25
f 27/27/27 26/26/26 28/28/28
f 28/28/28 29/29/29 27/27/27
f 29/29/29 28/28/28 30/30/30
f 30/30/30 31/31/31 29/29/29
f 31/31/31 30/30/30 32/32/32
f 32/32/32 33/33/33 31/31/31
f 33/33/33 32/32/32 34/34/34
f 34/34/34 35/35/35 33/33/33
f 35/35/35 34/34/34 36/36/36
f 35/35/35 36/36/36 37/37/37
f 37/37/37 38/38/38 35/35/35
f 38/38/38 37/37/37 39/39/39
f 39/39/39 40/40/40 38/38/38
f 40/40/40 39/39/39 41/41/41
f 41/41/41 42/42/42 40/40/40
f 42/42/42 41/41/41 43/43/43
f 43/43/43 44/44/44 42/42/42
f 44/44/44 43/43/43 45/45/45
f 44/44/44 45/45/45 36/36/36
f 44/44/44 36/36/36 34/34/34
f 34/34/34 46/46/46 44/44/44
f 46/46/46 34/34/34 32/32/32
f 32/32/32 47/47/47 46/46/46
f 47/47/47 32/32/32 30/30/30
f 30/30/30 48/48/48 47/47/47
f 48/48/48 30/30/30 28/28/28
f 28/28/28 49/49/49 48/48/48
f 49/49/49 28/28/28 26/26/26
f 26/26/26 50/50/50 49/49/49
f 50/50/50 26/26/26 24/24/24
f 24/24/24 51/51/51 50/50/50
f 51/51/51 24/24/24 22/22/22
f 22/22/22 52/52/52 51/51/51
f 52/52/52 22/22/22 20/20/20
f 20/20/20 53/53/53 52/52/52
f 53/53/53 20/20/20 18/18/18
f 18/18/18 54/54/54 53/53/53
f 54/54/54 18/18/18 16/16/16
f 16/16/16 55/55/55 54/54/54
f 55/55/55 16/16/16 14/14/14
f 14/14/14 56/56/56 55/55/55
f 56/56/56 14/14/14 12/12/12
f 12/12/12 57/57/57 56/56/56
f 57/57/57 12/12/12 10/10/10
f 10/10/10 58/58/58 57/57/57
f 58/58/58 10/10/10 8/8/8
f 8/8/8 59/59/59 58/58/58
f 59/59/59 8/8/8 6/6/6
f 6/6/6 60/60/60 59/59/59
f 60/60/60 6/6/6 4/4/4
f 4/4/4 61/61/61 60/60/60
f 61/61/61 4/4/4 1/1/1
f 61/61/61 1/1/1 3/3/3
f 61/61/61 3/3/3 62/62/62
f 62/62/62 63/63/63 61/61/61
f 62/62/62 64/64/64 63/63/63
f 62/62/62 65/65/65 64/64/64
f 62/62/62 2/2/2 65/65/65
f 2/2/2 62/62/62 3/3/3
f 65/65/65 2/2/2 5/5/5
f 5/5/5 66/66/66 65/65/65
f 66/66/66 5/5/5 7/7/7
f 7/7/7 67/67/67 66/66/66
f 67/67/67 7/7/7 9/9/9
f 9/9/9 68/68/68 67/67/67
f 68/68/68 9/9/9 11/11/11
f 11/11/11 69/69/69 68/68/68
f 69/69/69 11/11/11 13/13/13
f 13/13/13 70/70/70 69/69/69
f 70/70/70 13/13/13 15/15/15
f 15/15/15 71/71/71 70/70/70
f 71/71/71 15/15/15 17/17/17
f 17/17/17 72/72/72 71/71/71
f 72/72/72 17/17/17 19/19/19
f 19/19/19 73/73/73 72/72/72
f 73/73/73 19/19/19 21/21/21
f 21/21/21 74/74/74 73/73/73
f 74/74/74 21/21/21 23/23/23
f 23/23/23 75/75/75 74/74/74
f 75/75/75 23/23/23 25/25/25
f 25/25/25 76/76/76 75/75/75
f 76/76/76 25/25/25 27/27/27
f 27/27/27 77/77/77 76/76/76
f 77/77/77 27/27/27 29/29/29
f 29/29/29 78/78/78 77/77/77
f 78/78/78 29/29/29 31/31/31
f 31/31/31 79/79/79 78/78/78
f 79/79/79 31/31/31 33/33/33
f 33/33/33 80/80/80 79/79/79
f 80/80/80 33/33/33 35/35/35
f 80/80/80 35/35/35 38/38/38
f 38/38/38 81/81/81 80/80/80
f 81/81/81 38/38/38 40/40/40
f 40/40/40 82/82/82 81/81/81
f 82/82/82 40/40/40 42/42/42
f 82/82/82 42/42/42 44/44/44
f 82/82/82 44/44/44 46/46/46
f 46/46/46 83/83/83 82/82/82
f 83/83/83 46/46/46 47/47/47
f 47/47/47 84/84/84 83/83/83
f 84/84/84 47/47/47 48/48/48
f 48/48/48 85/85/85 84/84/84
f 85/85/85 48/48/48 49/49/49
f 49/49/49 86/86/86 85/85/85
f 86/86/86 49/49/49 50/50/50
f 50/50/50 87/87/87 86/86/86
f 87/87/87 50/50/50 51/51/51
f 51/51/51 88/88/88 87/87/87
f 88/88/88 51/51/51 52/52/52
f 52/52/52 89/89/89 88/88/88
f 89/89/89 52/52/52 53/53/53
f 53/53/53 90/90/90 89/89/89
f 90/90/90 53/53/53 54/54/54
f 54/54/54 91/91/91 90/90/90
f 91/91/91 54/54/54 55/55/55
f 55/55/55 92/92/92 91/91/91
f 92/92/92 55/55/55 56/56/56
f 56/56/56 93/93/93 92/92/92
f 93/93/93 56/56/56 57/57/57
f 57/57/57 94/94/94 93/93/93
f 94/94/94 57/57/57 58/58/58
f 58/58/58 95/95/95 94/94/94
f 95/95/95 58/58/58 59/59/59
f 59/59/59 96/96/96 95/95/95
f 96/96/96 59/59/59 60/60/60
f 96/96/96 60/60/60 61/61/61
f 96/96/96 61/61/61 63/63/63
f 63/63/63 97/97/97 96/96/96
f 97/97/97 63/63/63 64/64/64
f 97/97/97 64/64/64 65/65/65
f 97/97/97 65/65/65 66/66/66
f 97/97/97 66/66/66 98/98/98
f 98/98/98 96/96/96 97/97/97
f 98/98/98 95/95/95 96/96/96
f 95/95/95 98/98/98 99/99/99
f 99/99/99 94/94/94 95/95/95
f 94/94/94 99/99/99 100/100/100
f 100/100/100 93/93/93 94/94/94
f 93/93/93 100/100/100 101/101/101
f 101/101/101 92/92/92 93/93/93
f 92/92/92 101/101/101 102/102/102
f 102/102/102 91/91/91 92/92/92
f 91/91/91 102/102/102 103/103/103
f 103/103/103 90/90/90 91/91/91
f 90/90/90 103/103/103 104/104/104
f 104/104/104 89/89/89 90/90/90
f 89/89/89 104/104/104 105/105/105
f 105/105/105 88/88/88 89/89/89
f 88/88/88 105/105/105 106/106/106
f 106/106/106 87/87/87 88/88/88
f 87/87/87 106/106/106 107/107/107
f 107/107/107 86/86/86 87/87/87
f 86/86/86 107/107/107 108/108/108
f 108/108/108 85/85/85 86/86/86
f 85/85/85 108/108/108 109/109/109
f 109/109/109 84/84/84 85/85/85
f 84/84/84 109/109/109 110/110/110
f 110/110/110 83/83/83 84/84/84
f 110/110/110 82/82/82 83/83/83
f 110/110/110 81/81/81 82/82/82
f 110/110/110 80/80/80 81/81/81
f 110/110/110 79/79/79 80/80/80
f 79/79/79 110/110/110 109/109/109
f 109/109/109 78/78/78 79/79/79
f 78/78/78 109/109/109 108/108/108
f 108/108/108 77/77/77 78/78/78
f 77/77/77 108/108/108 107/107/107
f 107/107/107 76/76/76 77/77/77
f 76/76/76 107/107/107 106/106/106
f 106/106/106 75/75/75 76/76/76
f 75/75/75 106/106/106 105/105/105
f 105/105/105 74/74/74 75/75/75
f 74/74/74 105/105/105 104/104/104
f 104/104/104 73/73/73 74/74/74
f 73/73/73 104/104/104 103/103/103
f 103/103/103 72/72/72 73/73/73
f 72/72/72 103/103/103 102/102/102
f 102/102/102 71/71/71 72/72/72
f 71/71/71 102/102/102 101/101/101
f 101/101/101 70/70/70 71/71/71
f 70/70/70 101/101/101 100/100/100
f 100/100/100 69/69/69 70/70/70
f 69/69/69 100/100/100 99/99/99
f 99/99/99 68/68/68 69/69/69
f 68/68/68 99/99/99 98/98/98
f 98/98/98 67/67/67 68/68/68
f 67/67/67 98/98/98 66/66/66
f 111/111/111 112/112/112 113/113/113
f 113/113/113 114/114/114 111/111/111
f 114/114/114 113/113/113 115/115/115
f 115/115/115 116/116/116 114/114/114
f 116/116/116 115/115/115 117/117/117
f 117/117/117 118/118/118 116/116/116
f 118/118/118 117/117/117 119/119/119
f 119/119/119 120/120/120 118/118/118
f 120/120/120 119/119/119 121/121/112
f 120/120/120 121/121/112 122/122/111
f 122/122/111 123/123/121 120/120/120
f 123/123/121 122/122/111 124/124/122
f 124/124/122 125/125/123 123/123/121
f 125/125/123 124/124/122 126/126/124
f 126/126/124 127/127/125 125/125/123
f 127/127/125 126/126/124 128/128/126
f 128/128/126 129/129/127 127/127/125
f 129/129/127 128/128/126 130/130/128
f 130/130/128 131/131/129 129/129/127
f 131/131/129 130/130/128 132/132/130
f 132/132/130 133/133/131 131/131/129
f 133/133/131 132/132/130 134/134/132
f 134/134/132 135/135/133 133/133/131
f 135/135/133 134/134/132 136/136/134
f 136/136/134 137/137/135 135/135/133
f 137/137/135 136/136/134 138/138/136
f 138/138/136 139/139/137 137/137/135
f 139/139/137 138/138/136 140/140/138
f 140/140/138 141/141/139 139/139/137
f 141/141/139 140/140/138 142/142/140
f 141/141/139 142/142/140 143/143/112
f 141/141/139 143/143/112 144/144/119
f 144/144/119 145/145/141 141/141/139
f 145/145/141 144/144/119 146/146/117
f 146/146/117 147/147/142 145/145/141
f 147/147/142 146/146/117 148/148/115
f 148/148/115 149/149/143 147/147/142
f 149/149/143 148/148/115 150/150/113
f 149/149/143 150/150/113 151/151/112
f 149/149/143 151/151/112 152/152/140
f 152/152/140 153/153/144 149/149/143
f 153/153/144 152/152/140 154/154/138
f 154/154/138 155/155/145 153/153/144
f 155/155/145 154/154/138 156/156/136
f 156/156/136 157/157/146 155/155/145
f 157/157/146 156/156/136 158/158/147
f 158/158/147 159/159/148 157/157/146
f 159/159/148 158/158/147 160/160/132
f 160/160/132 161/161/149 159/159/148
f 161/161/149 160/160/132 162/162/150
f 162/162/150 163/163/151 161/161/149
f 163/163/151 162/162/150 164/164/152
f 164/164/152 165/165/153 163/163/151
f 165/165/153 164/164/152 166/166/126
f 166/166/126 167/167/154 165/165/153
f 167/167/154 166/166/126 168/168/124
f 168/168/124 169/169/155 167/167/154
f 169/169/155 168/168/124 170/170/122
f 169/169/155 170/170/122 111/111/111
f 169/169/155 111/111/111 114/114/114
f 114/114/114 171/171/156 169/169/155
f 171/171/156 114/114/114 116/116/116
f 116/116/116 172/172/157 171/171/156
f 172/172/157 116/116/116 118/118/118
f 172/172/157 118/118/118 120/120/120
f 172/172/157 120/120/120 123/123/121
f 123/123/121 173/173/158 172/172/157
f 173/173/158 123/123/121 125/125/123
f 125/125/123 174/174/159 173/173/158
f 174/174/159 125/125/123 127/127/125
f 127/127/125 175/175/160 174/174/159
f 175/175/160 127/127/125 129/129/127
f 129/129/127 176/176/161 175/175/160
f 176/176/161 129/129/127 131/131/129
f 131/131/129 177/177/162 176/176/161
f 177/177/162 131/131/129 133/133/131
f 133/133/131 178/178/163 177/177/162
f 178/178/163 133/133/131 135/135/133
f 135/135/133 179/179/164 178/178/163
f 179/179/164 135/135/133 137/137/135
f 137/137/135 180/180/165 179/179/164
f 180/180/165 137/137/135 139/139/137
f 180/180/165 139/139/137 141/141/139
f 180/180/165 141/141/139 145/145/141
f 145/145/141 181/181/166 180/180/165
f 181/181/166 145/145/141 147/147/142
f 181/181/166 147/147/142 149/149/143
f 181/181/166 149/149/143 153/153/144
f 181/181/166 153/153/144 182/182/167
f 182/182/167 180/180/165 181/181/166
f 182/182/167 179/179/164 180/180/165
f 179/179/164 182/182/167 183/183/168
f 183/183/168 178/178/163 179/179/164
f 178/178/163 183/183/168 184/184/169
f 184/184/169 177/177/162 178/178/163
f 177/177/162 184/184/169 185/185/170
f 185/185/170 176/176/161 177/177/162
f 176/176/161 185/185/170 186/186/171
f 186/186/171 175/175/160 176/176/161
f 175/175/160 186/186/171 187/187/172
f 187/187/172 174/174/159 175/175/160
f 174/174/159 187/187/172 188/188/173
f 188/188/173 173/173/158 174/174/159
f 188/188/173 172/172/157 173/173/158
f 188/188/173 171/171/156 172/172/157
f 188/188/173 169/169/155 171/171/156
f 188/188/173 167/167/154 169/169/155
f 167/167/154 188/188/173 187/187/172
f 187/187/172 165/165/153 167/167/154
f 165/165/153 187/187/172 186/186/171
f 186/186/171 163/163/151 165/165/153
f 163/163/151 186/186/171 185/185/170
f 185/185/170 161/161/149 163/163/151
f 161/161/149 185/185/170 184/184/169
f 184/184/169 159/159/148 161/161/149
f 159/159/148 184/184/169 183/183/168
f 183/183/168 157/157/146 159/159/148
f 157/157/146 183/183/168 182/182/167
f 182/182/167 155/155/145 157/157/146
f 155/155/145 182/182/167 153/153/144
