# Blender v2.79 (sub 0) OBJ File: ''
# www.blender.org
mtllib MDL_MAIBlade.mtl
o p00g00o00g._0p.005
v -33.375000 1.000112 -344.062500
v -77.000000 -27.124924 -238.750000
v -29.000000 11.875080 -246.250000
v -81.375000 -37.999893 -336.562500
v -44.062500 40.000114 -351.875000
v -57.187500 -66.624893 -339.375000
v -67.875000 -23.812405 -295.437500
v -33.375000 -2.812370 -395.875000
v -22.812500 73.312607 -346.250000
v -44.562500 -11.312391 -332.625000
v -57.312500 -17.812370 -393.312500
v -35.500000 66.875137 -406.875000
v 36.250000 83.312607 -334.312500
v -50.125000 44.500130 -386.687500
v -43.625000 46.562607 -324.750000
v 29.750000 81.250122 -396.312500
v 54.500000 37.250107 -332.750000
v 2.312500 74.562637 -419.937500
v -5.875000 95.062622 -361.624939
v 62.750000 16.750126 -391.000000
v 47.937500 -10.999893 -326.437500
v 43.875000 30.812637 -426.187500
v 41.062500 63.687622 -373.312500
v 50.687500 -43.937378 -379.312500
v 35.000000 -12.687405 -290.125000
v 35.625000 17.875122 -373.125000
v 62.687500 -34.812370 -392.375000
v 62.062500 -65.437393 -309.375000
v 59.500000 26.250095 -289.937500
v 45.312500 -79.999893 -304.687500
v 39.937500 -36.562386 -349.062500
v 64.812500 -17.124920 -245.562500
v 25.125000 57.187599 -293.062500
v 80.062500 -24.249920 -247.687500
v 57.625000 -24.062401 -305.812500
v 47.562500 57.062576 -234.874969
v -4.000000 96.250092 -294.562439
v 58.000000 21.125080 -247.375000
v 49.875000 27.500099 -308.812500
v 4.125000 89.812576 -233.062469
v -57.062500 56.812599 -305.375000
v 41.125000 87.375092 -271.687500
v 23.375000 83.000107 -331.250000
v -39.312500 61.187576 -245.812469
v -63.750000 6.000088 -272.187500
v -6.125000 94.312576 -247.562469
v -21.875000 76.625107 -305.250000
v -48.000000 23.625069 -214.562500
v -59.250000 -47.687408 -272.000000
v -67.125000 38.562592 -289.875000
v -39.250000 52.250076 -235.874969
v -31.375000 -33.999931 -218.000000
v 58.000000 -33.812500 -7.812512
v 23.000000 55.624985 41.937515
v 48.562500 6.437478 70.375000
v 32.437500 15.312511 -36.249992
v 35.375000 -5.999974 -78.562500
v 45.937500 10.812490 27.750004
v 35.062500 -44.375000 1.062486
v 46.250000 49.250015 -51.937485
v 13.625000 57.250031 -99.812485
v 52.312500 0.687506 -16.062500
v 60.437500 -13.937475 -76.062500
v 5.500000 71.937515 -39.749977
v -32.250000 32.562538 -126.687485
v 32.625000 51.937515 -42.249985
v 50.687500 50.812531 -101.874985
v -50.312500 33.687523 -67.062485
v -47.000000 10.500082 -250.687500
v -54.187500 -87.812439 -206.062531
v -67.375000 -34.249939 -177.125000
v -33.812500 -43.062408 -279.625000
v -52.875000 -37.999924 -233.250000
v -62.250000 -45.374962 -125.687515
v -35.812500 2.000051 -156.187500
v -79.375000 -85.437439 -202.750031
v -57.250000 -1.312452 -149.437500
v -8.000000 43.375023 -64.062485
v 2.062500 58.937538 -123.562485
v -67.375000 -16.874969 -89.937500
v -56.437500 -30.999939 -190.000000
v -41.000000 8.312529 -90.375000
v -38.187500 41.625046 -142.937500
v -59.250000 -64.312454 -137.375031
v 15.375000 43.875099 -302.000000
v 32.000000 37.562637 -432.437500
v 13.687500 45.187637 -427.312500
v 32.000000 38.125099 -301.750000
v 15.500000 74.062653 -463.312500
v 32.000000 64.500153 -468.125000
v 20.125000 83.937714 -654.750000
v 32.000000 60.187675 -547.750000
v 32.000000 71.000214 -632.750000
v 14.187500 69.062683 -542.500000
v 19.375000 -80.999832 -512.500000
v 32.000000 11.875195 -599.937500
v 32.000000 -65.124832 -510.937500
v 19.625000 2.562700 -613.500000
v 15.687500 -58.312355 -442.812500
v 32.000000 -43.687355 -440.312500
v 14.687500 -43.499901 -300.875000
v 32.000000 -56.499878 -385.250000
v 32.000000 -31.937401 -300.937500
v 15.875000 -69.624878 -384.437500
v 15.000000 -26.562435 -197.500000
v 32.000000 -13.687435 -197.500000
v 32.000000 51.750061 -197.499969
v 19.625000 58.187561 -197.499969
v -32.000000 37.562637 -432.437500
v -15.375000 43.875099 -302.000000
v -13.687500 45.187637 -427.312500
v -32.000000 38.125099 -301.750000
v -15.500000 74.062653 -463.312500
v -32.000000 64.500153 -468.125000
v -32.000000 60.187675 -547.750000
v -20.125000 83.937714 -654.750000
v -32.000000 71.000214 -632.750000
v -14.187500 69.062683 -542.500000
v -32.000000 11.875195 -599.937500
v -19.375000 -80.999832 -512.500000
v -32.000000 -65.124832 -510.937500
v -19.625000 2.562700 -613.500000
v -15.687500 -58.312355 -442.812500
v -32.000000 -43.687355 -440.312500
v -32.000000 -56.499878 -385.250000
v -14.687500 -43.499901 -300.875000
v -32.000000 -31.937401 -300.937500
v -15.875000 -69.624878 -384.437500
v -15.000000 -26.562435 -197.500000
v -32.000000 -13.687435 -197.500000
v -32.000000 51.750061 -197.499969
v -19.625000 58.187561 -197.499969
v 0.000000 77.937485 58.812523
v 0.000000 50.374977 78.375015
v 32.625000 50.374977 59.875015
v -32.625000 50.374977 59.875015
v 0.000000 7.499974 78.687500
v 44.437500 7.499980 60.125000
v 0.000000 -49.125023 60.562485
v 29.875000 -47.625015 44.312485
v 0.000000 -82.625015 32.374969
v 0.000000 -73.312500 22.499977
v -29.875000 -47.625015 44.312485
v -44.437500 7.499980 60.125000
v -32.750000 -18.125008 22.562492
v 0.000000 -45.687508 25.062485
v 32.750000 -18.125008 22.562492
v 32.750000 16.937492 21.687504
v 0.000000 42.562492 12.937513
v -32.750000 16.937492 21.687504
v -20.250000 19.562542 -125.187500
v 0.000000 36.812538 -123.937485
v 20.250000 19.562542 -125.187500
v 20.250000 -13.749958 -127.687500
v 43.062500 45.687553 -154.812500
v 0.000000 50.812546 -146.687469
v -43.062500 45.687553 -154.812500
v -20.250000 -13.749958 -127.687500
v 0.000000 -34.562508 20.624989
v 0.000000 -27.249958 -128.687500
v -38.562500 -39.749947 -171.750000
v -46.687500 -14.937433 -205.750000
v -50.500000 35.312569 -211.562500
v 0.000000 -9.187424 -232.062500
v 0.000000 35.312576 -228.312500
v -37.562500 80.625076 -236.499969
v 0.000000 76.937576 -241.374969
v 0.000000 93.562576 -252.062469
v 37.562500 80.625076 -236.499969
v 50.500000 35.312569 -211.562500
v 46.687500 -14.937433 -205.750000
v 0.000000 -37.187408 -285.812500
v -38.312500 -39.499908 -272.812500
v -29.750000 -72.187424 -236.187531
v 0.000000 -71.499924 -246.312531
v 38.312500 -39.499908 -272.812500
v 29.750000 -72.187424 -236.187531
v 0.000000 -114.312424 -238.687531
v -21.562500 -117.437424 -229.750031
v -22.562500 -122.437439 -203.187531
v -14.250000 -142.562408 -251.500061
v 0.000000 -130.812408 -249.875031
v 0.000000 -142.874908 -284.250061
v 14.250000 -142.562408 -251.500061
v 0.000000 -152.812408 -250.375061
v -18.250000 -142.562439 -223.937561
v 0.000000 -150.312439 -218.625061
v 18.250000 -142.562439 -223.937561
v 21.562500 -117.437424 -229.750031
v 38.562500 -39.749947 -171.750000
v 37.562500 87.062576 -214.312469
v 0.000000 97.875076 -211.624969
v -37.562500 87.062576 -214.312469
v -34.312500 83.562561 -181.874969
v 0.000000 91.625061 -178.249969
v 34.312500 83.562561 -181.874969
v 0.000000 -36.999954 -146.687500
v 0.000000 -73.999954 -149.312531
v 0.000000 -70.937439 -170.437531
v 0.000000 -124.937439 -190.750031
v 22.562500 -122.437439 -203.187531
vt 4.000000 3.258789
vt 3.778809 3.009033
vt 3.778809 3.258789
vt 4.000000 3.009033
vt 4.000000 3.258789
vt 3.778809 3.009033
vt 3.778809 3.258789
vt 4.000000 3.009033
vt 4.000000 3.258789
vt 3.778809 3.258789
vt 3.778809 3.009033
vt 4.000000 3.009033
vt 4.000000 3.258789
vt 3.778809 3.009033
vt 3.778809 3.258789
vt 4.000000 3.009033
vt 4.000000 3.258789
vt 3.778809 3.009033
vt 3.778809 3.258789
vt 4.000000 3.009033
vt 4.000000 3.258789
vt 3.778809 3.009033
vt 3.778809 3.258789
vt 4.000000 3.009033
vt 4.000000 3.258789
vt 3.778809 3.258789
vt 3.778809 3.009033
vt 4.000000 3.009033
vt 4.000000 3.258789
vt 3.778809 3.009033
vt 3.778809 3.258789
vt 4.000000 3.009033
vt 4.000000 3.009033
vt 3.778809 3.258789
vt 3.778809 3.009033
vt 4.000000 3.258789
vt 4.000000 3.009033
vt 3.778809 3.258789
vt 3.778809 3.009033
vt 4.000000 3.258789
vt 4.000000 3.009033
vt 3.778809 3.258789
vt 3.778809 3.009033
vt 4.000000 3.258789
vt 4.000000 3.009033
vt 3.778809 3.258789
vt 3.778809 3.009033
vt 4.000000 3.258789
vt 4.000000 3.009033
vt 3.778809 3.009033
vt 3.778809 3.258789
vt 4.000000 3.258789
vt 3.778809 3.009033
vt 3.999756 3.258789
vt 3.999756 3.009033
vt 3.778809 3.258789
vt 3.778809 3.009033
vt 3.999756 3.258789
vt 3.999756 3.009033
vt 3.778809 3.258789
vt 3.778809 3.009033
vt 3.999756 3.258789
vt 3.999756 3.009033
vt 3.778809 3.258789
vt 3.778809 3.009033
vt 3.999756 3.258789
vt 3.999756 3.009033
vt 3.778809 3.258789
vt 3.778809 3.258789
vt 3.999756 3.009033
vt 3.999756 3.258789
vt 3.778809 3.009033
vt 3.778809 3.258789
vt 3.999756 3.009033
vt 3.999756 3.258789
vt 3.778809 3.009033
vt 3.778809 3.009033
vt 3.999756 3.258789
vt 3.999756 3.009033
vt 3.778809 3.258789
vt 3.778809 3.258789
vt 3.999756 3.009033
vt 3.999756 3.258789
vt 3.778809 3.009033
vt 3.559570 3.698730
vt 3.407471 3.678467
vt 3.413330 3.702881
vt 3.559814 3.680176
vt 3.371338 3.795898
vt 3.365723 3.764893
vt 3.147949 3.827393
vt 3.272705 3.750977
vt 3.173584 3.785889
vt 3.279053 3.779785
vt 3.313965 3.297363
vt 3.211914 3.595947
vt 3.315674 3.348389
vt 3.196045 3.566162
vt 3.395264 3.370361
vt 3.398193 3.417236
vt 3.561035 3.417725
vt 3.462402 3.376221
vt 3.560791 3.454834
vt 3.463379 3.333984
vt 3.675049 3.472168
vt 3.675049 3.513672
vt 3.675049 3.724121
vt 3.675049 3.744629
vt 3.407471 3.678467
vt 3.559570 3.698730
vt 3.413330 3.702881
vt 3.559814 3.680176
vt 3.371338 3.795898
vt 3.365723 3.764893
vt 3.272705 3.750977
vt 3.147949 3.827393
vt 3.173584 3.785889
vt 3.279053 3.779785
vt 3.211914 3.595947
vt 3.313965 3.297363
vt 3.315674 3.348389
vt 3.196045 3.566162
vt 3.395264 3.370361
vt 3.398193 3.417236
vt 3.462402 3.376221
vt 3.561035 3.417725
vt 3.560791 3.454834
vt 3.463379 3.333984
vt 3.675049 3.472168
vt 3.675049 3.513672
vt 3.675049 3.724121
vt 3.675049 3.744629
vt 3.980713 3.808105
vt 4.018066 3.692627
vt 3.993164 3.681396
vt 3.993164 3.681396
vt 4.031494 3.590332
vt 3.994141 3.586914
vt 4.030518 3.411377
vt 3.987793 3.411377
vt 3.958740 3.292236
vt 3.938232 3.322021
vt 3.987793 3.411377
vt 3.994141 3.586914
vt 3.938477 3.499512
vt 3.931396 3.410889
vt 3.938477 3.499512
vt 3.937256 3.612061
vt 3.927246 3.694336
vt 3.937256 3.612061
vt 3.780273 3.620605
vt 3.790527 3.676025
vt 3.780273 3.620605
vt 3.777344 3.513428
vt 3.745605 3.704590
vt 3.762939 3.738770
vt 3.745605 3.704590
vt 3.777344 3.513428
vt 3.926270 3.446533
vt 3.781494 3.469971
vt 3.725830 3.429932
vt 3.686279 3.509521
vt 3.679443 3.671387
vt 3.660400 3.528076
vt 3.655518 3.671387
vt 3.650391 3.816650
vt 3.630371 3.804932
vt 3.613281 3.858398
vt 3.650391 3.816650
vt 3.679443 3.671387
vt 3.686279 3.509521
vt 3.573975 3.437988
vt 3.607910 3.430908
vt 3.650635 3.325684
vt 3.620117 3.327881
vt 3.607910 3.430908
vt 3.650635 3.325684
vt 3.628906 3.190430
vt 3.658203 3.180420
vt 3.689209 3.164307
vt 3.632812 3.099609
vt 3.615723 3.137451
vt 3.580322 3.098633
vt 3.632812 3.099609
vt 3.641846 3.055664
vt 3.665039 3.099609
vt 3.678955 3.063721
vt 3.665039 3.099609
vt 3.658203 3.180420
vt 3.725830 3.429932
vt 3.676270 3.837402
vt 3.679199 3.889893
vt 3.676270 3.837402
vt 3.714111 3.826172
vt 3.726074 3.869873
vt 3.714111 3.826172
vt 3.755127 3.438721
vt 3.776123 3.309082
vt 3.735107 3.318604
vt 3.711426 3.145264
vt 3.689209 3.164307
vn -0.6349 0.7704 -0.0573
vn -0.9478 0.0805 -0.3087
vn -0.9477 0.0805 -0.3088
vn -0.9477 0.0804 -0.3089
vn -0.9478 0.0805 -0.3085
vn 0.9475 -0.2711 -0.1697
vn 0.9475 -0.2709 -0.1700
vn 0.9475 -0.2710 -0.1698
vn 0.9475 -0.2712 -0.1695
vn -0.4166 0.9090 0.0134
vn -0.4166 0.9090 0.0135
vn 0.7185 0.6816 -0.1384
vn 0.7186 0.6815 -0.1385
vn 0.7187 0.6813 -0.1386
vn 0.7184 0.6818 -0.1382
vn 0.9960 0.0891 -0.0032
vn 0.9960 0.0894 -0.0031
vn 0.9960 0.0899 -0.0029
vn 0.9961 0.0886 -0.0034
vn -0.9007 -0.4053 -0.1562
vn -0.9006 -0.4056 -0.1561
vn -0.9007 -0.4054 -0.1562
vn -0.9008 -0.4051 -0.1563
vn 0.9716 -0.0999 -0.2146
vn 0.9715 -0.0999 -0.2149
vn 0.9714 -0.0998 -0.2154
vn 0.9717 -0.1000 -0.2141
vn 0.8576 0.3947 -0.3298
vn 0.8576 0.3948 -0.3298
vn 0.7824 0.6215 -0.0386
vn 0.7825 0.6215 -0.0387
vn 0.7826 0.6213 -0.0390
vn 0.7824 0.6216 -0.0383
vn -0.3035 0.9526 0.0205
vn -0.8441 0.5319 0.0678
vn -0.8441 0.5319 0.0676
vn -0.8441 0.5320 0.0673
vn -0.8441 0.5318 0.0681
vn 0.8899 -0.0133 -0.4560
vn 0.9056 0.4115 -0.1027
vn 0.9057 0.4114 -0.1025
vn 0.9055 0.4116 -0.1029
vn 0.9846 -0.1588 -0.0727
vn 0.9846 -0.1589 -0.0727
vn 0.8385 0.5446 -0.0195
vn 0.8384 0.5447 -0.0194
vn 0.8383 0.5448 -0.0193
vn 0.8386 0.5444 -0.0197
vn -0.1923 0.9783 -0.0767
vn -0.9498 -0.0690 -0.3051
vn -0.8843 0.4647 -0.0452
vn -0.8844 0.4646 -0.0452
vn -0.8844 0.4644 -0.0452
vn -0.8842 0.4649 -0.0452
vn -0.7234 0.6881 0.0572
vn -0.7235 0.6879 0.0573
vn -0.7237 0.6877 0.0575
vn -0.7232 0.6883 0.0569
vn -0.9774 0.1982 0.0733
vn -0.9774 0.1981 0.0733
vn -0.9774 0.1982 0.0732
vn 0.3753 0.9246 -0.0655
vn 0.8097 0.5564 0.1865
vn 0.4374 0.8463 0.3039
vn 0.9267 0.3749 -0.0252
vn 0.5144 0.7801 0.3560
vn 0.8743 0.4792 0.0777
vn 0.8074 0.5708 -0.1496
vn 0.8144 0.5787 0.0430
vn 0.9521 0.0488 -0.3020
vn 0.4671 0.8841 0.0095
vn 0.7932 -0.5704 -0.2133
vn 0.9421 -0.2300 -0.2441
vn 0.9378 -0.3472 0.0020
vn 0.7853 -0.3589 -0.5044
vn 0.6968 -0.7088 0.1098
vn 0.9102 -0.4137 -0.0178
vn 0.5717 -0.7947 0.2041
vn 0.8499 -0.5226 0.0673
vn 0.8845 -0.4567 0.0958
vn 0.6483 -0.7609 -0.0269
vn 0.5746 -0.8070 0.1364
vn 0.8938 -0.4416 0.0779
vn 0.8349 0.5448 -0.0784
vn 0.4570 0.8785 -0.1389
vn -0.8097 0.5564 0.1865
vn -0.3753 0.9246 -0.0655
vn -0.4374 0.8463 0.3039
vn -0.9267 0.3749 -0.0252
vn -0.5144 0.7801 0.3560
vn -0.8743 0.4792 0.0777
vn -0.8144 0.5787 0.0430
vn -0.8074 0.5708 -0.1496
vn -0.9521 0.0488 -0.3020
vn -0.4671 0.8841 0.0095
vn -0.9421 -0.2300 -0.2441
vn -0.7932 -0.5704 -0.2133
vn -0.9378 -0.3472 0.0020
vn -0.7853 -0.3589 -0.5044
vn -0.6968 -0.7088 0.1098
vn -0.9102 -0.4137 -0.0178
vn -0.8499 -0.5226 0.0673
vn -0.5717 -0.7947 0.2041
vn -0.8845 -0.4567 0.0958
vn -0.6483 -0.7609 -0.0269
vn -0.5746 -0.8070 0.1364
vn -0.8938 -0.4416 0.0779
vn -0.8349 0.5448 -0.0784
vn -0.4570 0.8785 -0.1389
vn -0.1985 0.9799 -0.0174
vn -0.0000 0.3136 0.9496
vn 0.8063 0.5084 0.3024
vn -0.8643 0.3511 0.3602
vn 0.0000 -0.0620 0.9981
vn 0.8974 -0.1072 0.4280
vn 0.0000 -0.4553 0.8903
vn 0.8478 -0.5073 -0.1545
vn 0.0000 -0.9752 0.2211
vn -0.0000 -0.2996 -0.9541
vn -0.8478 -0.5073 -0.1545
vn -0.8251 -0.1354 0.5485
vn -0.8915 -0.2680 -0.3652
vn -0.0000 -0.3270 -0.9450
vn 0.8335 -0.4272 -0.3504
vn 0.8722 0.4374 -0.2188
vn -0.0198 0.9336 -0.3577
vn -0.8510 0.4571 -0.2587
vn -0.8369 0.4837 0.2563
vn 0.1430 0.9284 0.3430
vn 0.9211 0.2819 0.2685
vn 0.8545 -0.3926 0.3402
vn 0.7907 0.3249 0.5190
vn -0.1330 0.7159 0.6854
vn -0.7892 0.2682 0.5525
vn -0.8134 -0.5089 0.2819
vn -0.1425 -0.8539 -0.5005
vn 0.0754 -0.9429 0.3245
vn -0.8215 -0.4171 0.3888
vn -0.9106 0.2680 -0.3145
vn -0.8977 0.0450 -0.4383
vn -0.0000 0.3257 -0.9455
vn 0.0000 -0.2169 -0.9762
vn -0.5571 -0.0333 -0.8298
vn 0.0000 -0.4238 -0.9058
vn -0.1156 0.6209 -0.7753
vn 0.5623 0.2245 -0.7958
vn 0.8446 -0.0060 -0.5353
vn 0.9488 0.1752 -0.2628
vn -0.0528 0.3379 -0.9397
vn -0.9026 -0.1634 -0.3982
vn -0.6064 -0.4661 -0.6442
vn 0.0369 -0.5614 -0.8267
vn 0.6302 -0.3570 -0.6895
vn 0.7680 -0.3804 -0.5152
vn -0.0567 0.1416 -0.9883
vn -0.8918 -0.0539 -0.4491
vn -0.8407 -0.4299 0.3292
vn -0.8846 -0.0138 -0.4662
vn 0.0971 0.7364 -0.6696
vn 0.0000 -0.0787 -0.9969
vn 0.8925 -0.1357 -0.4302
vn -0.0000 -0.9953 -0.0972
vn -0.6961 -0.7081 0.1185
vn -0.0000 -0.8752 0.4838
vn 0.7795 -0.6212 0.0802
vn 0.8773 0.0373 -0.4786
vn 0.7966 -0.4267 0.4282
vn 0.7868 0.6172 0.0003
vn 0.1023 0.9947 0.0026
vn -0.5952 0.8036 0.0003
vn -0.7111 0.6225 0.3268
vn -0.0442 0.8267 0.5609
vn 0.4835 0.8046 0.3448
vn 0.0000 -0.5744 0.8186
vn 0.0000 -0.7540 0.6569
vn -0.0000 -0.8182 0.5749
vn -0.0000 -0.5214 0.8533
vn 0.7689 -0.4772 0.4256
usemtl MAT_blade0b.002
s 1
f 1/1/1 2/2/1 3/3/1
f 2/2/1 1/1/1 4/4/1
f 5/5/2 6/6/3 7/7/4
f 6/6/3 5/5/2 8/8/5
f 9/9/6 10/10/7 11/11/8
f 11/11/8 12/12/9 9/9/6
f 13/13/10 14/14/10 15/15/11
f 14/14/10 13/13/10 16/16/10
f 17/17/12 18/18/13 19/19/14
f 18/18/13 17/17/12 20/20/15
f 21/21/16 22/22/17 23/23/18
f 22/22/17 21/21/16 24/24/19
f 25/25/20 26/26/21 27/27/22
f 27/27/22 28/28/23 25/25/20
f 29/29/24 30/30/25 31/31/26
f 30/30/25 29/29/24 32/32/27
f 33/33/28 34/34/29 35/35/29
f 34/34/29 33/33/28 36/36/28
f 37/37/30 38/38/31 39/39/32
f 38/38/31 37/37/30 40/40/33
f 41/41/34 42/42/34 43/43/34
f 42/42/34 41/41/34 44/44/34
f 45/45/35 46/46/36 47/47/37
f 46/46/36 45/45/35 48/48/38
f 49/49/39 50/50/39 51/51/39
f 51/51/39 52/52/39 49/49/39
f 53/53/40 54/54/40 55/55/41
f 54/54/40 53/53/40 56/56/42
f 57/57/43 58/58/43 59/59/44
f 58/58/43 57/57/43 60/60/43
f 61/61/45 62/62/46 63/63/47
f 62/62/46 61/61/45 64/64/48
f 65/65/49 66/66/49 67/67/49
f 66/66/49 65/65/49 68/68/49
f 69/69/50 70/70/50 71/71/50
f 70/70/50 69/69/50 72/72/50
f 73/73/51 74/74/52 75/75/53
f 74/74/52 73/73/51 76/76/54
f 77/77/55 78/78/56 79/79/57
f 78/78/56 77/77/55 80/80/58
f 81/81/59 82/82/59 83/83/60
f 82/82/59 81/81/59 84/84/61
f 85/85/62 86/86/63 87/87/64
f 86/86/63 85/85/62 88/88/65
f 89/89/66 86/86/63 90/90/67
f 86/86/63 89/89/66 87/87/64
f 91/91/68 92/92/69 93/93/70
f 92/92/69 91/91/68 94/94/71
f 94/94/71 90/90/67 92/92/69
f 90/90/67 94/94/71 89/89/66
f 95/95/72 96/96/73 97/97/74
f 96/96/73 95/95/72 98/98/75
f 99/99/76 97/97/74 100/100/77
f 97/97/74 99/99/76 95/95/72
f 101/101/78 102/102/79 103/103/80
f 102/102/79 101/101/78 104/104/81
f 105/105/82 103/103/80 106/106/83
f 103/103/80 105/105/82 101/101/78
f 104/104/81 100/100/77 102/102/79
f 100/100/77 104/104/81 99/99/76
f 98/98/75 93/93/70 96/96/73
f 93/93/70 98/98/75 91/91/68
f 85/85/62 107/107/84 88/88/65
f 107/107/84 85/85/62 108/108/85
f 109/109/86 110/110/87 111/111/88
f 110/110/87 109/109/86 112/112/89
f 109/109/86 113/113/90 114/114/91
f 113/113/90 109/109/86 111/111/88
f 115/115/92 116/116/93 117/117/94
f 116/116/93 115/115/92 118/118/95
f 114/114/91 118/118/95 115/115/92
f 118/118/95 114/114/91 113/113/90
f 119/119/96 120/120/97 121/121/98
f 120/120/97 119/119/96 122/122/99
f 121/121/98 123/123/100 124/124/101
f 123/123/100 121/121/98 120/120/97
f 125/125/102 126/126/103 127/127/104
f 126/126/103 125/125/102 128/128/105
f 127/127/104 129/129/106 130/130/107
f 129/129/106 127/127/104 126/126/103
f 124/124/101 128/128/105 125/125/102
f 128/128/105 124/124/101 123/123/100
f 117/117/94 122/122/99 119/119/96
f 122/122/99 117/117/94 116/116/93
f 131/131/108 110/110/87 112/112/89
f 110/110/87 131/131/108 132/132/109
f 92/92/69 96/96/73 93/93/70
f 96/96/73 92/92/69 90/90/67
f 90/90/67 97/97/74 96/96/73
f 97/97/74 90/90/67 86/86/63
f 86/86/63 100/100/77 97/97/74
f 100/100/77 86/86/63 88/88/65
f 88/88/65 102/102/79 100/100/77
f 88/88/65 103/103/80 102/102/79
f 103/103/80 88/88/65 107/107/84
f 107/107/84 106/106/83 103/103/80
f 115/115/92 117/117/94 119/119/96
f 119/119/96 114/114/91 115/115/92
f 114/114/91 119/119/96 121/121/98
f 121/121/98 109/109/86 114/114/91
f 109/109/86 121/121/98 124/124/101
f 124/124/101 112/112/89 109/109/86
f 112/112/89 124/124/101 125/125/102
f 112/112/89 125/125/102 127/127/104
f 127/127/104 131/131/108 112/112/89
f 131/131/108 127/127/104 130/130/107
f 133/133/110 134/134/111 135/135/112
f 134/134/111 133/133/110 136/136/113
f 134/134/111 136/136/113 137/137/114
f 137/137/114 135/135/112 134/134/111
f 137/137/114 138/138/115 135/135/112
f 138/138/115 137/137/114 139/139/116
f 139/139/116 140/140/117 138/138/115
f 140/140/117 139/139/116 141/141/118
f 141/141/118 142/142/119 140/140/117
f 141/141/118 143/143/120 142/142/119
f 143/143/120 141/141/118 139/139/116
f 139/139/116 144/144/121 143/143/120
f 144/144/121 139/139/116 137/137/114
f 144/144/121 137/137/114 136/136/113
f 144/144/121 136/136/113 145/145/122
f 145/145/122 143/143/120 144/144/121
f 143/143/120 145/145/122 146/146/123
f 146/146/123 142/142/119 143/143/120
f 146/146/123 140/140/117 142/142/119
f 140/140/117 146/146/123 147/147/124
f 147/147/124 138/138/115 140/140/117
f 138/138/115 147/147/124 148/148/125
f 148/148/125 135/135/112 138/138/115
f 135/135/112 148/148/125 149/149/126
f 149/149/126 133/133/110 135/135/112
f 133/133/110 149/149/126 150/150/127
f 150/150/127 136/136/113 133/133/110
f 150/150/127 145/145/122 136/136/113
f 150/150/127 151/151/128 145/145/122
f 151/151/128 150/150/127 149/149/126
f 149/149/126 152/152/129 151/151/128
f 152/152/129 149/149/126 148/148/125
f 148/148/125 153/153/130 152/152/129
f 153/153/130 148/148/125 147/147/124
f 153/153/130 147/147/124 154/154/131
f 153/153/130 154/154/131 155/155/132
f 155/155/132 152/152/129 153/153/130
f 152/152/129 155/155/132 156/156/133
f 156/156/133 151/151/128 152/152/129
f 151/151/128 156/156/133 157/157/134
f 151/151/128 157/157/134 158/158/135
f 158/158/135 145/145/122 151/151/128
f 145/145/122 158/158/135 159/159/136
f 159/159/136 146/146/123 145/145/122
f 159/159/136 147/147/124 146/146/123
f 159/159/136 160/160/137 147/147/124
f 160/160/137 159/159/136 158/158/135
f 158/158/135 161/161/138 160/160/137
f 161/161/138 158/158/135 157/157/134
f 157/157/134 162/162/139 161/161/138
f 162/162/139 157/157/134 163/163/140
f 163/163/140 164/164/141 162/162/139
f 163/163/140 165/165/142 164/164/141
f 165/165/142 163/163/140 166/166/143
f 166/166/143 167/167/144 165/165/142
f 167/167/144 166/166/143 168/168/145
f 167/167/144 168/168/145 169/169/146
f 169/169/146 165/165/142 167/167/144
f 165/165/142 169/169/146 170/170/147
f 170/170/147 164/164/141 165/165/142
f 164/164/141 170/170/147 171/171/148
f 164/164/141 171/171/148 172/172/149
f 172/172/149 162/162/139 164/164/141
f 162/162/139 172/172/149 173/173/150
f 173/173/150 161/161/138 162/162/139
f 173/173/150 174/174/151 161/161/138
f 174/174/151 173/173/150 172/172/149
f 172/172/149 175/175/152 174/174/151
f 172/172/149 176/176/153 175/175/152
f 176/176/153 172/172/149 171/171/148
f 176/176/153 171/171/148 177/177/154
f 177/177/154 175/175/152 176/176/153
f 175/175/152 177/177/154 178/178/155
f 178/178/155 174/174/151 175/175/152
f 174/174/151 178/178/155 179/179/156
f 179/179/156 161/161/138 174/174/151
f 179/179/156 180/180/157 161/161/138
f 179/179/156 181/181/158 180/180/157
f 181/181/158 179/179/156 178/178/155
f 181/181/158 178/178/155 182/182/159
f 182/182/159 183/183/160 181/181/158
f 183/183/160 182/182/159 184/184/161
f 183/183/160 184/184/161 185/185/162
f 185/185/162 181/181/158 183/183/160
f 181/181/158 185/185/162 186/186/163
f 186/186/163 180/180/157 181/181/158
f 186/186/163 187/187/164 180/180/157
f 187/187/164 186/186/163 185/185/162
f 185/185/162 188/188/165 187/187/164
f 188/188/165 185/185/162 184/184/161
f 184/184/161 189/189/166 188/188/165
f 189/189/166 184/184/161 182/182/159
f 189/189/166 182/182/159 178/178/155
f 189/189/166 178/178/155 177/177/154
f 177/177/154 190/190/167 189/189/166
f 190/190/167 177/177/154 171/171/148
f 190/190/167 171/171/148 155/155/132
f 190/190/167 155/155/132 154/154/131
f 154/154/131 160/160/137 190/190/167
f 160/160/137 154/154/131 147/147/124
f 155/155/132 171/171/148 170/170/147
f 170/170/147 191/191/168 155/155/132
f 191/191/168 170/170/147 169/169/146
f 169/169/146 192/192/169 191/191/168
f 192/192/169 169/169/146 168/168/145
f 168/168/145 193/193/170 192/192/169
f 193/193/170 168/168/145 166/166/143
f 193/193/170 166/166/143 163/163/140
f 163/163/140 194/194/171 193/193/170
f 194/194/171 163/163/140 157/157/134
f 194/194/171 157/157/134 195/195/172
f 195/195/172 193/193/170 194/194/171
f 195/195/172 192/192/169 193/193/170
f 192/192/169 195/195/172 196/196/173
f 196/196/173 191/191/168 192/192/169
f 196/196/173 155/155/132 191/191/168
f 155/155/132 196/196/173 195/195/172
f 195/195/172 156/156/133 155/155/132
f 156/156/133 195/195/172 157/157/134
f 160/160/137 197/197/174 190/190/167
f 197/197/174 160/160/137 161/161/138
f 197/197/174 161/161/138 198/198/175
f 198/198/175 190/190/167 197/197/174
f 198/198/175 199/199/176 190/190/167
f 199/199/176 198/198/175 161/161/138
f 161/161/138 200/200/177 199/199/176
f 200/200/177 161/161/138 180/180/157
f 200/200/177 180/180/157 187/187/164
f 187/187/164 201/201/178 200/200/177
f 201/201/178 187/187/164 188/188/165
f 201/201/178 188/188/165 189/189/166
f 201/201/178 189/189/166 190/190/167
f 190/190/167 200/200/177 201/201/178
f 200/200/177 190/190/167 199/199/176
o p00g00o01g._0p.005
v 14.687500 -43.499901 -300.875000
v 0.000000 -100.874878 -390.312561
v 15.875000 -69.624878 -384.437500
v 0.000000 -103.187408 -289.625061
v -14.687500 -43.499901 -300.875000
v -15.875000 -69.624878 -384.437500
v 0.000000 34.375244 -748.875000
v 0.000000 137.687744 -781.625000
v 20.125000 83.937714 -654.750000
v 0.000000 -45.999771 -698.812500
v 19.625000 2.562700 -613.500000
v 0.000000 -101.624786 -643.375000
v 19.375000 -80.999832 -512.500000
v 0.000000 -173.562347 -508.625061
v 0.000000 -74.312408 -278.500000
v 0.000000 -66.249939 -197.500031
v 15.000000 -26.562435 -197.500000
v -20.125000 83.937714 -654.750000
v -19.625000 2.562700 -613.500000
v -19.375000 -80.999832 -512.500000
v -15.000000 -26.562435 -197.500000
v 15.687500 -58.312355 -442.812500
v 0.000000 -113.874847 -467.562561
v -15.687500 -58.312355 -442.812500
v 14.187500 69.062683 -542.500000
v 0.000000 121.312668 -506.062439
v 0.000000 93.937653 -475.687439
v 15.500000 74.062653 -463.312500
v 0.000000 94.875137 -428.749939
v -14.187500 69.062683 -542.500000
v -15.500000 74.062653 -463.312500
v 0.000000 79.875137 -433.187500
v 13.687500 45.187637 -427.312500
v 0.000000 67.312637 -424.062500
v -13.687500 45.187637 -427.312500
v 0.000000 112.375198 -606.937500
v 0.000000 73.437561 -197.499969
v 19.625000 58.187561 -197.499969
v 15.375000 43.875099 -302.000000
v 0.000000 61.187599 -302.437500
v -15.375000 43.875099 -302.000000
v -19.625000 58.187561 -197.499969
vt 3.561035 3.417725
vt 3.456543 3.233643
vt 3.463379 3.333984
vt 3.573975 3.226074
vt 3.561035 3.417725
vt 3.463379 3.333984
vt 3.038086 3.668213
vt 3.009277 3.995361
vt 3.147949 3.827393
vt 3.096436 3.409912
vt 3.196045 3.566162
vt 3.161133 3.231201
vt 3.313965 3.297363
vt 3.318359 3.011475
vt 3.586914 3.318848
vt 3.675049 3.344727
vt 3.675049 3.472168
vt 3.147949 3.827393
vt 3.196045 3.566162
vt 3.313965 3.297363
vt 3.675049 3.472168
vt 3.395264 3.370361
vt 3.366455 3.191895
vt 3.395264 3.370361
vt 3.279053 3.779785
vt 3.321533 3.947510
vt 3.356934 3.859375
vt 3.371338 3.795898
vt 3.411621 3.862549
vt 3.279053 3.779785
vt 3.371338 3.795898
vt 3.406494 3.814453
vt 3.413330 3.702881
vt 3.417236 3.774170
vt 3.413330 3.702881
vt 3.203613 3.918701
vt 3.675049 3.793701
vt 3.675049 3.744629
vt 3.559570 3.698730
vt 3.559082 3.754150
vt 3.559570 3.698730
vt 3.675049 3.744629
vn 0.9351 -0.3297 0.1301
vn -0.3443 -0.9307 0.1236
vn 0.9150 -0.3986 0.0626
vn 0.0001 -0.7125 0.7017
vn -0.9351 -0.3297 0.1301
vn -0.8882 -0.4580 0.0362
vn 0.0000 -0.4179 -0.9085
vn -0.5356 0.8415 -0.0705
vn 0.9869 0.1456 -0.0699
vn -0.0000 -0.5771 -0.8167
vn 0.9808 -0.1289 -0.1460
vn -0.0000 -0.7996 -0.6005
vn 0.9816 -0.1868 -0.0391
vn 0.3714 -0.7740 0.5128
vn 0.0000 -0.7910 0.6118
vn -0.0000 -0.9922 0.1248
vn 0.9340 -0.3530 0.0550
vn -0.9907 0.0884 -0.1033
vn -0.9808 -0.1289 -0.1460
vn -0.9735 -0.2231 0.0498
vn -0.9340 -0.3530 0.0550
vn 0.9065 -0.3282 0.2654
vn -0.1716 -0.8477 0.5020
vn -0.9334 -0.3567 0.0399
vn 0.9246 0.3784 0.0453
vn -0.0000 0.9637 0.2668
vn 0.3377 0.9358 0.1006
vn 0.8950 0.3945 0.2083
vn -0.4277 0.7811 0.4548
vn -0.8977 0.4388 0.0398
vn -0.8858 0.3322 0.3240
vn 0.2926 0.3178 0.9019
vn 0.8273 0.5094 0.2368
vn -0.4695 0.7941 0.3861
vn -0.8463 0.4944 0.1984
vn 0.4029 0.9109 0.0892
vn -0.0000 0.9897 -0.1434
vn 0.6082 0.7827 -0.1319
vn 0.7044 0.7062 -0.0711
vn 0.2594 0.9653 -0.0297
vn -0.7452 0.6652 -0.0459
vn -0.6082 0.7827 -0.1319
usemtl MAT_blade0a.002
s 1
f 202/202/179 203/203/180 204/204/181
f 203/203/180 202/202/179 205/205/182
f 203/203/180 206/206/183 207/207/184
f 206/206/183 203/203/180 205/205/182
f 208/208/185 209/209/186 210/210/187
f 210/210/187 211/211/188 208/208/185
f 211/211/188 210/210/187 212/212/189
f 212/212/189 213/213/190 211/211/188
f 213/213/190 212/212/189 214/214/191
f 214/214/191 215/215/192 213/213/190
f 216/216/193 205/205/182 202/202/179
f 202/202/179 217/217/194 216/216/193
f 217/217/194 202/202/179 218/218/195
f 208/208/185 219/219/196 209/209/186
f 219/219/196 208/208/185 211/211/188
f 211/211/188 220/220/197 219/219/196
f 220/220/197 211/211/188 213/213/190
f 213/213/190 221/221/198 220/220/197
f 221/221/198 213/213/190 215/215/192
f 216/216/193 206/206/183 205/205/182
f 206/206/183 216/216/193 217/217/194
f 217/217/194 222/222/199 206/206/183
f 215/215/192 214/214/191 223/223/200
f 223/223/200 224/224/201 215/215/192
f 224/224/201 223/223/200 204/204/181
f 204/204/181 203/203/180 224/224/201
f 221/221/198 215/215/192 224/224/201
f 224/224/201 225/225/202 221/221/198
f 225/225/202 224/224/201 203/203/180
f 203/203/180 207/207/184 225/225/202
f 226/226/203 227/227/204 228/228/205
f 228/228/205 229/229/206 226/226/203
f 228/228/205 230/230/207 229/229/206
f 228/228/205 231/231/208 230/230/207
f 231/231/208 228/228/205 227/227/204
f 232/232/209 230/230/207 231/231/208
f 229/229/206 230/230/207 233/233/210
f 233/233/210 234/234/211 229/229/206
f 233/233/210 235/235/212 234/234/211
f 233/233/210 232/232/209 235/235/212
f 232/232/209 233/233/210 230/230/207
f 236/236/213 235/235/212 232/232/209
f 226/226/203 237/237/214 227/227/204
f 237/237/214 226/226/203 210/210/187
f 237/237/214 210/210/187 209/209/186
f 237/237/214 209/209/186 231/231/208
f 231/231/208 227/227/204 237/237/214
f 219/219/196 231/231/208 209/209/186
f 238/238/215 239/239/216 240/240/217
f 240/240/217 241/241/218 238/238/215
f 241/241/218 240/240/217 234/234/211
f 241/241/218 234/234/211 235/235/212
f 241/241/218 235/235/212 242/242/219
f 242/242/219 238/238/215 241/241/218
f 238/238/215 242/242/219 243/243/220
f 236/236/213 242/242/219 235/235/212
