# Blender v2.79 (sub 0) OBJ File: ''
# www.blender.org
mtllib MDL_MAIblade.mtl
o Model001_p00g00o00g._0p.001
v 7.875000 -6.562432 -211.312500
v -1.187500 -26.062435 -211.437500
v -1.687500 -28.562378 -388.562500
v 6.562500 13.062623 -388.437500
v -2.812500 -28.062260 -735.062500
v -3.687500 10.250296 -895.437500
v -3.750000 51.187756 -779.375000
v -2.500000 48.000126 -388.250000
v 7.437500 31.562565 -210.687500
v -2.000000 50.187565 -210.124985
v 9.687500 12.812564 -211.187500
v -12.125000 31.312565 -210.750000
v -2.000000 50.187565 -210.124985
v -11.000000 12.437623 -388.375000
v -11.750000 -6.812432 -211.375000
v -12.812500 12.500064 -211.312500
v -1.187500 -26.062435 -211.437500
v -25.500000 -28.937441 -170.250000
v -11.750000 -6.812432 -211.375000
v -1.000000 -40.999939 -186.125000
v -0.687500 -61.687443 -160.812515
v 23.375000 -29.624941 -170.937500
v 7.875000 -6.562432 -211.312500
v 25.687500 12.125058 -175.437500
v 9.687500 12.812564 -211.187500
v 22.500000 50.937561 -176.874985
v 7.437500 31.562565 -210.687500
v -2.000000 50.187565 -210.124985
v -2.062500 56.750061 -191.874985
v -26.375000 51.625061 -176.249985
v -12.125000 31.312565 -210.750000
v -28.625000 14.000058 -174.250000
v -12.812500 12.500064 -211.312500
v -32.437500 -41.374962 -128.062500
v -0.187500 -97.312462 -110.125015
v 30.812500 -42.437462 -128.312500
v 33.750000 12.062543 -138.187500
v 29.750000 54.875042 -141.687485
v -2.125000 69.000061 -173.562485
v -2.375000 97.312546 -136.999985
v -33.500000 55.875042 -141.499985
v -36.500000 14.687543 -137.937500
vt 3.989502 3.105225
vt 4.000000 3.023926
vt 3.673340 3.023926
vt 3.673340 3.204102
vt 3.149902 3.020020
vt 2.996826 3.185059
vt 3.110107 3.319092
vt 3.667480 3.323975
vt 3.987793 3.275635
vt 3.987793 3.350830
vt 3.994873 3.206055
vt 3.987793 3.275635
vt 3.986084 3.352539
vt 3.673340 3.202148
vt 3.989502 3.105225
vt 3.994873 3.206055
vt 3.446289 3.331299
vt 3.434570 3.625000
vt 3.381104 3.330566
vt 3.532715 3.518555
vt 3.576660 3.675537
vt 3.436279 3.626709
vt 3.379639 3.331543
vt 3.308350 3.589600
vt 3.333008 3.320312
vt 3.190186 3.573730
vt 3.263428 3.319580
vt 3.171387 3.361084
vt 3.135498 3.459961
vt 3.189209 3.572998
vt 3.263184 3.318604
vt 3.308105 3.590576
vt 3.333496 3.321777
vt 3.470947 3.965088
vt 3.686035 3.994873
vt 3.476562 3.965820
vt 3.305664 3.877197
vt 3.170410 3.825195
vt 3.094482 3.557861
vt 3.002686 3.794678
vt 3.167969 3.824707
vt 3.307129 3.875977
vn 0.9478 -0.2152 -0.2352
vn -0.2503 -0.8279 -0.5020
vn 0.0240 -0.9994 -0.0259
vn 0.9997 0.0177 -0.0177
vn 0.0143 -0.9980 -0.0618
vn 0.0039 -0.5224 -0.8527
vn -0.0098 0.9985 -0.0533
vn 0.0008 0.9993 -0.0365
vn 0.9342 0.2782 -0.2232
vn 0.0066 0.8943 -0.4474
vn 0.9628 0.0250 -0.2690
vn -0.9464 0.2151 -0.2411
vn -0.9999 -0.0048 -0.0127
vn -0.9480 -0.2304 -0.2197
vn -0.9787 -0.0056 -0.2052
vn -0.8062 -0.4445 -0.3905
vn -0.8112 -0.4835 -0.3289
vn -0.4365 -0.7452 -0.5041
vn 0.8241 -0.4029 -0.3983
vn 0.9507 -0.0353 -0.3081
vn 0.8138 0.4293 -0.3917
vn 0.0031 0.8940 -0.4481
vn -0.7805 0.4754 -0.4059
vn -0.9502 -0.0317 -0.3099
vn -0.8898 -0.3591 -0.2815
vn 0.3165 -0.7936 -0.5197
vn 0.9394 -0.2432 -0.2417
vn 0.9773 0.0186 -0.2109
vn 0.7983 0.5190 -0.3056
vn 0.1910 0.8368 -0.5131
vn -0.2255 0.8173 -0.5302
vn -0.9115 0.3418 -0.2287
vn -0.9777 -0.0023 -0.2100
usemtl Model001_Material001
s 1
f 1/1/1 2/2/2 3/3/3
f 3/3/3 4/4/4 1/1/1
f 4/4/4 3/3/3 5/5/5
f 4/4/4 5/5/5 6/6/6
f 4/4/4 6/6/6 7/7/7
f 4/4/4 7/7/7 8/8/8
f 8/8/8 9/9/9 4/4/4
f 9/9/9 8/8/8 10/10/10
f 4/4/4 9/9/9 11/11/11
f 11/11/11 1/1/1 4/4/4
f 12/12/12 13/13/10 8/8/8
f 8/8/8 14/14/13 12/12/12
f 14/14/13 8/8/8 7/7/7
f 14/14/13 7/7/7 6/6/6
f 14/14/13 6/6/6 5/5/5
f 14/14/13 5/5/5 3/3/3
f 3/3/3 15/15/14 14/14/13
f 15/15/14 3/3/3 2/2/2
f 14/14/13 15/15/14 16/16/15
f 16/16/15 12/12/12 14/14/13
f 17/17/2 18/18/16 19/19/14
f 18/18/16 17/17/2 20/20/17
f 20/20/17 21/21/18 18/18/16
f 21/21/18 20/20/17 17/17/2
f 17/17/2 22/22/19 21/21/18
f 22/22/19 17/17/2 23/23/1
f 23/23/1 24/24/20 22/22/19
f 24/24/20 23/23/1 25/25/11
f 25/25/11 26/26/21 24/24/20
f 26/26/21 25/25/11 27/27/9
f 26/26/21 27/27/9 28/28/10
f 28/28/10 29/29/22 26/26/21
f 28/28/10 30/30/23 29/29/22
f 30/30/23 28/28/10 31/31/12
f 31/31/12 32/32/24 30/30/23
f 32/32/24 31/31/12 33/33/15
f 32/32/24 33/33/15 19/19/14
f 32/32/24 19/19/14 18/18/16
f 18/18/16 34/34/25 32/32/24
f 34/34/25 18/18/16 21/21/18
f 21/21/18 35/35/26 34/34/25
f 35/35/26 21/21/18 22/22/19
f 22/22/19 36/36/27 35/35/26
f 36/36/27 22/22/19 24/24/20
f 24/24/20 37/37/28 36/36/27
f 37/37/28 24/24/20 26/26/21
f 26/26/21 38/38/29 37/37/28
f 26/26/21 39/39/30 38/38/29
f 39/39/30 26/26/21 29/29/22
f 39/39/30 29/29/22 30/30/23
f 39/39/30 30/30/23 40/40/31
f 40/40/31 38/38/29 39/39/30
f 41/41/32 40/40/31 30/30/23
f 30/30/23 42/42/33 41/41/32
f 42/42/33 30/30/23 32/32/24
f 32/32/24 34/34/25 42/42/33
o Model001_p00g00o00g._0p
v 6.875000 12.562564 -209.375000
v -1.500000 12.500064 -209.312500
v 4.750000 27.937565 -209.125000
v 5.187500 -11.749936 -209.312500
v -1.125000 -20.062435 -208.687500
v -7.687500 -11.874936 -209.250000
v -10.562500 12.375064 -209.312500
v -8.062500 27.812565 -209.125000
v -1.750000 36.125065 -208.125000
v 13.062500 22.062523 -87.125000
v 17.687500 7.687528 -87.187500
v 13.375000 -6.749972 -87.250000
v 2.562500 -12.874976 -87.187500
v -8.312500 -6.999972 -87.187500
v -12.937500 7.375028 -87.062500
v -8.625000 21.875023 -87.062500
v 2.125000 27.937523 -87.062485
v 16.250000 26.000015 -35.437496
v 22.187500 7.500012 -35.500000
v 16.625000 -10.999985 -35.562500
v 2.750000 -18.812485 -35.562504
v -11.187500 -11.312485 -35.500000
v -17.125000 7.125012 -35.375000
v -11.562500 25.687515 -35.312496
v 2.187500 33.500019 -35.312496
v 18.750000 28.937496 23.125004
v 25.750000 7.312492 23.000002
v 19.187500 -14.375004 22.937498
v 3.000000 -23.500004 22.937496
v -13.312500 -14.750004 23.062498
v -20.312500 6.812492 23.187502
v -13.812500 28.562496 23.250004
v 2.375000 37.749996 23.187515
v 2.500000 37.249977 64.187515
v 16.000000 29.999981 64.125015
v 2.937500 12.312460 123.312500
v 21.812500 12.124980 64.062500
v 16.375000 -5.750021 64.000000
v 3.000000 -13.312520 63.999996
v -10.437500 -6.062521 64.062500
v -16.250000 11.749980 64.187500
v -10.812500 29.687481 64.250015
vt 3.987793 3.547119
vt 3.987793 3.547119
vt 3.987793 3.615967
vt 3.987793 3.478271
vt 3.987793 3.396973
vt 3.987793 3.478271
vt 3.987793 3.547119
vt 3.987793 3.615967
vt 3.987793 3.697266
vt 3.864502 3.599121
vt 3.864502 3.553467
vt 3.864502 3.507568
vt 3.864502 3.453369
vt 3.864502 3.507568
vt 3.864502 3.553467
vt 3.864502 3.599121
vt 3.864502 3.653564
vt 3.787109 3.605957
vt 3.787109 3.547119
vt 3.787109 3.488281
vt 3.787109 3.431152
vt 3.787109 3.488281
vt 3.787109 3.547119
vt 3.787109 3.605957
vt 3.787109 3.675537
vt 3.699707 3.615967
vt 3.699707 3.547119
vt 3.699707 3.478271
vt 3.697510 3.407471
vt 3.699707 3.478271
vt 3.699707 3.547119
vt 3.699707 3.615967
vt 3.699707 3.697266
vt 3.638428 3.685547
vt 3.638428 3.609619
vt 3.549805 3.565186
vt 3.638428 3.536133
vt 3.638428 3.495850
vt 3.638428 3.437500
vt 3.638428 3.495850
vt 3.638428 3.536133
vt 3.638428 3.609619
vn 0.7909 0.1051 -0.6029
vn -0.0032 0.0104 -0.9999
vn 0.5986 0.2956 -0.7445
vn 0.7458 -0.2749 -0.6068
vn 0.1702 -0.7317 -0.6600
vn -0.6563 -0.4922 -0.5718
vn -0.8183 -0.0709 -0.5705
vn -0.7607 0.3185 -0.5655
vn -0.0094 0.8546 -0.5192
vn 0.8264 0.5607 -0.0518
vn 0.9956 0.0479 -0.0800
vn 0.8223 -0.5663 -0.0556
vn -0.0518 -0.9981 -0.0346
vn -0.7880 -0.6136 -0.0503
vn -0.9984 -0.0324 -0.0463
vn -0.8238 0.5664 -0.0237
vn -0.0114 0.9987 -0.0489
vn 0.7649 0.6385 -0.0852
vn 0.9972 0.0102 -0.0734
vn 0.7781 -0.6222 -0.0855
vn 0.0093 -0.9952 -0.0972
vn -0.7663 -0.6375 -0.0800
vn -0.9977 -0.0107 -0.0674
vn -0.7798 0.6214 -0.0758
vn -0.0130 0.9964 -0.0837
vn 0.7675 0.6408 -0.0153
vn 0.9953 -0.0938 0.0228
vn 0.7279 -0.6850 0.0293
vn -0.0685 -0.9921 0.1053
vn -0.8451 -0.5319 0.0541
vn -0.9987 0.0511 0.0076
vn -0.7819 0.6234 -0.0071
vn -0.1213 0.9924 -0.0212
vn 0.1002 0.9810 0.1660
vn 0.7549 0.6278 0.1899
vn 0.0018 -0.0007 1.0000
vn 0.9825 0.0720 0.1718
vn 0.7600 -0.6053 0.2365
vn 0.0102 -0.9473 0.3203
vn -0.6896 -0.6759 0.2600
vn -0.9852 -0.0109 0.1710
vn -0.7194 0.6764 0.1578
usemtl Model001_Material002
s 1
f 43/43/34 44/44/35 45/45/36
f 44/44/35 43/43/34 46/46/37
f 44/44/35 46/46/37 47/47/38
f 44/44/35 47/47/38 48/48/39
f 44/44/35 48/48/39 49/49/40
f 44/44/35 49/49/40 50/50/41
f 44/44/35 50/50/41 51/51/42
f 51/51/42 45/45/36 44/44/35
f 45/45/36 51/51/42 52/52/43
f 52/52/43 43/43/34 45/45/36
f 43/43/34 52/52/43 53/53/44
f 53/53/44 46/46/37 43/43/34
f 46/46/37 53/53/44 54/54/45
f 54/54/45 47/47/38 46/46/37
f 47/47/38 54/54/45 55/55/46
f 55/55/46 48/48/39 47/47/38
f 48/48/39 55/55/46 56/56/47
f 56/56/47 49/49/40 48/48/39
f 49/49/40 56/56/47 57/57/48
f 57/57/48 50/50/41 49/49/40
f 50/50/41 57/57/48 58/58/49
f 58/58/49 51/51/42 50/50/41
f 51/51/42 58/58/49 59/59/50
f 59/59/50 52/52/43 51/51/42
f 52/52/43 59/59/50 60/60/51
f 60/60/51 53/53/44 52/52/43
f 53/53/44 60/60/51 61/61/52
f 61/61/52 54/54/45 53/53/44
f 54/54/45 61/61/52 62/62/53
f 62/62/53 55/55/46 54/54/45
f 55/55/46 62/62/53 63/63/54
f 63/63/54 56/56/47 55/55/46
f 56/56/47 63/63/54 64/64/55
f 64/64/55 57/57/48 56/56/47
f 57/57/48 64/64/55 65/65/56
f 65/65/56 58/58/49 57/57/48
f 58/58/49 65/65/56 66/66/57
f 66/66/57 59/59/50 58/58/49
f 59/59/50 66/66/57 67/67/58
f 67/67/58 60/60/51 59/59/50
f 60/60/51 67/67/58 68/68/59
f 68/68/59 61/61/52 60/60/51
f 61/61/52 68/68/59 69/69/60
f 69/69/60 62/62/53 61/61/52
f 62/62/53 69/69/60 70/70/61
f 70/70/61 63/63/54 62/62/53
f 63/63/54 70/70/61 71/71/62
f 71/71/62 64/64/55 63/63/54
f 64/64/55 71/71/62 72/72/63
f 72/72/63 65/65/56 64/64/55
f 65/65/56 72/72/63 73/73/64
f 73/73/64 66/66/57 65/65/56
f 66/66/57 73/73/64 74/74/65
f 74/74/65 67/67/58 66/66/57
f 67/67/58 74/74/65 75/75/66
f 75/75/66 68/68/59 67/67/58
f 68/68/59 75/75/66 76/76/67
f 76/76/67 77/77/68 68/68/59
f 77/77/68 76/76/67 78/78/69
f 77/77/68 78/78/69 79/79/70
f 79/79/70 68/68/59 77/77/68
f 79/79/70 69/69/60 68/68/59
f 79/79/70 80/80/71 69/69/60
f 80/80/71 79/79/70 78/78/69
f 78/78/69 81/81/72 80/80/71
f 81/81/72 78/78/69 82/82/73
f 81/81/72 82/82/73 71/71/62
f 71/71/62 80/80/71 81/81/72
f 80/80/71 71/71/62 70/70/61
f 70/70/61 69/69/60 80/80/71
f 72/72/63 71/71/62 82/82/73
f 82/82/73 83/83/74 72/72/63
f 83/83/74 82/82/73 78/78/69
f 78/78/69 84/84/75 83/83/74
f 84/84/75 78/78/69 76/76/67
f 84/84/75 76/76/67 75/75/66
f 84/84/75 75/75/66 74/74/65
f 74/74/65 83/83/74 84/84/75
f 83/83/74 74/74/65 73/73/64
f 73/73/64 72/72/63 83/83/74
