# Blender v2.79 (sub 0) OBJ File: ''
# www.blender.org
mtllib Bocinas.mtl
o Cube_Cube.001
v -1.000000 -1.693524 1.065544
v -1.000000 1.693524 1.065544
v -1.000000 -1.693524 -1.065544
v -1.000000 1.693524 -1.065544
v 1.000000 -1.693524 1.065544
v 1.000000 1.693524 1.065544
v 1.000000 -1.693524 -1.065544
v 1.000000 1.693524 -1.065544
vt 1.004174 0.005097
vt 0.997838 1.000045
vt 0.014556 0.993708
vt 0.020893 -0.001240
vt 0.666667 0.333333
vt 0.333333 0.333333
vt 0.333333 0.000000
vt 0.666667 0.000000
vt 0.333333 0.666667
vt 0.000000 0.666667
vt 0.000000 0.333333
vt 0.333333 0.333333
vt 0.333333 0.666667
vt 0.333333 0.333333
vt 0.666667 0.333333
vt 0.666667 0.666667
vt 1.000000 0.333333
vt 0.666667 0.333333
vt 0.666667 0.000000
vt 1.000000 0.000000
vt 0.333333 0.666667
vt 0.333333 1.000000
vt 0.000000 1.000000
vt 0.000000 0.666667
vn 1.0000 0.0000 0.0000
vn -1.0000 0.0000 0.0000
vn 0.0000 0.0000 -1.0000
vn 0.0000 0.0000 1.0000
vn 0.0000 -1.0000 0.0000
vn 0.0000 1.0000 0.0000
usemtl Material.001
s off
f 7/1/1 8/2/1 6/3/1 5/4/1
usemtl Material.002
f 1/5/2 2/6/2 4/7/2 3/8/2
f 3/9/3 4/10/3 8/11/3 7/12/3
f 5/13/4 6/14/4 2/15/4 1/16/4
f 3/17/5 7/18/5 5/19/5 1/20/5
f 8/21/6 4/22/6 2/23/6 6/24/6
